<?xml version="1.0" encoding="utf-8" standalone="no"?>
<!DOCTYPE svg PUBLIC "-//W3C//DTD SVG 1.1//EN"
  "http://www.w3.org/Graphics/SVG/1.1/DTD/svg11.dtd">
<svg xmlns:xlink="http://www.w3.org/1999/xlink" width="639.590625pt" height="280.8125pt" viewBox="0 0 639.590625 280.8125" xmlns="http://www.w3.org/2000/svg" version="1.1">
 <metadata>
  <rdf:RDF xmlns:dc="http://purl.org/dc/elements/1.1/" xmlns:cc="http://creativecommons.org/ns#" xmlns:rdf="http://www.w3.org/1999/02/22-rdf-syntax-ns#">
   <cc:Work>
    <dc:type rdf:resource="http://purl.org/dc/dcmitype/StillImage"/>
    <dc:date>2024-07-24T14:02:25.585243</dc:date>
    <dc:format>image/svg+xml</dc:format>
    <dc:creator>
     <cc:Agent>
      <dc:title>Matplotlib v3.8.3, https://matplotlib.org/</dc:title>
     </cc:Agent>
    </dc:creator>
   </cc:Work>
  </rdf:RDF>
 </metadata>
 <defs>
  <style type="text/css">*{stroke-linejoin: round; stroke-linecap: butt}</style>
 </defs>
 <g id="figure_1">
  <g id="patch_1">
   <path d="M -0 280.8125 
L 639.590625 280.8125 
L 639.590625 0 
L -0 0 
L -0 280.8125 
z
" style="fill: none"/>
  </g>
  <g id="axes_1">
   <g id="patch_2">
    <path d="M 108.890625 213.9 
L 318.181012 213.9 
L 318.181012 7.2 
L 108.890625 7.2 
L 108.890625 213.9 
z
" style="fill: none"/>
   </g>
   <g id="PolyCollection_1">
    <defs>
     <path id="m3674dcbd39" d="M 108.890625 -66.9125 
L 108.890625 -115.1425 
L 113.161857 -115.1425 
L 117.43309 -115.1425 
L 121.704322 -115.1425 
L 125.975555 -115.1425 
L 130.246787 -115.1425 
L 134.518019 -115.1425 
L 138.789252 -115.1425 
L 143.060484 -115.1425 
L 147.331717 -115.1425 
L 151.602949 -115.1425 
L 155.874181 -115.1425 
L 160.145414 -115.1425 
L 164.416646 -115.1425 
L 168.687878 -115.1425 
L 172.959111 -115.1425 
L 177.230343 -115.1425 
L 181.501576 -115.1425 
L 185.772808 -115.1425 
L 190.04404 -115.1425 
L 194.315273 -115.1425 
L 198.586505 -115.1425 
L 202.857738 -115.1425 
L 207.12897 -115.1425 
L 211.400202 -115.1425 
L 215.671435 -115.1425 
L 219.942667 -115.1425 
L 224.2139 -115.1425 
L 228.485132 -115.1425 
L 232.756364 -115.1425 
L 237.027597 -115.1425 
L 241.298829 -115.1425 
L 245.570061 -115.1425 
L 249.841294 -115.1425 
L 254.112526 -115.1425 
L 258.383759 -115.1425 
L 262.654991 -115.1425 
L 266.926223 -115.1425 
L 271.197456 -115.1425 
L 275.468688 -115.1425 
L 279.739921 -115.1425 
L 284.011153 -115.1425 
L 288.282385 -115.1425 
L 292.553618 -115.1425 
L 296.82485 -115.1425 
L 301.096083 -115.1425 
L 305.367315 -115.1425 
L 309.638547 -115.1425 
L 313.90978 -115.1425 
L 318.181012 -115.1425 
L 318.181012 -66.9125 
L 318.181012 -66.9125 
L 313.90978 -66.9125 
L 309.638547 -66.9125 
L 305.367315 -66.9125 
L 301.096083 -66.9125 
L 296.82485 -66.9125 
L 292.553618 -66.9125 
L 288.282385 -66.9125 
L 284.011153 -66.9125 
L 279.739921 -66.9125 
L 275.468688 -66.9125 
L 271.197456 -66.9125 
L 266.926223 -66.9125 
L 262.654991 -66.9125 
L 258.383759 -66.9125 
L 254.112526 -66.9125 
L 249.841294 -66.9125 
L 245.570061 -66.9125 
L 241.298829 -66.9125 
L 237.027597 -66.9125 
L 232.756364 -66.9125 
L 228.485132 -66.9125 
L 224.2139 -66.9125 
L 219.942667 -66.9125 
L 215.671435 -66.9125 
L 211.400202 -66.9125 
L 207.12897 -66.9125 
L 202.857738 -66.9125 
L 198.586505 -66.9125 
L 194.315273 -66.9125 
L 190.04404 -66.9125 
L 185.772808 -66.9125 
L 181.501576 -66.9125 
L 177.230343 -66.9125 
L 172.959111 -66.9125 
L 168.687878 -66.9125 
L 164.416646 -66.9125 
L 160.145414 -66.9125 
L 155.874181 -66.9125 
L 151.602949 -66.9125 
L 147.331717 -66.9125 
L 143.060484 -66.9125 
L 138.789252 -66.9125 
L 134.518019 -66.9125 
L 130.246787 -66.9125 
L 125.975555 -66.9125 
L 121.704322 -66.9125 
L 117.43309 -66.9125 
L 113.161857 -66.9125 
L 108.890625 -66.9125 
z
" style="stroke: #fab47c; stroke-opacity: 0.5"/>
    </defs>
    <g clip-path="url(#ped2be16f90)">
     <use xlink:href="#m3674dcbd39" x="0" y="280.8125" style="fill: #fab47c; fill-opacity: 0.5; stroke: #fab47c; stroke-opacity: 0.5"/>
    </g>
   </g>
   <g id="PathCollection_1">
    <defs>
     <path id="C0_0_af5bc4af36" d="M 0 6.123724 
C 1.624031 6.123724 3.181764 5.47849 4.330127 4.330127 
C 5.47849 3.181764 6.123724 1.624031 6.123724 -0 
C 6.123724 -1.624031 5.47849 -3.181764 4.330127 -4.330127 
C 3.181764 -5.47849 1.624031 -6.123724 0 -6.123724 
C -1.624031 -6.123724 -3.181764 -5.47849 -4.330127 -4.330127 
C -5.47849 -3.181764 -6.123724 -1.624031 -6.123724 0 
C -6.123724 1.624031 -5.47849 3.181764 -4.330127 4.330127 
C -3.181764 5.47849 -1.624031 6.123724 0 6.123724 
z
"/>
    </defs>
    <g clip-path="url(#ped2be16f90)">
     <use xlink:href="#C0_0_af5bc4af36" x="161.213222" y="41.230912" style="fill: #006ddb; stroke: #000000; stroke-width: 2"/>
    </g>
    <g clip-path="url(#ped2be16f90)">
     <use xlink:href="#C0_0_af5bc4af36" x="161.213222" y="40.42193" style="fill: #006ddb; fill-opacity: 0.957981; stroke: #000000; stroke-opacity: 0.957981; stroke-width: 2"/>
    </g>
    <g clip-path="url(#ped2be16f90)">
     <use xlink:href="#C0_0_af5bc4af36" x="161.213222" y="40.933144" style="fill: #006ddb; fill-opacity: 0.89969; stroke: #000000; stroke-opacity: 0.89969; stroke-width: 2"/>
    </g>
    <g clip-path="url(#ped2be16f90)">
     <use xlink:href="#C0_0_af5bc4af36" x="161.213222" y="40.679877" style="fill: #006ddb; fill-opacity: 0.808597; stroke: #000000; stroke-opacity: 0.808597; stroke-width: 2"/>
    </g>
    <g clip-path="url(#ped2be16f90)">
     <use xlink:href="#C0_0_af5bc4af36" x="161.213222" y="40.975406" style="fill: #006ddb; fill-opacity: 0.747002; stroke: #000000; stroke-opacity: 0.747002; stroke-width: 2"/>
    </g>
    <g clip-path="url(#ped2be16f90)">
     <use xlink:href="#C0_0_af5bc4af36" x="161.213222" y="41.025565" style="fill: #006ddb; fill-opacity: 0.72394; stroke: #000000; stroke-opacity: 0.72394; stroke-width: 2"/>
    </g>
    <g clip-path="url(#ped2be16f90)">
     <use xlink:href="#C0_0_af5bc4af36" x="161.213222" y="40.212577" style="fill: #006ddb; fill-opacity: 0.625208; stroke: #000000; stroke-opacity: 0.625208; stroke-width: 2"/>
    </g>
    <g clip-path="url(#ped2be16f90)">
     <use xlink:href="#C0_0_af5bc4af36" x="161.213222" y="41.571396" style="fill: #006ddb; fill-opacity: 0.616881; stroke: #000000; stroke-opacity: 0.616881; stroke-width: 2"/>
    </g>
    <g clip-path="url(#ped2be16f90)">
     <use xlink:href="#C0_0_af5bc4af36" x="161.213222" y="40.035224" style="fill: #006ddb; fill-opacity: 0.593601; stroke: #000000; stroke-opacity: 0.593601; stroke-width: 2"/>
    </g>
    <g clip-path="url(#ped2be16f90)">
     <use xlink:href="#C0_0_af5bc4af36" x="161.213222" y="41.795128" style="fill: #006ddb; fill-opacity: 0.508205; stroke: #000000; stroke-opacity: 0.508205; stroke-width: 2"/>
    </g>
    <g clip-path="url(#ped2be16f90)">
     <use xlink:href="#C0_0_af5bc4af36" x="161.213222" y="40.251663" style="fill: #006ddb; fill-opacity: 0.42392; stroke: #000000; stroke-opacity: 0.42392; stroke-width: 2"/>
    </g>
    <g clip-path="url(#ped2be16f90)">
     <use xlink:href="#C0_0_af5bc4af36" x="161.213222" y="40.140532" style="fill: #006ddb; fill-opacity: 0.422973; stroke: #000000; stroke-opacity: 0.422973; stroke-width: 2"/>
    </g>
    <g clip-path="url(#ped2be16f90)">
     <use xlink:href="#C0_0_af5bc4af36" x="161.213222" y="41.884122" style="fill: #006ddb; fill-opacity: 0.390522; stroke: #000000; stroke-opacity: 0.390522; stroke-width: 2"/>
    </g>
    <g clip-path="url(#ped2be16f90)">
     <use xlink:href="#C0_0_af5bc4af36" x="161.213222" y="40.954604" style="fill: #006ddb; fill-opacity: 0.383169; stroke: #000000; stroke-opacity: 0.383169; stroke-width: 2"/>
    </g>
    <g clip-path="url(#ped2be16f90)">
     <use xlink:href="#C0_0_af5bc4af36" x="161.213222" y="41.89954" style="fill: #006ddb; fill-opacity: 0.375819; stroke: #000000; stroke-opacity: 0.375819; stroke-width: 2"/>
    </g>
    <g clip-path="url(#ped2be16f90)">
     <use xlink:href="#C0_0_af5bc4af36" x="161.213222" y="42.129438" style="fill: #006ddb; fill-opacity: 0.369537; stroke: #000000; stroke-opacity: 0.369537; stroke-width: 2"/>
    </g>
    <g clip-path="url(#ped2be16f90)">
     <use xlink:href="#C0_0_af5bc4af36" x="161.213222" y="41.877577" style="fill: #006ddb; fill-opacity: 0.367137; stroke: #000000; stroke-opacity: 0.367137; stroke-width: 2"/>
    </g>
    <g clip-path="url(#ped2be16f90)">
     <use xlink:href="#C0_0_af5bc4af36" x="161.213222" y="40.159792" style="fill: #006ddb; fill-opacity: 0.366855; stroke: #000000; stroke-opacity: 0.366855; stroke-width: 2"/>
    </g>
    <g clip-path="url(#ped2be16f90)">
     <use xlink:href="#C0_0_af5bc4af36" x="161.213222" y="39.511558" style="fill: #006ddb; fill-opacity: 0.346021; stroke: #000000; stroke-opacity: 0.346021; stroke-width: 2"/>
    </g>
    <g clip-path="url(#ped2be16f90)">
     <use xlink:href="#C0_0_af5bc4af36" x="161.213222" y="39.927467" style="fill: #006ddb; fill-opacity: 0.345934; stroke: #000000; stroke-opacity: 0.345934; stroke-width: 2"/>
    </g>
    <g clip-path="url(#ped2be16f90)">
     <use xlink:href="#C0_0_af5bc4af36" x="161.213222" y="40.823061" style="fill: #006ddb; fill-opacity: 0.330699; stroke: #000000; stroke-opacity: 0.330699; stroke-width: 2"/>
    </g>
    <g clip-path="url(#ped2be16f90)">
     <use xlink:href="#C0_0_af5bc4af36" x="161.213222" y="39.492436" style="fill: #006ddb; fill-opacity: 0.328706; stroke: #000000; stroke-opacity: 0.328706; stroke-width: 2"/>
    </g>
    <g clip-path="url(#ped2be16f90)">
     <use xlink:href="#C0_0_af5bc4af36" x="161.213222" y="39.737875" style="fill: #006ddb; fill-opacity: 0.313302; stroke: #000000; stroke-opacity: 0.313302; stroke-width: 2"/>
    </g>
    <g clip-path="url(#ped2be16f90)">
     <use xlink:href="#C0_0_af5bc4af36" x="161.213222" y="40.232153" style="fill: #006ddb; fill-opacity: 0.309001; stroke: #000000; stroke-opacity: 0.309001; stroke-width: 2"/>
    </g>
    <g clip-path="url(#ped2be16f90)">
     <use xlink:href="#C0_0_af5bc4af36" x="161.213222" y="41.486284" style="fill: #006ddb; fill-opacity: 0.306501; stroke: #000000; stroke-opacity: 0.306501; stroke-width: 2"/>
    </g>
    <g clip-path="url(#ped2be16f90)">
     <use xlink:href="#C0_0_af5bc4af36" x="161.213222" y="39.582696" style="fill: #006ddb; fill-opacity: 0.300095; stroke: #000000; stroke-opacity: 0.300095; stroke-width: 2"/>
    </g>
    <g clip-path="url(#ped2be16f90)">
     <use xlink:href="#C0_0_af5bc4af36" x="161.213222" y="42.085041" style="fill: #006ddb; fill-opacity: 0.293226; stroke: #000000; stroke-opacity: 0.293226; stroke-width: 2"/>
    </g>
    <g clip-path="url(#ped2be16f90)">
     <use xlink:href="#C0_0_af5bc4af36" x="161.213222" y="39.665694" style="fill: #006ddb; fill-opacity: 0.287613; stroke: #000000; stroke-opacity: 0.287613; stroke-width: 2"/>
    </g>
    <g clip-path="url(#ped2be16f90)">
     <use xlink:href="#C0_0_af5bc4af36" x="161.213222" y="39.44004" style="fill: #006ddb; fill-opacity: 0.287085; stroke: #000000; stroke-opacity: 0.287085; stroke-width: 2"/>
    </g>
    <g clip-path="url(#ped2be16f90)">
     <use xlink:href="#C0_0_af5bc4af36" x="161.213222" y="39.405812" style="fill: #006ddb; fill-opacity: 0.267079; stroke: #000000; stroke-opacity: 0.267079; stroke-width: 2"/>
    </g>
   </g>
   <g id="PathCollection_2">
    <defs>
     <path id="m696a32602b" d="M -5.303301 -9.185587 
L -10.606602 -0 
L -5.303301 9.185587 
L 5.303301 9.185587 
L 10.606602 0 
L 5.303301 -9.185587 
z
" style="stroke: #000000; stroke-width: 2"/>
    </defs>
    <g clip-path="url(#ped2be16f90)">
     <use xlink:href="#m696a32602b" x="161.213222" y="41.230912" style="fill: #006ddb; stroke: #000000; stroke-width: 2"/>
    </g>
   </g>
   <g id="PathCollection_3">
    <defs>
     <path id="C1_0_f7469d227e" d="M 0 6.123724 
C 1.624031 6.123724 3.181764 5.47849 4.330127 4.330127 
C 5.47849 3.181764 6.123724 1.624031 6.123724 -0 
C 6.123724 -1.624031 5.47849 -3.181764 4.330127 -4.330127 
C 3.181764 -5.47849 1.624031 -6.123724 0 -6.123724 
C -1.624031 -6.123724 -3.181764 -5.47849 -4.330127 -4.330127 
C -5.47849 -3.181764 -6.123724 -1.624031 -6.123724 0 
C -6.123724 1.624031 -5.47849 3.181764 -4.330127 4.330127 
C -3.181764 5.47849 -1.624031 6.123724 0 6.123724 
z
"/>
    </defs>
    <g clip-path="url(#ped2be16f90)">
     <use xlink:href="#C1_0_f7469d227e" x="265.858415" y="115.40708" style="fill: #920000; stroke: #000000; stroke-width: 2"/>
    </g>
    <g clip-path="url(#ped2be16f90)">
     <use xlink:href="#C1_0_f7469d227e" x="265.858415" y="117.534223" style="fill: #920000; fill-opacity: 0.467353; stroke: #000000; stroke-opacity: 0.467353; stroke-width: 2"/>
    </g>
    <g clip-path="url(#ped2be16f90)">
     <use xlink:href="#C1_0_f7469d227e" x="265.858415" y="110.589283" style="fill: #920000; fill-opacity: 0.351615; stroke: #000000; stroke-opacity: 0.351615; stroke-width: 2"/>
    </g>
    <g clip-path="url(#ped2be16f90)">
     <use xlink:href="#C1_0_f7469d227e" x="265.858415" y="107.033805" style="fill: #920000; fill-opacity: 0.210448; stroke: #000000; stroke-opacity: 0.210448; stroke-width: 2"/>
    </g>
    <g clip-path="url(#ped2be16f90)">
     <use xlink:href="#C1_0_f7469d227e" x="265.858415" y="121.163992" style="fill: #920000; fill-opacity: 0.204326; stroke: #000000; stroke-opacity: 0.204326; stroke-width: 2"/>
    </g>
    <g clip-path="url(#ped2be16f90)">
     <use xlink:href="#C1_0_f7469d227e" x="265.858415" y="109.817149" style="fill: #920000; fill-opacity: 0.20326; stroke: #000000; stroke-opacity: 0.20326; stroke-width: 2"/>
    </g>
    <g clip-path="url(#ped2be16f90)">
     <use xlink:href="#C1_0_f7469d227e" x="265.858415" y="120.975138" style="fill: #920000; fill-opacity: 0.176437; stroke: #000000; stroke-opacity: 0.176437; stroke-width: 2"/>
    </g>
    <g clip-path="url(#ped2be16f90)">
     <use xlink:href="#C1_0_f7469d227e" x="265.858415" y="125.274453" style="fill: #920000; fill-opacity: 0.173708; stroke: #000000; stroke-opacity: 0.173708; stroke-width: 2"/>
    </g>
    <g clip-path="url(#ped2be16f90)">
     <use xlink:href="#C1_0_f7469d227e" x="265.858415" y="122.982949" style="fill: #920000; fill-opacity: 0.15318; stroke: #000000; stroke-opacity: 0.15318; stroke-width: 2"/>
    </g>
    <g clip-path="url(#ped2be16f90)">
     <use xlink:href="#C1_0_f7469d227e" x="265.858415" y="107.754252" style="fill: #920000; fill-opacity: 0.135434; stroke: #000000; stroke-opacity: 0.135434; stroke-width: 2"/>
    </g>
    <g clip-path="url(#ped2be16f90)">
     <use xlink:href="#C1_0_f7469d227e" x="265.858415" y="110.11758" style="fill: #920000; fill-opacity: 0.12632; stroke: #000000; stroke-opacity: 0.12632; stroke-width: 2"/>
    </g>
    <g clip-path="url(#ped2be16f90)">
     <use xlink:href="#C1_0_f7469d227e" x="265.858415" y="125.99126" style="fill: #920000; fill-opacity: 0.119131; stroke: #000000; stroke-opacity: 0.119131; stroke-width: 2"/>
    </g>
    <g clip-path="url(#ped2be16f90)">
     <use xlink:href="#C1_0_f7469d227e" x="265.858415" y="136.133189" style="fill: #920000; fill-opacity: 0.10139; stroke: #000000; stroke-opacity: 0.10139; stroke-width: 2"/>
    </g>
    <g clip-path="url(#ped2be16f90)">
     <use xlink:href="#C1_0_f7469d227e" x="265.858415" y="102.558341" style="fill: #920000; fill-opacity: 0.081103; stroke: #000000; stroke-opacity: 0.081103; stroke-width: 2"/>
    </g>
    <g clip-path="url(#ped2be16f90)">
     <use xlink:href="#C1_0_f7469d227e" x="265.858415" y="104.601501" style="fill: #920000; fill-opacity: 0.078649; stroke: #000000; stroke-opacity: 0.078649; stroke-width: 2"/>
    </g>
    <g clip-path="url(#ped2be16f90)">
     <use xlink:href="#C1_0_f7469d227e" x="265.858415" y="139.648319" style="fill: #920000; fill-opacity: 0.070393; stroke: #000000; stroke-opacity: 0.070393; stroke-width: 2"/>
    </g>
    <g clip-path="url(#ped2be16f90)">
     <use xlink:href="#C1_0_f7469d227e" x="265.858415" y="118.494747" style="fill: #920000; fill-opacity: 0.069128; stroke: #000000; stroke-opacity: 0.069128; stroke-width: 2"/>
    </g>
    <g clip-path="url(#ped2be16f90)">
     <use xlink:href="#C1_0_f7469d227e" x="265.858415" y="94.375106" style="fill: #920000; fill-opacity: 0.065348; stroke: #000000; stroke-opacity: 0.065348; stroke-width: 2"/>
    </g>
    <g clip-path="url(#ped2be16f90)">
     <use xlink:href="#C1_0_f7469d227e" x="265.858415" y="96.087627" style="fill: #920000; fill-opacity: 0.065043; stroke: #000000; stroke-opacity: 0.065043; stroke-width: 2"/>
    </g>
    <g clip-path="url(#ped2be16f90)">
     <use xlink:href="#C1_0_f7469d227e" x="265.858415" y="97.953594" style="fill: #920000; fill-opacity: 0.059688; stroke: #000000; stroke-opacity: 0.059688; stroke-width: 2"/>
    </g>
    <g clip-path="url(#ped2be16f90)">
     <use xlink:href="#C1_0_f7469d227e" x="265.858415" y="98.84584" style="fill: #920000; fill-opacity: 0.05822; stroke: #000000; stroke-opacity: 0.05822; stroke-width: 2"/>
    </g>
    <g clip-path="url(#ped2be16f90)">
     <use xlink:href="#C1_0_f7469d227e" x="265.858415" y="93.8825" style="fill: #920000; fill-opacity: 0.057655; stroke: #000000; stroke-opacity: 0.057655; stroke-width: 2"/>
    </g>
    <g clip-path="url(#ped2be16f90)">
     <use xlink:href="#C1_0_f7469d227e" x="265.858415" y="95.342908" style="fill: #920000; fill-opacity: 0.057112; stroke: #000000; stroke-opacity: 0.057112; stroke-width: 2"/>
    </g>
    <g clip-path="url(#ped2be16f90)">
     <use xlink:href="#C1_0_f7469d227e" x="265.858415" y="90.444885" style="fill: #920000; fill-opacity: 0.055121; stroke: #000000; stroke-opacity: 0.055121; stroke-width: 2"/>
    </g>
    <g clip-path="url(#ped2be16f90)">
     <use xlink:href="#C1_0_f7469d227e" x="265.858415" y="89.696549" style="fill: #920000; fill-opacity: 0.055077; stroke: #000000; stroke-opacity: 0.055077; stroke-width: 2"/>
    </g>
    <g clip-path="url(#ped2be16f90)">
     <use xlink:href="#C1_0_f7469d227e" x="265.858415" y="88.256685" style="fill: #920000; fill-opacity: 0.05495; stroke: #000000; stroke-opacity: 0.05495; stroke-width: 2"/>
    </g>
    <g clip-path="url(#ped2be16f90)">
     <use xlink:href="#C1_0_f7469d227e" x="265.858415" y="90.301316" style="fill: #920000; fill-opacity: 0.054469; stroke: #000000; stroke-opacity: 0.054469; stroke-width: 2"/>
    </g>
    <g clip-path="url(#ped2be16f90)">
     <use xlink:href="#C1_0_f7469d227e" x="265.858415" y="96.726167" style="fill: #920000; fill-opacity: 0.054318; stroke: #000000; stroke-opacity: 0.054318; stroke-width: 2"/>
    </g>
    <g clip-path="url(#ped2be16f90)">
     <use xlink:href="#C1_0_f7469d227e" x="265.858415" y="141.691431" style="fill: #920000; fill-opacity: 0.054036; stroke: #000000; stroke-opacity: 0.054036; stroke-width: 2"/>
    </g>
    <g clip-path="url(#ped2be16f90)">
     <use xlink:href="#C1_0_f7469d227e" x="265.858415" y="89.836979" style="fill: #920000; fill-opacity: 0.051608; stroke: #000000; stroke-opacity: 0.051608; stroke-width: 2"/>
    </g>
   </g>
   <g id="PathCollection_4">
    <defs>
     <path id="m16dddd8300" d="M -5.303301 -9.185587 
L -10.606602 -0 
L -5.303301 9.185587 
L 5.303301 9.185587 
L 10.606602 0 
L 5.303301 -9.185587 
z
" style="stroke: #000000; stroke-width: 2"/>
    </defs>
    <g clip-path="url(#ped2be16f90)">
     <use xlink:href="#m16dddd8300" x="265.858415" y="115.40708" style="fill: #920000; stroke: #000000; stroke-width: 2"/>
    </g>
   </g>
   <g id="line2d_1">
    <path d="M 108.890625 165.67 
L 113.161857 165.67 
L 117.43309 165.67 
L 121.704322 165.67 
L 125.975555 165.67 
L 130.246787 165.67 
L 134.518019 165.67 
L 138.789252 165.67 
L 143.060484 165.67 
L 147.331717 165.67 
L 151.602949 165.67 
L 155.874181 165.67 
L 160.145414 165.67 
L 164.416646 165.67 
L 168.687878 165.67 
L 172.959111 165.67 
L 177.230343 165.67 
L 181.501576 165.67 
L 185.772808 165.67 
L 190.04404 165.67 
L 194.315273 165.67 
L 198.586505 165.67 
L 202.857738 165.67 
L 207.12897 165.67 
L 211.400202 165.67 
L 215.671435 165.67 
L 219.942667 165.67 
L 224.2139 165.67 
L 228.485132 165.67 
L 232.756364 165.67 
L 237.027597 165.67 
L 241.298829 165.67 
L 245.570061 165.67 
L 249.841294 165.67 
L 254.112526 165.67 
L 258.383759 165.67 
L 262.654991 165.67 
L 266.926223 165.67 
L 271.197456 165.67 
L 275.468688 165.67 
L 279.739921 165.67 
L 284.011153 165.67 
L 288.282385 165.67 
L 292.553618 165.67 
L 296.82485 165.67 
L 301.096083 165.67 
L 305.367315 165.67 
L 309.638547 165.67 
L 313.90978 165.67 
L 318.181012 165.67 
" clip-path="url(#ped2be16f90)" style="fill: none; stroke: #808080; stroke-width: 3; stroke-linecap: square"/>
   </g>
   <g id="patch_3">
    <path d="M 108.890625 213.9 
L 108.890625 7.2 
" style="fill: none; stroke: #000000; stroke-width: 4; stroke-linejoin: miter; stroke-linecap: square"/>
   </g>
   <g id="patch_4">
    <path d="M 108.890625 213.9 
L 318.181012 213.9 
" style="fill: none; stroke: #000000; stroke-width: 4; stroke-linejoin: miter; stroke-linecap: square"/>
   </g>
   <g id="matplotlib.axis_1">
    <g id="xtick_1">
     <g id="line2d_2">
      <defs>
       <path id="m6f0dd8ad82" d="M 0 0 
L 0 12 
" style="stroke: #000000; stroke-width: 4"/>
      </defs>
      <g>
       <use xlink:href="#m6f0dd8ad82" x="161.213222" y="213.9" style="stroke: #000000; stroke-width: 4"/>
      </g>
     </g>
     <g id="text_1">
      <!-- Healthy -->
      <g transform="translate(122.456972 245.096875) scale(0.2 -0.2)">
       <defs>
        <path id="DejaVuSans-48" d="M 628 4666 
L 1259 4666 
L 1259 2753 
L 3553 2753 
L 3553 4666 
L 4184 4666 
L 4184 0 
L 3553 0 
L 3553 2222 
L 1259 2222 
L 1259 0 
L 628 0 
L 628 4666 
z
" transform="scale(0.015625)"/>
        <path id="DejaVuSans-65" d="M 3597 1894 
L 3597 1613 
L 953 1613 
Q 991 1019 1311 708 
Q 1631 397 2203 397 
Q 2534 397 2845 478 
Q 3156 559 3463 722 
L 3463 178 
Q 3153 47 2828 -22 
Q 2503 -91 2169 -91 
Q 1331 -91 842 396 
Q 353 884 353 1716 
Q 353 2575 817 3079 
Q 1281 3584 2069 3584 
Q 2775 3584 3186 3129 
Q 3597 2675 3597 1894 
z
M 3022 2063 
Q 3016 2534 2758 2815 
Q 2500 3097 2075 3097 
Q 1594 3097 1305 2825 
Q 1016 2553 972 2059 
L 3022 2063 
z
" transform="scale(0.015625)"/>
        <path id="DejaVuSans-61" d="M 2194 1759 
Q 1497 1759 1228 1600 
Q 959 1441 959 1056 
Q 959 750 1161 570 
Q 1363 391 1709 391 
Q 2188 391 2477 730 
Q 2766 1069 2766 1631 
L 2766 1759 
L 2194 1759 
z
M 3341 1997 
L 3341 0 
L 2766 0 
L 2766 531 
Q 2569 213 2275 61 
Q 1981 -91 1556 -91 
Q 1019 -91 701 211 
Q 384 513 384 1019 
Q 384 1609 779 1909 
Q 1175 2209 1959 2209 
L 2766 2209 
L 2766 2266 
Q 2766 2663 2505 2880 
Q 2244 3097 1772 3097 
Q 1472 3097 1187 3025 
Q 903 2953 641 2809 
L 641 3341 
Q 956 3463 1253 3523 
Q 1550 3584 1831 3584 
Q 2591 3584 2966 3190 
Q 3341 2797 3341 1997 
z
" transform="scale(0.015625)"/>
        <path id="DejaVuSans-6c" d="M 603 4863 
L 1178 4863 
L 1178 0 
L 603 0 
L 603 4863 
z
" transform="scale(0.015625)"/>
        <path id="DejaVuSans-74" d="M 1172 4494 
L 1172 3500 
L 2356 3500 
L 2356 3053 
L 1172 3053 
L 1172 1153 
Q 1172 725 1289 603 
Q 1406 481 1766 481 
L 2356 481 
L 2356 0 
L 1766 0 
Q 1100 0 847 248 
Q 594 497 594 1153 
L 594 3053 
L 172 3053 
L 172 3500 
L 594 3500 
L 594 4494 
L 1172 4494 
z
" transform="scale(0.015625)"/>
        <path id="DejaVuSans-68" d="M 3513 2113 
L 3513 0 
L 2938 0 
L 2938 2094 
Q 2938 2591 2744 2837 
Q 2550 3084 2163 3084 
Q 1697 3084 1428 2787 
Q 1159 2491 1159 1978 
L 1159 0 
L 581 0 
L 581 4863 
L 1159 4863 
L 1159 2956 
Q 1366 3272 1645 3428 
Q 1925 3584 2291 3584 
Q 2894 3584 3203 3211 
Q 3513 2838 3513 2113 
z
" transform="scale(0.015625)"/>
        <path id="DejaVuSans-79" d="M 2059 -325 
Q 1816 -950 1584 -1140 
Q 1353 -1331 966 -1331 
L 506 -1331 
L 506 -850 
L 844 -850 
Q 1081 -850 1212 -737 
Q 1344 -625 1503 -206 
L 1606 56 
L 191 3500 
L 800 3500 
L 1894 763 
L 2988 3500 
L 3597 3500 
L 2059 -325 
z
" transform="scale(0.015625)"/>
       </defs>
       <use xlink:href="#DejaVuSans-48"/>
       <use xlink:href="#DejaVuSans-65" x="75.195312"/>
       <use xlink:href="#DejaVuSans-61" x="136.71875"/>
       <use xlink:href="#DejaVuSans-6c" x="197.998047"/>
       <use xlink:href="#DejaVuSans-74" x="225.78125"/>
       <use xlink:href="#DejaVuSans-68" x="264.990234"/>
       <use xlink:href="#DejaVuSans-79" x="328.369141"/>
      </g>
     </g>
    </g>
    <g id="xtick_2">
     <g id="line2d_3">
      <g>
       <use xlink:href="#m6f0dd8ad82" x="265.858415" y="213.9" style="stroke: #000000; stroke-width: 4"/>
      </g>
     </g>
     <g id="text_2">
      <!-- Diseased -->
      <g transform="translate(220.178728 245.096875) scale(0.2 -0.2)">
       <defs>
        <path id="DejaVuSans-44" d="M 1259 4147 
L 1259 519 
L 2022 519 
Q 2988 519 3436 956 
Q 3884 1394 3884 2338 
Q 3884 3275 3436 3711 
Q 2988 4147 2022 4147 
L 1259 4147 
z
M 628 4666 
L 1925 4666 
Q 3281 4666 3915 4102 
Q 4550 3538 4550 2338 
Q 4550 1131 3912 565 
Q 3275 0 1925 0 
L 628 0 
L 628 4666 
z
" transform="scale(0.015625)"/>
        <path id="DejaVuSans-69" d="M 603 3500 
L 1178 3500 
L 1178 0 
L 603 0 
L 603 3500 
z
M 603 4863 
L 1178 4863 
L 1178 4134 
L 603 4134 
L 603 4863 
z
" transform="scale(0.015625)"/>
        <path id="DejaVuSans-73" d="M 2834 3397 
L 2834 2853 
Q 2591 2978 2328 3040 
Q 2066 3103 1784 3103 
Q 1356 3103 1142 2972 
Q 928 2841 928 2578 
Q 928 2378 1081 2264 
Q 1234 2150 1697 2047 
L 1894 2003 
Q 2506 1872 2764 1633 
Q 3022 1394 3022 966 
Q 3022 478 2636 193 
Q 2250 -91 1575 -91 
Q 1294 -91 989 -36 
Q 684 19 347 128 
L 347 722 
Q 666 556 975 473 
Q 1284 391 1588 391 
Q 1994 391 2212 530 
Q 2431 669 2431 922 
Q 2431 1156 2273 1281 
Q 2116 1406 1581 1522 
L 1381 1569 
Q 847 1681 609 1914 
Q 372 2147 372 2553 
Q 372 3047 722 3315 
Q 1072 3584 1716 3584 
Q 2034 3584 2315 3537 
Q 2597 3491 2834 3397 
z
" transform="scale(0.015625)"/>
        <path id="DejaVuSans-64" d="M 2906 2969 
L 2906 4863 
L 3481 4863 
L 3481 0 
L 2906 0 
L 2906 525 
Q 2725 213 2448 61 
Q 2172 -91 1784 -91 
Q 1150 -91 751 415 
Q 353 922 353 1747 
Q 353 2572 751 3078 
Q 1150 3584 1784 3584 
Q 2172 3584 2448 3432 
Q 2725 3281 2906 2969 
z
M 947 1747 
Q 947 1113 1208 752 
Q 1469 391 1925 391 
Q 2381 391 2643 752 
Q 2906 1113 2906 1747 
Q 2906 2381 2643 2742 
Q 2381 3103 1925 3103 
Q 1469 3103 1208 2742 
Q 947 2381 947 1747 
z
" transform="scale(0.015625)"/>
       </defs>
       <use xlink:href="#DejaVuSans-44"/>
       <use xlink:href="#DejaVuSans-69" x="77.001953"/>
       <use xlink:href="#DejaVuSans-73" x="104.785156"/>
       <use xlink:href="#DejaVuSans-65" x="156.884766"/>
       <use xlink:href="#DejaVuSans-61" x="218.408203"/>
       <use xlink:href="#DejaVuSans-73" x="279.6875"/>
       <use xlink:href="#DejaVuSans-65" x="331.787109"/>
       <use xlink:href="#DejaVuSans-64" x="393.310547"/>
      </g>
     </g>
    </g>
   </g>
   <g id="matplotlib.axis_2">
    <g id="ytick_1">
     <g id="line2d_4">
      <defs>
       <path id="m6edb81d767" d="M 0 0 
L -12 0 
" style="stroke: #000000; stroke-width: 4"/>
      </defs>
      <g>
       <use xlink:href="#m6edb81d767" x="108.890625" y="200.12" style="stroke: #000000; stroke-width: 4"/>
      </g>
     </g>
     <g id="text_3">
      <!-- −0.25 -->
      <g transform="translate(31.6 205.63875) scale(0.2 -0.2)">
       <defs>
        <path id="DejaVuSans-2212" d="M 678 2272 
L 4684 2272 
L 4684 1741 
L 678 1741 
L 678 2272 
z
" transform="scale(0.015625)"/>
        <path id="DejaVuSans-30" d="M 2034 4250 
Q 1547 4250 1301 3770 
Q 1056 3291 1056 2328 
Q 1056 1369 1301 889 
Q 1547 409 2034 409 
Q 2525 409 2770 889 
Q 3016 1369 3016 2328 
Q 3016 3291 2770 3770 
Q 2525 4250 2034 4250 
z
M 2034 4750 
Q 2819 4750 3233 4129 
Q 3647 3509 3647 2328 
Q 3647 1150 3233 529 
Q 2819 -91 2034 -91 
Q 1250 -91 836 529 
Q 422 1150 422 2328 
Q 422 3509 836 4129 
Q 1250 4750 2034 4750 
z
" transform="scale(0.015625)"/>
        <path id="DejaVuSans-2e" d="M 684 794 
L 1344 794 
L 1344 0 
L 684 0 
L 684 794 
z
" transform="scale(0.015625)"/>
        <path id="DejaVuSans-32" d="M 1228 531 
L 3431 531 
L 3431 0 
L 469 0 
L 469 531 
Q 828 903 1448 1529 
Q 2069 2156 2228 2338 
Q 2531 2678 2651 2914 
Q 2772 3150 2772 3378 
Q 2772 3750 2511 3984 
Q 2250 4219 1831 4219 
Q 1534 4219 1204 4116 
Q 875 4013 500 3803 
L 500 4441 
Q 881 4594 1212 4672 
Q 1544 4750 1819 4750 
Q 2544 4750 2975 4387 
Q 3406 4025 3406 3419 
Q 3406 3131 3298 2873 
Q 3191 2616 2906 2266 
Q 2828 2175 2409 1742 
Q 1991 1309 1228 531 
z
" transform="scale(0.015625)"/>
        <path id="DejaVuSans-35" d="M 691 4666 
L 3169 4666 
L 3169 4134 
L 1269 4134 
L 1269 2991 
Q 1406 3038 1543 3061 
Q 1681 3084 1819 3084 
Q 2600 3084 3056 2656 
Q 3513 2228 3513 1497 
Q 3513 744 3044 326 
Q 2575 -91 1722 -91 
Q 1428 -91 1123 -41 
Q 819 9 494 109 
L 494 744 
Q 775 591 1075 516 
Q 1375 441 1709 441 
Q 2250 441 2565 725 
Q 2881 1009 2881 1497 
Q 2881 1984 2565 2268 
Q 2250 2553 1709 2553 
Q 1456 2553 1204 2497 
Q 953 2441 691 2322 
L 691 4666 
z
" transform="scale(0.015625)"/>
       </defs>
       <use xlink:href="#DejaVuSans-2212"/>
       <use xlink:href="#DejaVuSans-30" x="83.789062"/>
       <use xlink:href="#DejaVuSans-2e" x="147.412109"/>
       <use xlink:href="#DejaVuSans-32" x="179.199219"/>
       <use xlink:href="#DejaVuSans-35" x="242.822266"/>
      </g>
     </g>
    </g>
    <g id="ytick_2">
     <g id="line2d_5">
      <g>
       <use xlink:href="#m6edb81d767" x="108.890625" y="165.67" style="stroke: #000000; stroke-width: 4"/>
      </g>
     </g>
     <g id="text_4">
      <!-- 0.00 -->
      <g transform="translate(48.359375 171.18875) scale(0.2 -0.2)">
       <use xlink:href="#DejaVuSans-30"/>
       <use xlink:href="#DejaVuSans-2e" x="63.623047"/>
       <use xlink:href="#DejaVuSans-30" x="95.410156"/>
       <use xlink:href="#DejaVuSans-30" x="159.033203"/>
      </g>
     </g>
    </g>
    <g id="ytick_3">
     <g id="line2d_6">
      <g>
       <use xlink:href="#m6edb81d767" x="108.890625" y="131.22" style="stroke: #000000; stroke-width: 4"/>
      </g>
     </g>
     <g id="text_5">
      <!-- 0.25 -->
      <g transform="translate(48.359375 136.73875) scale(0.2 -0.2)">
       <use xlink:href="#DejaVuSans-30"/>
       <use xlink:href="#DejaVuSans-2e" x="63.623047"/>
       <use xlink:href="#DejaVuSans-32" x="95.410156"/>
       <use xlink:href="#DejaVuSans-35" x="159.033203"/>
      </g>
     </g>
    </g>
    <g id="ytick_4">
     <g id="line2d_7">
      <g>
       <use xlink:href="#m6edb81d767" x="108.890625" y="96.77" style="stroke: #000000; stroke-width: 4"/>
      </g>
     </g>
     <g id="text_6">
      <!-- 0.50 -->
      <g transform="translate(48.359375 102.28875) scale(0.2 -0.2)">
       <use xlink:href="#DejaVuSans-30"/>
       <use xlink:href="#DejaVuSans-2e" x="63.623047"/>
       <use xlink:href="#DejaVuSans-35" x="95.410156"/>
       <use xlink:href="#DejaVuSans-30" x="159.033203"/>
      </g>
     </g>
    </g>
    <g id="ytick_5">
     <g id="line2d_8">
      <g>
       <use xlink:href="#m6edb81d767" x="108.890625" y="62.32" style="stroke: #000000; stroke-width: 4"/>
      </g>
     </g>
     <g id="text_7">
      <!-- 0.75 -->
      <g transform="translate(48.359375 67.83875) scale(0.2 -0.2)">
       <defs>
        <path id="DejaVuSans-37" d="M 525 4666 
L 3525 4666 
L 3525 4397 
L 1831 0 
L 1172 0 
L 2766 4134 
L 525 4134 
L 525 4666 
z
" transform="scale(0.015625)"/>
       </defs>
       <use xlink:href="#DejaVuSans-30"/>
       <use xlink:href="#DejaVuSans-2e" x="63.623047"/>
       <use xlink:href="#DejaVuSans-37" x="95.410156"/>
       <use xlink:href="#DejaVuSans-35" x="159.033203"/>
      </g>
     </g>
    </g>
    <g id="ytick_6">
     <g id="line2d_9">
      <g>
       <use xlink:href="#m6edb81d767" x="108.890625" y="27.87" style="stroke: #000000; stroke-width: 4"/>
      </g>
     </g>
     <g id="text_8">
      <!-- 1.00 -->
      <g transform="translate(48.359375 33.38875) scale(0.2 -0.2)">
       <defs>
        <path id="DejaVuSans-31" d="M 794 531 
L 1825 531 
L 1825 4091 
L 703 3866 
L 703 4441 
L 1819 4666 
L 2450 4666 
L 2450 531 
L 3481 531 
L 3481 0 
L 794 0 
L 794 531 
z
" transform="scale(0.015625)"/>
       </defs>
       <use xlink:href="#DejaVuSans-31"/>
       <use xlink:href="#DejaVuSans-2e" x="63.623047"/>
       <use xlink:href="#DejaVuSans-30" x="95.410156"/>
       <use xlink:href="#DejaVuSans-30" x="159.033203"/>
      </g>
     </g>
    </g>
    <g id="text_9">
     <!-- Replicon, $\mathcal{R}$ -->
     <g transform="translate(22.4 168.35) rotate(-90) scale(0.2 -0.2)">
      <defs>
       <path id="DejaVuSans-52" d="M 2841 2188 
Q 3044 2119 3236 1894 
Q 3428 1669 3622 1275 
L 4263 0 
L 3584 0 
L 2988 1197 
Q 2756 1666 2539 1819 
Q 2322 1972 1947 1972 
L 1259 1972 
L 1259 0 
L 628 0 
L 628 4666 
L 2053 4666 
Q 2853 4666 3247 4331 
Q 3641 3997 3641 3322 
Q 3641 2881 3436 2590 
Q 3231 2300 2841 2188 
z
M 1259 4147 
L 1259 2491 
L 2053 2491 
Q 2509 2491 2742 2702 
Q 2975 2913 2975 3322 
Q 2975 3731 2742 3939 
Q 2509 4147 2053 4147 
L 1259 4147 
z
" transform="scale(0.015625)"/>
       <path id="DejaVuSans-70" d="M 1159 525 
L 1159 -1331 
L 581 -1331 
L 581 3500 
L 1159 3500 
L 1159 2969 
Q 1341 3281 1617 3432 
Q 1894 3584 2278 3584 
Q 2916 3584 3314 3078 
Q 3713 2572 3713 1747 
Q 3713 922 3314 415 
Q 2916 -91 2278 -91 
Q 1894 -91 1617 61 
Q 1341 213 1159 525 
z
M 3116 1747 
Q 3116 2381 2855 2742 
Q 2594 3103 2138 3103 
Q 1681 3103 1420 2742 
Q 1159 2381 1159 1747 
Q 1159 1113 1420 752 
Q 1681 391 2138 391 
Q 2594 391 2855 752 
Q 3116 1113 3116 1747 
z
" transform="scale(0.015625)"/>
       <path id="DejaVuSans-63" d="M 3122 3366 
L 3122 2828 
Q 2878 2963 2633 3030 
Q 2388 3097 2138 3097 
Q 1578 3097 1268 2742 
Q 959 2388 959 1747 
Q 959 1106 1268 751 
Q 1578 397 2138 397 
Q 2388 397 2633 464 
Q 2878 531 3122 666 
L 3122 134 
Q 2881 22 2623 -34 
Q 2366 -91 2075 -91 
Q 1284 -91 818 406 
Q 353 903 353 1747 
Q 353 2603 823 3093 
Q 1294 3584 2113 3584 
Q 2378 3584 2631 3529 
Q 2884 3475 3122 3366 
z
" transform="scale(0.015625)"/>
       <path id="DejaVuSans-6f" d="M 1959 3097 
Q 1497 3097 1228 2736 
Q 959 2375 959 1747 
Q 959 1119 1226 758 
Q 1494 397 1959 397 
Q 2419 397 2687 759 
Q 2956 1122 2956 1747 
Q 2956 2369 2687 2733 
Q 2419 3097 1959 3097 
z
M 1959 3584 
Q 2709 3584 3137 3096 
Q 3566 2609 3566 1747 
Q 3566 888 3137 398 
Q 2709 -91 1959 -91 
Q 1206 -91 779 398 
Q 353 888 353 1747 
Q 353 2609 779 3096 
Q 1206 3584 1959 3584 
z
" transform="scale(0.015625)"/>
       <path id="DejaVuSans-6e" d="M 3513 2113 
L 3513 0 
L 2938 0 
L 2938 2094 
Q 2938 2591 2744 2837 
Q 2550 3084 2163 3084 
Q 1697 3084 1428 2787 
Q 1159 2491 1159 1978 
L 1159 0 
L 581 0 
L 581 3500 
L 1159 3500 
L 1159 2956 
Q 1366 3272 1645 3428 
Q 1925 3584 2291 3584 
Q 2894 3584 3203 3211 
Q 3513 2838 3513 2113 
z
" transform="scale(0.015625)"/>
       <path id="DejaVuSans-2c" d="M 750 794 
L 1409 794 
L 1409 256 
L 897 -744 
L 494 -744 
L 750 256 
L 750 794 
z
" transform="scale(0.015625)"/>
       <path id="DejaVuSans-20" transform="scale(0.015625)"/>
       <path id="Cmsy10-52" d="M 738 -91 
Q 738 -78 744 -56 
Q 966 475 1128 959 
Q 1291 1444 1428 1991 
Q 1678 2959 1766 3994 
Q 1425 3994 1094 3872 
Q 922 3803 833 3695 
Q 744 3588 684 3397 
Q 622 3291 472 3197 
Q 322 3103 206 3103 
L 166 3103 
Q 122 3131 122 3169 
Q 234 3556 581 3828 
Q 928 4100 1387 4236 
Q 1847 4372 2259 4372 
L 2931 4372 
Q 3378 4372 3739 4331 
Q 4100 4291 4392 4112 
Q 4684 3934 4684 3572 
Q 4684 3281 4548 3014 
Q 4413 2747 4189 2533 
Q 3966 2319 3697 2158 
Q 3428 1997 3156 1900 
Q 3253 1784 3383 1501 
Q 3513 1219 3659 911 
Q 3806 603 3951 420 
Q 4097 238 4256 238 
Q 4444 238 4551 308 
Q 4659 378 4775 520 
Q 4891 663 4997 745 
Q 5103 828 5281 844 
L 5319 844 
Q 5363 822 5363 794 
Q 5363 784 5356 768 
Q 5350 753 5344 738 
Q 5188 503 4936 297 
Q 4684 91 4393 -25 
Q 4103 -141 3828 -141 
L 3788 -141 
Q 3541 -141 3372 98 
Q 3203 338 3003 811 
Q 2803 1284 2651 1515 
Q 2500 1747 2278 1747 
Q 2266 1753 2250 1765 
Q 2234 1778 2234 1797 
Q 2234 1900 2420 2006 
Q 2606 2113 2719 2125 
Q 3072 2125 3395 2262 
Q 3719 2400 3917 2667 
Q 4116 2934 4116 3291 
Q 4116 3613 3833 3767 
Q 3550 3922 3203 3958 
Q 2856 3994 2450 3994 
L 2309 3994 
Q 2209 3041 1954 2070 
Q 1700 1100 1300 153 
Q 1238 41 1092 -43 
Q 947 -128 813 -141 
L 781 -141 
Q 769 -134 753 -121 
Q 738 -109 738 -91 
z
" transform="scale(0.015625)"/>
      </defs>
      <use xlink:href="#DejaVuSans-52" transform="translate(0 0.015625)"/>
      <use xlink:href="#DejaVuSans-65" transform="translate(69.482422 0.015625)"/>
      <use xlink:href="#DejaVuSans-70" transform="translate(131.005859 0.015625)"/>
      <use xlink:href="#DejaVuSans-6c" transform="translate(194.482422 0.015625)"/>
      <use xlink:href="#DejaVuSans-69" transform="translate(222.265625 0.015625)"/>
      <use xlink:href="#DejaVuSans-63" transform="translate(250.048828 0.015625)"/>
      <use xlink:href="#DejaVuSans-6f" transform="translate(305.029297 0.015625)"/>
      <use xlink:href="#DejaVuSans-6e" transform="translate(366.210938 0.015625)"/>
      <use xlink:href="#DejaVuSans-2c" transform="translate(429.589844 0.015625)"/>
      <use xlink:href="#DejaVuSans-20" transform="translate(461.376953 0.015625)"/>
      <use xlink:href="#Cmsy10-52" transform="translate(493.164062 0.015625)"/>
     </g>
    </g>
   </g>
   <g id="text_10">
    <!-- Replica Symmetric -->
    <g transform="translate(171.677741 27.87) scale(0.175 -0.175)">
     <defs>
      <path id="DejaVuSans-53" d="M 3425 4513 
L 3425 3897 
Q 3066 4069 2747 4153 
Q 2428 4238 2131 4238 
Q 1616 4238 1336 4038 
Q 1056 3838 1056 3469 
Q 1056 3159 1242 3001 
Q 1428 2844 1947 2747 
L 2328 2669 
Q 3034 2534 3370 2195 
Q 3706 1856 3706 1288 
Q 3706 609 3251 259 
Q 2797 -91 1919 -91 
Q 1588 -91 1214 -16 
Q 841 59 441 206 
L 441 856 
Q 825 641 1194 531 
Q 1563 422 1919 422 
Q 2459 422 2753 634 
Q 3047 847 3047 1241 
Q 3047 1584 2836 1778 
Q 2625 1972 2144 2069 
L 1759 2144 
Q 1053 2284 737 2584 
Q 422 2884 422 3419 
Q 422 4038 858 4394 
Q 1294 4750 2059 4750 
Q 2388 4750 2728 4690 
Q 3069 4631 3425 4513 
z
" transform="scale(0.015625)"/>
      <path id="DejaVuSans-6d" d="M 3328 2828 
Q 3544 3216 3844 3400 
Q 4144 3584 4550 3584 
Q 5097 3584 5394 3201 
Q 5691 2819 5691 2113 
L 5691 0 
L 5113 0 
L 5113 2094 
Q 5113 2597 4934 2840 
Q 4756 3084 4391 3084 
Q 3944 3084 3684 2787 
Q 3425 2491 3425 1978 
L 3425 0 
L 2847 0 
L 2847 2094 
Q 2847 2600 2669 2842 
Q 2491 3084 2119 3084 
Q 1678 3084 1418 2786 
Q 1159 2488 1159 1978 
L 1159 0 
L 581 0 
L 581 3500 
L 1159 3500 
L 1159 2956 
Q 1356 3278 1631 3431 
Q 1906 3584 2284 3584 
Q 2666 3584 2933 3390 
Q 3200 3197 3328 2828 
z
" transform="scale(0.015625)"/>
      <path id="DejaVuSans-72" d="M 2631 2963 
Q 2534 3019 2420 3045 
Q 2306 3072 2169 3072 
Q 1681 3072 1420 2755 
Q 1159 2438 1159 1844 
L 1159 0 
L 581 0 
L 581 3500 
L 1159 3500 
L 1159 2956 
Q 1341 3275 1631 3429 
Q 1922 3584 2338 3584 
Q 2397 3584 2469 3576 
Q 2541 3569 2628 3553 
L 2631 2963 
z
" transform="scale(0.015625)"/>
     </defs>
     <use xlink:href="#DejaVuSans-52"/>
     <use xlink:href="#DejaVuSans-65" x="64.982422"/>
     <use xlink:href="#DejaVuSans-70" x="126.505859"/>
     <use xlink:href="#DejaVuSans-6c" x="189.982422"/>
     <use xlink:href="#DejaVuSans-69" x="217.765625"/>
     <use xlink:href="#DejaVuSans-63" x="245.548828"/>
     <use xlink:href="#DejaVuSans-61" x="300.529297"/>
     <use xlink:href="#DejaVuSans-20" x="361.808594"/>
     <use xlink:href="#DejaVuSans-53" x="393.595703"/>
     <use xlink:href="#DejaVuSans-79" x="457.072266"/>
     <use xlink:href="#DejaVuSans-6d" x="516.251953"/>
     <use xlink:href="#DejaVuSans-6d" x="613.664062"/>
     <use xlink:href="#DejaVuSans-65" x="711.076172"/>
     <use xlink:href="#DejaVuSans-74" x="772.599609"/>
     <use xlink:href="#DejaVuSans-72" x="811.808594"/>
     <use xlink:href="#DejaVuSans-69" x="852.921875"/>
     <use xlink:href="#DejaVuSans-63" x="880.705078"/>
    </g>
   </g>
   <g id="text_11">
    <!-- RS-Breaking -->
    <g transform="translate(171.677741 186.34) scale(0.175 -0.175)">
     <defs>
      <path id="DejaVuSans-2d" d="M 313 2009 
L 1997 2009 
L 1997 1497 
L 313 1497 
L 313 2009 
z
" transform="scale(0.015625)"/>
      <path id="DejaVuSans-42" d="M 1259 2228 
L 1259 519 
L 2272 519 
Q 2781 519 3026 730 
Q 3272 941 3272 1375 
Q 3272 1813 3026 2020 
Q 2781 2228 2272 2228 
L 1259 2228 
z
M 1259 4147 
L 1259 2741 
L 2194 2741 
Q 2656 2741 2882 2914 
Q 3109 3088 3109 3444 
Q 3109 3797 2882 3972 
Q 2656 4147 2194 4147 
L 1259 4147 
z
M 628 4666 
L 2241 4666 
Q 2963 4666 3353 4366 
Q 3744 4066 3744 3513 
Q 3744 3084 3544 2831 
Q 3344 2578 2956 2516 
Q 3422 2416 3680 2098 
Q 3938 1781 3938 1306 
Q 3938 681 3513 340 
Q 3088 0 2303 0 
L 628 0 
L 628 4666 
z
" transform="scale(0.015625)"/>
      <path id="DejaVuSans-6b" d="M 581 4863 
L 1159 4863 
L 1159 1991 
L 2875 3500 
L 3609 3500 
L 1753 1863 
L 3688 0 
L 2938 0 
L 1159 1709 
L 1159 0 
L 581 0 
L 581 4863 
z
" transform="scale(0.015625)"/>
      <path id="DejaVuSans-67" d="M 2906 1791 
Q 2906 2416 2648 2759 
Q 2391 3103 1925 3103 
Q 1463 3103 1205 2759 
Q 947 2416 947 1791 
Q 947 1169 1205 825 
Q 1463 481 1925 481 
Q 2391 481 2648 825 
Q 2906 1169 2906 1791 
z
M 3481 434 
Q 3481 -459 3084 -895 
Q 2688 -1331 1869 -1331 
Q 1566 -1331 1297 -1286 
Q 1028 -1241 775 -1147 
L 775 -588 
Q 1028 -725 1275 -790 
Q 1522 -856 1778 -856 
Q 2344 -856 2625 -561 
Q 2906 -266 2906 331 
L 2906 616 
Q 2728 306 2450 153 
Q 2172 0 1784 0 
Q 1141 0 747 490 
Q 353 981 353 1791 
Q 353 2603 747 3093 
Q 1141 3584 1784 3584 
Q 2172 3584 2450 3431 
Q 2728 3278 2906 2969 
L 2906 3500 
L 3481 3500 
L 3481 434 
z
" transform="scale(0.015625)"/>
     </defs>
     <use xlink:href="#DejaVuSans-52"/>
     <use xlink:href="#DejaVuSans-53" x="69.482422"/>
     <use xlink:href="#DejaVuSans-2d" x="132.958984"/>
     <use xlink:href="#DejaVuSans-42" x="165.417969"/>
     <use xlink:href="#DejaVuSans-72" x="234.021484"/>
     <use xlink:href="#DejaVuSans-65" x="272.884766"/>
     <use xlink:href="#DejaVuSans-61" x="334.408203"/>
     <use xlink:href="#DejaVuSans-6b" x="395.6875"/>
     <use xlink:href="#DejaVuSans-69" x="453.597656"/>
     <use xlink:href="#DejaVuSans-6e" x="481.380859"/>
     <use xlink:href="#DejaVuSans-67" x="544.759766"/>
    </g>
   </g>
  </g>
  <g id="axes_2">
   <g id="patch_5">
    <path d="M 423.100238 213.9 
L 632.390625 213.9 
L 632.390625 7.2 
L 423.100238 7.2 
L 423.100238 213.9 
z
" style="fill: none"/>
   </g>
   <g id="PolyCollection_2">
    <defs>
     <path id="m07683f86f4" d="M 423.100238 -241.8125 
L 423.100238 -66.9125 
L 423.901094 -66.9125 
L 424.70195 -66.9125 
L 425.502806 -66.9125 
L 426.303662 -66.9125 
L 427.104518 -66.9125 
L 427.905374 -66.9125 
L 428.70623 -66.9125 
L 429.507086 -66.9125 
L 430.307943 -66.9125 
L 431.108799 -66.9125 
L 431.909655 -66.9125 
L 432.710511 -66.9125 
L 433.511367 -66.9125 
L 434.312223 -66.9125 
L 435.113079 -66.9125 
L 435.913935 -66.9125 
L 436.714791 -66.9125 
L 437.515647 -66.9125 
L 438.316503 -66.9125 
L 439.117359 -66.9125 
L 439.918215 -66.9125 
L 440.719071 -66.9125 
L 441.519928 -66.9125 
L 442.320784 -66.9125 
L 443.12164 -66.9125 
L 443.922496 -66.9125 
L 444.723352 -66.9125 
L 445.524208 -66.9125 
L 446.325064 -66.9125 
L 447.12592 -66.9125 
L 447.926776 -66.9125 
L 448.727632 -66.9125 
L 449.528488 -66.9125 
L 450.329344 -66.9125 
L 451.1302 -66.9125 
L 451.931057 -66.9125 
L 452.731913 -66.9125 
L 453.532769 -66.9125 
L 454.333625 -66.9125 
L 455.134481 -66.9125 
L 455.935337 -66.9125 
L 456.736193 -66.9125 
L 457.537049 -66.9125 
L 458.337905 -66.9125 
L 459.138761 -66.9125 
L 459.939617 -66.9125 
L 460.740473 -66.9125 
L 461.541329 -66.9125 
L 462.342185 -66.9125 
L 462.342185 -241.8125 
L 462.342185 -241.8125 
L 461.541329 -241.8125 
L 460.740473 -241.8125 
L 459.939617 -241.8125 
L 459.138761 -241.8125 
L 458.337905 -241.8125 
L 457.537049 -241.8125 
L 456.736193 -241.8125 
L 455.935337 -241.8125 
L 455.134481 -241.8125 
L 454.333625 -241.8125 
L 453.532769 -241.8125 
L 452.731913 -241.8125 
L 451.931057 -241.8125 
L 451.1302 -241.8125 
L 450.329344 -241.8125 
L 449.528488 -241.8125 
L 448.727632 -241.8125 
L 447.926776 -241.8125 
L 447.12592 -241.8125 
L 446.325064 -241.8125 
L 445.524208 -241.8125 
L 444.723352 -241.8125 
L 443.922496 -241.8125 
L 443.12164 -241.8125 
L 442.320784 -241.8125 
L 441.519928 -241.8125 
L 440.719071 -241.8125 
L 439.918215 -241.8125 
L 439.117359 -241.8125 
L 438.316503 -241.8125 
L 437.515647 -241.8125 
L 436.714791 -241.8125 
L 435.913935 -241.8125 
L 435.113079 -241.8125 
L 434.312223 -241.8125 
L 433.511367 -241.8125 
L 432.710511 -241.8125 
L 431.909655 -241.8125 
L 431.108799 -241.8125 
L 430.307943 -241.8125 
L 429.507086 -241.8125 
L 428.70623 -241.8125 
L 427.905374 -241.8125 
L 427.104518 -241.8125 
L 426.303662 -241.8125 
L 425.502806 -241.8125 
L 424.70195 -241.8125 
L 423.901094 -241.8125 
L 423.100238 -241.8125 
z
" style="stroke: #3b7a57; stroke-opacity: 0.5"/>
    </defs>
    <g clip-path="url(#p857290391a)">
     <use xlink:href="#m07683f86f4" x="0" y="280.8125" style="fill: #3b7a57; fill-opacity: 0.5; stroke: #3b7a57; stroke-opacity: 0.5"/>
    </g>
   </g>
   <g id="PolyCollection_3">
    <defs>
     <path id="m607b50fa96" d="M 423.100238 -273.6125 
L 423.100238 -241.8125 
L 427.37147 -241.8125 
L 431.642703 -241.8125 
L 435.913935 -241.8125 
L 440.185167 -241.8125 
L 444.4564 -241.8125 
L 448.727632 -241.8125 
L 452.998865 -241.8125 
L 457.270097 -241.8125 
L 461.541329 -241.8125 
L 465.812562 -241.8125 
L 470.083794 -241.8125 
L 474.355027 -241.8125 
L 478.626259 -241.8125 
L 482.897491 -241.8125 
L 487.168724 -241.8125 
L 491.439956 -241.8125 
L 495.711189 -241.8125 
L 499.982421 -241.8125 
L 504.253653 -241.8125 
L 508.524886 -241.8125 
L 512.796118 -241.8125 
L 517.06735 -241.8125 
L 521.338583 -241.8125 
L 525.609815 -241.8125 
L 529.881048 -241.8125 
L 534.15228 -241.8125 
L 538.423512 -241.8125 
L 542.694745 -241.8125 
L 546.965977 -241.8125 
L 551.23721 -241.8125 
L 555.508442 -241.8125 
L 559.779674 -241.8125 
L 564.050907 -241.8125 
L 568.322139 -241.8125 
L 572.593372 -241.8125 
L 576.864604 -241.8125 
L 581.135836 -241.8125 
L 585.407069 -241.8125 
L 589.678301 -241.8125 
L 593.949533 -241.8125 
L 598.220766 -241.8125 
L 602.491998 -241.8125 
L 606.763231 -241.8125 
L 611.034463 -241.8125 
L 615.305695 -241.8125 
L 619.576928 -241.8125 
L 623.84816 -241.8125 
L 628.119393 -241.8125 
L 632.390625 -241.8125 
L 632.390625 -273.6125 
L 632.390625 -273.6125 
L 628.119393 -273.6125 
L 623.84816 -273.6125 
L 619.576928 -273.6125 
L 615.305695 -273.6125 
L 611.034463 -273.6125 
L 606.763231 -273.6125 
L 602.491998 -273.6125 
L 598.220766 -273.6125 
L 593.949533 -273.6125 
L 589.678301 -273.6125 
L 585.407069 -273.6125 
L 581.135836 -273.6125 
L 576.864604 -273.6125 
L 572.593372 -273.6125 
L 568.322139 -273.6125 
L 564.050907 -273.6125 
L 559.779674 -273.6125 
L 555.508442 -273.6125 
L 551.23721 -273.6125 
L 546.965977 -273.6125 
L 542.694745 -273.6125 
L 538.423512 -273.6125 
L 534.15228 -273.6125 
L 529.881048 -273.6125 
L 525.609815 -273.6125 
L 521.338583 -273.6125 
L 517.06735 -273.6125 
L 512.796118 -273.6125 
L 508.524886 -273.6125 
L 504.253653 -273.6125 
L 499.982421 -273.6125 
L 495.711189 -273.6125 
L 491.439956 -273.6125 
L 487.168724 -273.6125 
L 482.897491 -273.6125 
L 478.626259 -273.6125 
L 474.355027 -273.6125 
L 470.083794 -273.6125 
L 465.812562 -273.6125 
L 461.541329 -273.6125 
L 457.270097 -273.6125 
L 452.998865 -273.6125 
L 448.727632 -273.6125 
L 444.4564 -273.6125 
L 440.185167 -273.6125 
L 435.913935 -273.6125 
L 431.642703 -273.6125 
L 427.37147 -273.6125 
L 423.100238 -273.6125 
z
" style="stroke: #808080; stroke-opacity: 0.2"/>
    </defs>
    <g clip-path="url(#p857290391a)">
     <use xlink:href="#m607b50fa96" x="0" y="280.8125" style="fill: #808080; fill-opacity: 0.2; stroke: #808080; stroke-opacity: 0.2"/>
    </g>
   </g>
   <g id="line2d_10">
    <path d="M 462.342185 213.9 
L 462.342185 65.874118 
L 462.342185 61.087741 
L 462.342185 58.28789 
L 462.342185 56.301364 
L 462.342185 54.760495 
L 462.342185 53.501513 
L 462.342185 52.437059 
L 462.342185 51.514987 
L 462.342185 50.701662 
L 462.342185 49.974118 
L 462.342185 49.315974 
L 462.342185 48.715136 
L 462.342185 48.162418 
L 462.342185 47.650682 
L 462.342185 47.174267 
L 462.342185 46.72861 
L 462.342185 46.30998 
L 462.342185 45.915285 
L 462.342185 45.541935 
L 462.342185 45.187741 
L 462.342185 44.850831 
L 462.342185 44.529597 
L 462.342185 44.222645 
L 462.342185 43.928759 
L 462.342185 43.646872 
L 462.342185 43.376041 
L 462.342185 43.115434 
L 462.342185 42.864305 
L 462.342185 42.62199 
L 462.342185 42.38789 
L 462.342185 42.161467 
L 462.342185 41.942233 
L 462.342185 41.729746 
L 462.342185 41.523603 
L 462.342185 41.323436 
L 462.342185 41.128908 
L 462.342185 40.93971 
L 462.342185 40.755558 
L 462.342185 40.57619 
L 462.342185 40.401364 
L 462.342185 40.230854 
L 462.342185 40.064454 
L 462.342185 39.901969 
L 462.342185 39.74322 
L 462.342185 39.588039 
L 462.342185 39.436268 
L 462.342185 39.287762 
L 462.342185 39.142382 
L 462.342185 39 
" clip-path="url(#p857290391a)" style="fill: none; stroke: #808080; stroke-width: 3; stroke-linecap: square"/>
   </g>
   <g id="line2d_11">
    <path d="M 423.100238 39 
L 427.37147 39 
L 431.642703 39 
L 435.913935 39 
L 440.185167 39 
L 444.4564 39 
L 448.727632 39 
L 452.998865 39 
L 457.270097 39 
L 461.541329 39 
L 465.812562 39 
L 470.083794 39 
L 474.355027 39 
L 478.626259 39 
L 482.897491 39 
L 487.168724 39 
L 491.439956 39 
L 495.711189 39 
L 499.982421 39 
L 504.253653 39 
L 508.524886 39 
L 512.796118 39 
L 517.06735 39 
L 521.338583 39 
L 525.609815 39 
L 529.881048 39 
L 534.15228 39 
L 538.423512 39 
L 542.694745 39 
L 546.965977 39 
L 551.23721 39 
L 555.508442 39 
L 559.779674 39 
L 564.050907 39 
L 568.322139 39 
L 572.593372 39 
L 576.864604 39 
L 581.135836 39 
L 585.407069 39 
L 589.678301 39 
L 593.949533 39 
L 598.220766 39 
L 602.491998 39 
L 606.763231 39 
L 611.034463 39 
L 615.305695 39 
L 619.576928 39 
L 623.84816 39 
L 628.119393 39 
L 632.390625 39 
" clip-path="url(#p857290391a)" style="fill: none; stroke: #808080; stroke-width: 3; stroke-linecap: square"/>
   </g>
   <g id="patch_6">
    <path d="M 423.100238 213.9 
L 423.100238 7.2 
" style="fill: none; stroke: #000000; stroke-width: 4; stroke-linejoin: miter; stroke-linecap: square"/>
   </g>
   <g id="patch_7">
    <path d="M 423.100238 213.9 
L 632.390625 213.9 
" style="fill: none; stroke: #000000; stroke-width: 4; stroke-linejoin: miter; stroke-linecap: square"/>
   </g>
   <g id="matplotlib.axis_3">
    <g id="xtick_3">
     <g id="line2d_12">
      <g>
       <use xlink:href="#m6f0dd8ad82" x="462.342185" y="213.9" style="stroke: #000000; stroke-width: 4"/>
      </g>
     </g>
     <g id="text_12">
      <!-- 0.00 -->
      <g transform="translate(440.07656 245.096875) scale(0.2 -0.2)">
       <use xlink:href="#DejaVuSans-30"/>
       <use xlink:href="#DejaVuSans-2e" x="63.623047"/>
       <use xlink:href="#DejaVuSans-30" x="95.410156"/>
       <use xlink:href="#DejaVuSans-30" x="159.033203"/>
      </g>
     </g>
    </g>
    <g id="xtick_4">
     <g id="line2d_13">
      <g>
       <use xlink:href="#m6f0dd8ad82" x="527.745431" y="213.9" style="stroke: #000000; stroke-width: 4"/>
      </g>
     </g>
     <g id="text_13">
      <!-- 0.05 -->
      <g transform="translate(505.479806 245.096875) scale(0.2 -0.2)">
       <use xlink:href="#DejaVuSans-30"/>
       <use xlink:href="#DejaVuSans-2e" x="63.623047"/>
       <use xlink:href="#DejaVuSans-30" x="95.410156"/>
       <use xlink:href="#DejaVuSans-35" x="159.033203"/>
      </g>
     </g>
    </g>
    <g id="xtick_5">
     <g id="line2d_14">
      <g>
       <use xlink:href="#m6f0dd8ad82" x="593.148677" y="213.9" style="stroke: #000000; stroke-width: 4"/>
      </g>
     </g>
     <g id="text_14">
      <!-- 0.10 -->
      <g transform="translate(570.883052 245.096875) scale(0.2 -0.2)">
       <use xlink:href="#DejaVuSans-30"/>
       <use xlink:href="#DejaVuSans-2e" x="63.623047"/>
       <use xlink:href="#DejaVuSans-31" x="95.410156"/>
       <use xlink:href="#DejaVuSans-30" x="159.033203"/>
      </g>
     </g>
    </g>
    <g id="text_15">
     <!-- Mass, $m$ -->
     <g transform="translate(487.345431 269.453125) scale(0.2 -0.2)">
      <defs>
       <path id="DejaVuSans-4d" d="M 628 4666 
L 1569 4666 
L 2759 1491 
L 3956 4666 
L 4897 4666 
L 4897 0 
L 4281 0 
L 4281 4097 
L 3078 897 
L 2444 897 
L 1241 4097 
L 1241 0 
L 628 0 
L 628 4666 
z
" transform="scale(0.015625)"/>
       <path id="Cmmi10-6d" d="M 494 109 
Q 494 147 500 166 
L 978 2075 
Q 1025 2253 1025 2388 
Q 1025 2663 838 2663 
Q 638 2663 541 2423 
Q 444 2184 353 1819 
Q 353 1800 334 1789 
Q 316 1778 300 1778 
L 225 1778 
Q 203 1778 187 1801 
Q 172 1825 172 1844 
Q 241 2122 305 2315 
Q 369 2509 505 2668 
Q 641 2828 844 2828 
Q 1084 2828 1268 2676 
Q 1453 2525 1453 2291 
Q 1644 2541 1900 2684 
Q 2156 2828 2444 2828 
Q 2747 2828 2967 2673 
Q 3188 2519 3188 2234 
Q 3384 2513 3648 2670 
Q 3913 2828 4225 2828 
Q 4556 2828 4757 2648 
Q 4959 2469 4959 2138 
Q 4959 1875 4842 1503 
Q 4725 1131 4550 672 
Q 4459 450 4459 288 
Q 4459 97 4609 97 
Q 4859 97 5025 365 
Q 5191 634 5259 941 
Q 5278 978 5313 978 
L 5388 978 
Q 5413 978 5430 961 
Q 5447 944 5447 922 
Q 5447 916 5441 903 
Q 5353 541 5136 234 
Q 4919 -72 4594 -72 
Q 4369 -72 4209 83 
Q 4050 238 4050 459 
Q 4050 572 4103 709 
Q 4284 1191 4404 1569 
Q 4525 1947 4525 2234 
Q 4525 2413 4453 2538 
Q 4381 2663 4213 2663 
Q 3863 2663 3606 2448 
Q 3350 2234 3163 1881 
Q 3150 1819 3144 1784 
L 2731 141 
Q 2709 53 2632 -9 
Q 2556 -72 2463 -72 
Q 2388 -72 2330 -22 
Q 2272 28 2272 109 
Q 2272 147 2278 166 
L 2688 1797 
Q 2753 2059 2753 2234 
Q 2753 2413 2679 2538 
Q 2606 2663 2431 2663 
Q 2197 2663 2000 2559 
Q 1803 2456 1656 2286 
Q 1509 2116 1388 1881 
L 953 141 
Q 931 53 854 -9 
Q 778 -72 684 -72 
Q 606 -72 550 -22 
Q 494 28 494 109 
z
" transform="scale(0.015625)"/>
      </defs>
      <use xlink:href="#DejaVuSans-4d" transform="translate(0 0.09375)"/>
      <use xlink:href="#DejaVuSans-61" transform="translate(86.279297 0.09375)"/>
      <use xlink:href="#DejaVuSans-73" transform="translate(147.558594 0.09375)"/>
      <use xlink:href="#DejaVuSans-73" transform="translate(199.658203 0.09375)"/>
      <use xlink:href="#DejaVuSans-2c" transform="translate(251.757812 0.09375)"/>
      <use xlink:href="#DejaVuSans-20" transform="translate(283.544922 0.09375)"/>
      <use xlink:href="#Cmmi10-6d" transform="translate(315.332031 0.09375)"/>
     </g>
    </g>
   </g>
   <g id="matplotlib.axis_4">
    <g id="ytick_7">
     <g id="line2d_15">
      <g>
       <use xlink:href="#m6edb81d767" x="423.100238" y="182.1" style="stroke: #000000; stroke-width: 4"/>
      </g>
     </g>
     <g id="text_16">
      <!-- $\mathdefault{10^{-9}}$ -->
      <g transform="translate(360.100238 187.61875) scale(0.2 -0.2)">
       <defs>
        <path id="DejaVuSans-39" d="M 703 97 
L 703 672 
Q 941 559 1184 500 
Q 1428 441 1663 441 
Q 2288 441 2617 861 
Q 2947 1281 2994 2138 
Q 2813 1869 2534 1725 
Q 2256 1581 1919 1581 
Q 1219 1581 811 2004 
Q 403 2428 403 3163 
Q 403 3881 828 4315 
Q 1253 4750 1959 4750 
Q 2769 4750 3195 4129 
Q 3622 3509 3622 2328 
Q 3622 1225 3098 567 
Q 2575 -91 1691 -91 
Q 1453 -91 1209 -44 
Q 966 3 703 97 
z
M 1959 2075 
Q 2384 2075 2632 2365 
Q 2881 2656 2881 3163 
Q 2881 3666 2632 3958 
Q 2384 4250 1959 4250 
Q 1534 4250 1286 3958 
Q 1038 3666 1038 3163 
Q 1038 2656 1286 2365 
Q 1534 2075 1959 2075 
z
" transform="scale(0.015625)"/>
       </defs>
       <use xlink:href="#DejaVuSans-31" transform="translate(0 0.765625)"/>
       <use xlink:href="#DejaVuSans-30" transform="translate(63.623047 0.765625)"/>
       <use xlink:href="#DejaVuSans-2212" transform="translate(128.203125 39.046875) scale(0.7)"/>
       <use xlink:href="#DejaVuSans-39" transform="translate(186.855469 39.046875) scale(0.7)"/>
      </g>
     </g>
    </g>
    <g id="ytick_8">
     <g id="line2d_16">
      <g>
       <use xlink:href="#m6edb81d767" x="423.100238" y="134.4" style="stroke: #000000; stroke-width: 4"/>
      </g>
     </g>
     <g id="text_17">
      <!-- $\mathdefault{10^{-6}}$ -->
      <g transform="translate(360.100238 139.91875) scale(0.2 -0.2)">
       <defs>
        <path id="DejaVuSans-36" d="M 2113 2584 
Q 1688 2584 1439 2293 
Q 1191 2003 1191 1497 
Q 1191 994 1439 701 
Q 1688 409 2113 409 
Q 2538 409 2786 701 
Q 3034 994 3034 1497 
Q 3034 2003 2786 2293 
Q 2538 2584 2113 2584 
z
M 3366 4563 
L 3366 3988 
Q 3128 4100 2886 4159 
Q 2644 4219 2406 4219 
Q 1781 4219 1451 3797 
Q 1122 3375 1075 2522 
Q 1259 2794 1537 2939 
Q 1816 3084 2150 3084 
Q 2853 3084 3261 2657 
Q 3669 2231 3669 1497 
Q 3669 778 3244 343 
Q 2819 -91 2113 -91 
Q 1303 -91 875 529 
Q 447 1150 447 2328 
Q 447 3434 972 4092 
Q 1497 4750 2381 4750 
Q 2619 4750 2861 4703 
Q 3103 4656 3366 4563 
z
" transform="scale(0.015625)"/>
       </defs>
       <use xlink:href="#DejaVuSans-31" transform="translate(0 0.765625)"/>
       <use xlink:href="#DejaVuSans-30" transform="translate(63.623047 0.765625)"/>
       <use xlink:href="#DejaVuSans-2212" transform="translate(128.203125 39.046875) scale(0.7)"/>
       <use xlink:href="#DejaVuSans-36" transform="translate(186.855469 39.046875) scale(0.7)"/>
      </g>
     </g>
    </g>
    <g id="ytick_9">
     <g id="line2d_17">
      <g>
       <use xlink:href="#m6edb81d767" x="423.100238" y="86.7" style="stroke: #000000; stroke-width: 4"/>
      </g>
     </g>
     <g id="text_18">
      <!-- $\mathdefault{10^{-3}}$ -->
      <g transform="translate(360.100238 92.21875) scale(0.2 -0.2)">
       <defs>
        <path id="DejaVuSans-33" d="M 2597 2516 
Q 3050 2419 3304 2112 
Q 3559 1806 3559 1356 
Q 3559 666 3084 287 
Q 2609 -91 1734 -91 
Q 1441 -91 1130 -33 
Q 819 25 488 141 
L 488 750 
Q 750 597 1062 519 
Q 1375 441 1716 441 
Q 2309 441 2620 675 
Q 2931 909 2931 1356 
Q 2931 1769 2642 2001 
Q 2353 2234 1838 2234 
L 1294 2234 
L 1294 2753 
L 1863 2753 
Q 2328 2753 2575 2939 
Q 2822 3125 2822 3475 
Q 2822 3834 2567 4026 
Q 2313 4219 1838 4219 
Q 1578 4219 1281 4162 
Q 984 4106 628 3988 
L 628 4550 
Q 988 4650 1302 4700 
Q 1616 4750 1894 4750 
Q 2613 4750 3031 4423 
Q 3450 4097 3450 3541 
Q 3450 3153 3228 2886 
Q 3006 2619 2597 2516 
z
" transform="scale(0.015625)"/>
       </defs>
       <use xlink:href="#DejaVuSans-31" transform="translate(0 0.765625)"/>
       <use xlink:href="#DejaVuSans-30" transform="translate(63.623047 0.765625)"/>
       <use xlink:href="#DejaVuSans-2212" transform="translate(128.203125 39.046875) scale(0.7)"/>
       <use xlink:href="#DejaVuSans-33" transform="translate(186.855469 39.046875) scale(0.7)"/>
      </g>
     </g>
    </g>
    <g id="ytick_10">
     <g id="line2d_18">
      <g>
       <use xlink:href="#m6edb81d767" x="423.100238" y="39" style="stroke: #000000; stroke-width: 4"/>
      </g>
     </g>
     <g id="text_19">
      <!-- $\mathdefault{10^{0}}$ -->
      <g transform="translate(371.900238 44.51875) scale(0.2 -0.2)">
       <use xlink:href="#DejaVuSans-31" transform="translate(0 0.765625)"/>
       <use xlink:href="#DejaVuSans-30" transform="translate(63.623047 0.765625)"/>
       <use xlink:href="#DejaVuSans-30" transform="translate(128.203125 39.046875) scale(0.7)"/>
      </g>
     </g>
    </g>
    <g id="text_20">
     <!-- Niche/Neu. ratio, $\psi$ -->
     <g transform="translate(350.900238 204.45) rotate(-90) scale(0.2 -0.2)">
      <defs>
       <path id="DejaVuSans-4e" d="M 628 4666 
L 1478 4666 
L 3547 763 
L 3547 4666 
L 4159 4666 
L 4159 0 
L 3309 0 
L 1241 3903 
L 1241 0 
L 628 0 
L 628 4666 
z
" transform="scale(0.015625)"/>
       <path id="DejaVuSans-2f" d="M 1625 4666 
L 2156 4666 
L 531 -594 
L 0 -594 
L 1625 4666 
z
" transform="scale(0.015625)"/>
       <path id="DejaVuSans-75" d="M 544 1381 
L 544 3500 
L 1119 3500 
L 1119 1403 
Q 1119 906 1312 657 
Q 1506 409 1894 409 
Q 2359 409 2629 706 
Q 2900 1003 2900 1516 
L 2900 3500 
L 3475 3500 
L 3475 0 
L 2900 0 
L 2900 538 
Q 2691 219 2414 64 
Q 2138 -91 1772 -91 
Q 1169 -91 856 284 
Q 544 659 544 1381 
z
M 1991 3584 
L 1991 3584 
z
" transform="scale(0.015625)"/>
       <path id="Cmmi10-c3" d="M 1522 -1247 
L 1825 -56 
Q 1547 -56 1286 48 
Q 1025 153 864 356 
Q 703 559 703 850 
Q 703 1016 762 1228 
Q 822 1441 889 1619 
Q 956 1797 1069 2088 
Q 1153 2322 1153 2472 
Q 1153 2663 1013 2663 
Q 759 2663 595 2402 
Q 431 2141 353 1819 
Q 341 1778 300 1778 
L 225 1778 
Q 172 1778 172 1838 
L 172 1856 
Q 275 2238 487 2533 
Q 700 2828 1025 2828 
Q 1253 2828 1411 2678 
Q 1569 2528 1569 2297 
Q 1569 2178 1516 2047 
Q 1403 1756 1337 1584 
Q 1272 1413 1212 1195 
Q 1153 978 1153 806 
Q 1153 494 1348 322 
Q 1544 150 1863 109 
L 2938 4403 
Q 2950 4441 2988 4441 
L 3066 4441 
Q 3116 4441 3116 4378 
L 2047 97 
L 2119 97 
Q 2388 97 2686 256 
Q 2984 416 3229 675 
Q 3475 934 3619 1232 
Q 3763 1531 3763 1791 
Q 3763 1984 3700 2092 
Q 3638 2200 3538 2317 
Q 3438 2434 3438 2503 
Q 3438 2628 3541 2731 
Q 3644 2834 3769 2834 
Q 3922 2834 3989 2693 
Q 4056 2553 4056 2375 
Q 4056 2188 4018 2000 
Q 3981 1813 3916 1556 
Q 3769 972 3303 506 
Q 3144 347 2951 214 
Q 2759 81 2545 4 
Q 2331 -72 2113 -72 
L 2009 -72 
L 1709 -1275 
Q 1697 -1313 1656 -1313 
L 1581 -1313 
Q 1556 -1313 1539 -1292 
Q 1522 -1272 1522 -1247 
z
" transform="scale(0.015625)"/>
      </defs>
      <use xlink:href="#DejaVuSans-4e" transform="translate(0 0.015625)"/>
      <use xlink:href="#DejaVuSans-69" transform="translate(74.804688 0.015625)"/>
      <use xlink:href="#DejaVuSans-63" transform="translate(102.587891 0.015625)"/>
      <use xlink:href="#DejaVuSans-68" transform="translate(157.568359 0.015625)"/>
      <use xlink:href="#DejaVuSans-65" transform="translate(220.947266 0.015625)"/>
      <use xlink:href="#DejaVuSans-2f" transform="translate(282.470703 0.015625)"/>
      <use xlink:href="#DejaVuSans-4e" transform="translate(316.162109 0.015625)"/>
      <use xlink:href="#DejaVuSans-65" transform="translate(390.966797 0.015625)"/>
      <use xlink:href="#DejaVuSans-75" transform="translate(452.490234 0.015625)"/>
      <use xlink:href="#DejaVuSans-2e" transform="translate(515.869141 0.015625)"/>
      <use xlink:href="#DejaVuSans-20" transform="translate(547.65625 0.015625)"/>
      <use xlink:href="#DejaVuSans-72" transform="translate(579.443359 0.015625)"/>
      <use xlink:href="#DejaVuSans-61" transform="translate(620.556641 0.015625)"/>
      <use xlink:href="#DejaVuSans-74" transform="translate(681.835938 0.015625)"/>
      <use xlink:href="#DejaVuSans-69" transform="translate(721.044922 0.015625)"/>
      <use xlink:href="#DejaVuSans-6f" transform="translate(748.828125 0.015625)"/>
      <use xlink:href="#DejaVuSans-2c" transform="translate(810.009766 0.015625)"/>
      <use xlink:href="#DejaVuSans-20" transform="translate(841.796875 0.015625)"/>
      <use xlink:href="#Cmmi10-c3" transform="translate(873.583984 0.015625)"/>
     </g>
    </g>
   </g>
   <g id="PathCollection_5">
    <defs>
     <path id="C2_0_b3aae39887" d="M 0 6.123724 
C 1.624031 6.123724 3.181764 5.47849 4.330127 4.330127 
C 5.47849 3.181764 6.123724 1.624031 6.123724 -0 
C 6.123724 -1.624031 5.47849 -3.181764 4.330127 -4.330127 
C 3.181764 -5.47849 1.624031 -6.123724 0 -6.123724 
C -1.624031 -6.123724 -3.181764 -5.47849 -4.330127 -4.330127 
C -5.47849 -3.181764 -6.123724 -1.624031 -6.123724 0 
C -6.123724 1.624031 -5.47849 3.181764 -4.330127 4.330127 
C -3.181764 5.47849 -1.624031 6.123724 0 6.123724 
z
"/>
    </defs>
    <g clip-path="url(#p857290391a)">
     <use xlink:href="#C2_0_b3aae39887" x="539.828592" y="68.955083" style="fill: #920000; stroke: #000000; stroke-width: 2"/>
    </g>
    <g clip-path="url(#p857290391a)">
     <use xlink:href="#C2_0_b3aae39887" x="529.981651" y="68.094786" style="fill: #920000; fill-opacity: 0.467353; stroke: #000000; stroke-opacity: 0.467353; stroke-width: 2"/>
    </g>
    <g clip-path="url(#p857290391a)">
     <use xlink:href="#C2_0_b3aae39887" x="532.505866" y="61.186086" style="fill: #920000; fill-opacity: 0.351615; stroke: #000000; stroke-opacity: 0.351615; stroke-width: 2"/>
    </g>
    <g clip-path="url(#p857290391a)">
     <use xlink:href="#C2_0_b3aae39887" x="531.115391" y="61.679739" style="fill: #920000; fill-opacity: 0.210448; stroke: #000000; stroke-opacity: 0.210448; stroke-width: 2"/>
    </g>
    <g clip-path="url(#p857290391a)">
     <use xlink:href="#C2_0_b3aae39887" x="550.867656" y="74.173301" style="fill: #920000; fill-opacity: 0.204326; stroke: #000000; stroke-opacity: 0.204326; stroke-width: 2"/>
    </g>
    <g clip-path="url(#p857290391a)">
     <use xlink:href="#C2_0_b3aae39887" x="515.154531" y="67.457042" style="fill: #920000; fill-opacity: 0.20326; stroke: #000000; stroke-opacity: 0.20326; stroke-width: 2"/>
    </g>
    <g clip-path="url(#p857290391a)">
     <use xlink:href="#C2_0_b3aae39887" x="556.734704" y="82.131917" style="fill: #920000; fill-opacity: 0.176437; stroke: #000000; stroke-opacity: 0.176437; stroke-width: 2"/>
    </g>
    <g clip-path="url(#p857290391a)">
     <use xlink:href="#C2_0_b3aae39887" x="530.306055" y="64.447599" style="fill: #920000; fill-opacity: 0.173708; stroke: #000000; stroke-opacity: 0.173708; stroke-width: 2"/>
    </g>
    <g clip-path="url(#p857290391a)">
     <use xlink:href="#C2_0_b3aae39887" x="556.256329" y="81.304609" style="fill: #920000; fill-opacity: 0.15318; stroke: #000000; stroke-opacity: 0.15318; stroke-width: 2"/>
    </g>
    <g clip-path="url(#p857290391a)">
     <use xlink:href="#C2_0_b3aae39887" x="504.406107" y="60.463875" style="fill: #920000; fill-opacity: 0.135434; stroke: #000000; stroke-opacity: 0.135434; stroke-width: 2"/>
    </g>
    <g clip-path="url(#p857290391a)">
     <use xlink:href="#C2_0_b3aae39887" x="492.126521" y="54.141533" style="fill: #920000; fill-opacity: 0.12632; stroke: #000000; stroke-opacity: 0.12632; stroke-width: 2"/>
    </g>
    <g clip-path="url(#p857290391a)">
     <use xlink:href="#C2_0_b3aae39887" x="560.259726" y="82.019871" style="fill: #920000; fill-opacity: 0.119131; stroke: #000000; stroke-opacity: 0.119131; stroke-width: 2"/>
    </g>
    <g clip-path="url(#p857290391a)">
     <use xlink:href="#C2_0_b3aae39887" x="547.80342" y="111.352985" style="fill: #920000; fill-opacity: 0.10139; stroke: #000000; stroke-opacity: 0.10139; stroke-width: 2"/>
    </g>
    <g clip-path="url(#p857290391a)">
     <use xlink:href="#C2_0_b3aae39887" x="488.946103" y="48.387654" style="fill: #920000; fill-opacity: 0.081103; stroke: #000000; stroke-opacity: 0.081103; stroke-width: 2"/>
    </g>
    <g clip-path="url(#p857290391a)">
     <use xlink:href="#C2_0_b3aae39887" x="476.61493" y="45.097301" style="fill: #920000; fill-opacity: 0.078649; stroke: #000000; stroke-opacity: 0.078649; stroke-width: 2"/>
    </g>
    <g clip-path="url(#p857290391a)">
     <use xlink:href="#C2_0_b3aae39887" x="572.688704" y="134.779929" style="fill: #920000; fill-opacity: 0.070393; stroke: #000000; stroke-opacity: 0.070393; stroke-width: 2"/>
    </g>
    <g clip-path="url(#p857290391a)">
     <use xlink:href="#C2_0_b3aae39887" x="476.174663" y="42.542546" style="fill: #920000; fill-opacity: 0.069128; stroke: #000000; stroke-opacity: 0.069128; stroke-width: 2"/>
    </g>
    <g clip-path="url(#p857290391a)">
     <use xlink:href="#C2_0_b3aae39887" x="497.731853" y="53.313392" style="fill: #920000; fill-opacity: 0.065348; stroke: #000000; stroke-opacity: 0.065348; stroke-width: 2"/>
    </g>
    <g clip-path="url(#p857290391a)">
     <use xlink:href="#C2_0_b3aae39887" x="487.859443" y="51.958313" style="fill: #920000; fill-opacity: 0.065043; stroke: #000000; stroke-opacity: 0.065043; stroke-width: 2"/>
    </g>
    <g clip-path="url(#p857290391a)">
     <use xlink:href="#C2_0_b3aae39887" x="469.590596" y="43.811201" style="fill: #920000; fill-opacity: 0.059688; stroke: #000000; stroke-opacity: 0.059688; stroke-width: 2"/>
    </g>
    <g clip-path="url(#p857290391a)">
     <use xlink:href="#C2_0_b3aae39887" x="466.88534" y="40.498554" style="fill: #920000; fill-opacity: 0.05822; stroke: #000000; stroke-opacity: 0.05822; stroke-width: 2"/>
    </g>
    <g clip-path="url(#p857290391a)">
     <use xlink:href="#C2_0_b3aae39887" x="483.583219" y="47.79008" style="fill: #920000; fill-opacity: 0.057655; stroke: #000000; stroke-opacity: 0.057655; stroke-width: 2"/>
    </g>
    <g clip-path="url(#p857290391a)">
     <use xlink:href="#C2_0_b3aae39887" x="477.777999" y="44.283832" style="fill: #920000; fill-opacity: 0.057112; stroke: #000000; stroke-opacity: 0.057112; stroke-width: 2"/>
    </g>
    <g clip-path="url(#p857290391a)">
     <use xlink:href="#C2_0_b3aae39887" x="495.518269" y="49.583337" style="fill: #920000; fill-opacity: 0.055121; stroke: #000000; stroke-opacity: 0.055121; stroke-width: 2"/>
    </g>
    <g clip-path="url(#p857290391a)">
     <use xlink:href="#C2_0_b3aae39887" x="492.597188" y="54.370285" style="fill: #920000; fill-opacity: 0.055077; stroke: #000000; stroke-opacity: 0.055077; stroke-width: 2"/>
    </g>
    <g clip-path="url(#p857290391a)">
     <use xlink:href="#C2_0_b3aae39887" x="504.824685" y="53.049193" style="fill: #920000; fill-opacity: 0.05495; stroke: #000000; stroke-opacity: 0.05495; stroke-width: 2"/>
    </g>
    <g clip-path="url(#p857290391a)">
     <use xlink:href="#C2_0_b3aae39887" x="491.318591" y="50.759789" style="fill: #920000; fill-opacity: 0.054469; stroke: #000000; stroke-opacity: 0.054469; stroke-width: 2"/>
    </g>
    <g clip-path="url(#p857290391a)">
     <use xlink:href="#C2_0_b3aae39887" x="465.633593" y="40.258428" style="fill: #920000; fill-opacity: 0.054318; stroke: #000000; stroke-opacity: 0.054318; stroke-width: 2"/>
    </g>
    <g clip-path="url(#p857290391a)">
     <use xlink:href="#C2_0_b3aae39887" x="465.280546" y="40.358661" style="fill: #920000; fill-opacity: 0.054036; stroke: #000000; stroke-opacity: 0.054036; stroke-width: 2"/>
    </g>
    <g clip-path="url(#p857290391a)">
     <use xlink:href="#C2_0_b3aae39887" x="481.082706" y="50.280479" style="fill: #920000; fill-opacity: 0.051608; stroke: #000000; stroke-opacity: 0.051608; stroke-width: 2"/>
    </g>
   </g>
   <g id="PathCollection_6">
    <g clip-path="url(#p857290391a)">
     <use xlink:href="#m16dddd8300" x="539.828592" y="68.955083" style="fill: #920000; stroke: #000000; stroke-width: 2"/>
    </g>
   </g>
   <g id="PathCollection_7">
    <defs>
     <path id="C3_0_8da33f18d3" d="M 0 6.123724 
C 1.624031 6.123724 3.181764 5.47849 4.330127 4.330127 
C 5.47849 3.181764 6.123724 1.624031 6.123724 -0 
C 6.123724 -1.624031 5.47849 -3.181764 4.330127 -4.330127 
C 3.181764 -5.47849 1.624031 -6.123724 0 -6.123724 
C -1.624031 -6.123724 -3.181764 -5.47849 -4.330127 -4.330127 
C -5.47849 -3.181764 -6.123724 -1.624031 -6.123724 0 
C -6.123724 1.624031 -5.47849 3.181764 -4.330127 4.330127 
C -3.181764 5.47849 -1.624031 6.123724 0 6.123724 
z
"/>
    </defs>
    <g clip-path="url(#p857290391a)">
     <use xlink:href="#C3_0_8da33f18d3" x="581.840864" y="167.768929" style="fill: #006ddb; stroke: #000000; stroke-width: 2"/>
    </g>
    <g clip-path="url(#p857290391a)">
     <use xlink:href="#C3_0_8da33f18d3" x="586.120366" y="172.672742" style="fill: #006ddb; fill-opacity: 0.957981; stroke: #000000; stroke-opacity: 0.957981; stroke-width: 2"/>
    </g>
    <g clip-path="url(#p857290391a)">
     <use xlink:href="#C3_0_8da33f18d3" x="586.965559" y="165.875136" style="fill: #006ddb; fill-opacity: 0.89969; stroke: #000000; stroke-opacity: 0.89969; stroke-width: 2"/>
    </g>
    <g clip-path="url(#p857290391a)">
     <use xlink:href="#C3_0_8da33f18d3" x="584.771149" y="168.537334" style="fill: #006ddb; fill-opacity: 0.808597; stroke: #000000; stroke-opacity: 0.808597; stroke-width: 2"/>
    </g>
    <g clip-path="url(#p857290391a)">
     <use xlink:href="#C3_0_8da33f18d3" x="583.634575" y="166.337244" style="fill: #006ddb; fill-opacity: 0.747002; stroke: #000000; stroke-opacity: 0.747002; stroke-width: 2"/>
    </g>
    <g clip-path="url(#p857290391a)">
     <use xlink:href="#C3_0_8da33f18d3" x="583.594449" y="165.870493" style="fill: #006ddb; fill-opacity: 0.72394; stroke: #000000; stroke-opacity: 0.72394; stroke-width: 2"/>
    </g>
    <g clip-path="url(#p857290391a)">
     <use xlink:href="#C3_0_8da33f18d3" x="597.371857" y="171.227883" style="fill: #006ddb; fill-opacity: 0.625208; stroke: #000000; stroke-opacity: 0.625208; stroke-width: 2"/>
    </g>
    <g clip-path="url(#p857290391a)">
     <use xlink:href="#C3_0_8da33f18d3" x="575.777735" y="167.159514" style="fill: #006ddb; fill-opacity: 0.616881; stroke: #000000; stroke-opacity: 0.616881; stroke-width: 2"/>
    </g>
    <g clip-path="url(#p857290391a)">
     <use xlink:href="#C3_0_8da33f18d3" x="598.289219" y="172.745725" style="fill: #006ddb; fill-opacity: 0.593601; stroke: #000000; stroke-opacity: 0.593601; stroke-width: 2"/>
    </g>
    <g clip-path="url(#p857290391a)">
     <use xlink:href="#C3_0_8da33f18d3" x="587.129833" y="159.890385" style="fill: #006ddb; fill-opacity: 0.508205; stroke: #000000; stroke-opacity: 0.508205; stroke-width: 2"/>
    </g>
    <g clip-path="url(#p857290391a)">
     <use xlink:href="#C3_0_8da33f18d3" x="589.683159" y="170.579312" style="fill: #006ddb; fill-opacity: 0.42392; stroke: #000000; stroke-opacity: 0.42392; stroke-width: 2"/>
    </g>
    <g clip-path="url(#p857290391a)">
     <use xlink:href="#C3_0_8da33f18d3" x="596.254069" y="169.793932" style="fill: #006ddb; fill-opacity: 0.422973; stroke: #000000; stroke-opacity: 0.422973; stroke-width: 2"/>
    </g>
    <g clip-path="url(#p857290391a)">
     <use xlink:href="#C3_0_8da33f18d3" x="578.870612" y="160.809543" style="fill: #006ddb; fill-opacity: 0.390522; stroke: #000000; stroke-opacity: 0.390522; stroke-width: 2"/>
    </g>
    <g clip-path="url(#p857290391a)">
     <use xlink:href="#C3_0_8da33f18d3" x="589.802918" y="162.654211" style="fill: #006ddb; fill-opacity: 0.383169; stroke: #000000; stroke-opacity: 0.383169; stroke-width: 2"/>
    </g>
    <g clip-path="url(#p857290391a)">
     <use xlink:href="#C3_0_8da33f18d3" x="591.094099" y="157.199794" style="fill: #006ddb; fill-opacity: 0.375819; stroke: #000000; stroke-opacity: 0.375819; stroke-width: 2"/>
    </g>
    <g clip-path="url(#p857290391a)">
     <use xlink:href="#C3_0_8da33f18d3" x="578.447977" y="161.66917" style="fill: #006ddb; fill-opacity: 0.369537; stroke: #000000; stroke-opacity: 0.369537; stroke-width: 2"/>
    </g>
    <g clip-path="url(#p857290391a)">
     <use xlink:href="#C3_0_8da33f18d3" x="582.196994" y="163.724154" style="fill: #006ddb; fill-opacity: 0.367137; stroke: #000000; stroke-opacity: 0.367137; stroke-width: 2"/>
    </g>
    <g clip-path="url(#p857290391a)">
     <use xlink:href="#C3_0_8da33f18d3" x="597.405035" y="168.370452" style="fill: #006ddb; fill-opacity: 0.366855; stroke: #000000; stroke-opacity: 0.366855; stroke-width: 2"/>
    </g>
    <g clip-path="url(#p857290391a)">
     <use xlink:href="#C3_0_8da33f18d3" x="604.153177" y="175.481622" style="fill: #006ddb; fill-opacity: 0.346021; stroke: #000000; stroke-opacity: 0.346021; stroke-width: 2"/>
    </g>
    <g clip-path="url(#p857290391a)">
     <use xlink:href="#C3_0_8da33f18d3" x="595.024896" y="174.435905" style="fill: #006ddb; fill-opacity: 0.345934; stroke: #000000; stroke-opacity: 0.345934; stroke-width: 2"/>
    </g>
    <g clip-path="url(#p857290391a)">
     <use xlink:href="#C3_0_8da33f18d3" x="579.773577" y="166.706546" style="fill: #006ddb; fill-opacity: 0.330699; stroke: #000000; stroke-opacity: 0.330699; stroke-width: 2"/>
    </g>
    <g clip-path="url(#p857290391a)">
     <use xlink:href="#C3_0_8da33f18d3" x="600.226127" y="177.75855" style="fill: #006ddb; fill-opacity: 0.328706; stroke: #000000; stroke-opacity: 0.328706; stroke-width: 2"/>
    </g>
    <g clip-path="url(#p857290391a)">
     <use xlink:href="#C3_0_8da33f18d3" x="598.674594" y="173.386355" style="fill: #006ddb; fill-opacity: 0.313302; stroke: #000000; stroke-opacity: 0.313302; stroke-width: 2"/>
    </g>
    <g clip-path="url(#p857290391a)">
     <use xlink:href="#C3_0_8da33f18d3" x="586.477438" y="169.720921" style="fill: #006ddb; fill-opacity: 0.309001; stroke: #000000; stroke-opacity: 0.309001; stroke-width: 2"/>
    </g>
    <g clip-path="url(#p857290391a)">
     <use xlink:href="#C3_0_8da33f18d3" x="579.217091" y="161.476625" style="fill: #006ddb; fill-opacity: 0.306501; stroke: #000000; stroke-opacity: 0.306501; stroke-width: 2"/>
    </g>
    <g clip-path="url(#p857290391a)">
     <use xlink:href="#C3_0_8da33f18d3" x="585.239228" y="182.01021" style="fill: #006ddb; fill-opacity: 0.300095; stroke: #000000; stroke-opacity: 0.300095; stroke-width: 2"/>
    </g>
    <g clip-path="url(#p857290391a)">
     <use xlink:href="#C3_0_8da33f18d3" x="575.153327" y="158.436753" style="fill: #006ddb; fill-opacity: 0.293226; stroke: #000000; stroke-opacity: 0.293226; stroke-width: 2"/>
    </g>
    <g clip-path="url(#p857290391a)">
     <use xlink:href="#C3_0_8da33f18d3" x="587.928008" y="177.73067" style="fill: #006ddb; fill-opacity: 0.287613; stroke: #000000; stroke-opacity: 0.287613; stroke-width: 2"/>
    </g>
    <g clip-path="url(#p857290391a)">
     <use xlink:href="#C3_0_8da33f18d3" x="594.200731" y="181.261228" style="fill: #006ddb; fill-opacity: 0.287085; stroke: #000000; stroke-opacity: 0.287085; stroke-width: 2"/>
    </g>
    <g clip-path="url(#p857290391a)">
     <use xlink:href="#C3_0_8da33f18d3" x="596.562385" y="181.727876" style="fill: #006ddb; fill-opacity: 0.267079; stroke: #000000; stroke-opacity: 0.267079; stroke-width: 2"/>
    </g>
   </g>
   <g id="PathCollection_8">
    <g clip-path="url(#p857290391a)">
     <use xlink:href="#m696a32602b" x="581.840864" y="167.768929" style="fill: #006ddb; stroke: #000000; stroke-width: 2"/>
    </g>
   </g>
   <g id="text_21">
    <!-- a -->
    <g transform="translate(462.342185 23.1) scale(0.14 -0.14)">
     <use xlink:href="#DejaVuSans-61"/>
    </g>
   </g>
   <g id="text_22">
    <!-- b -->
    <g transform="translate(593.148677 21.841018) scale(0.14 -0.14)">
     <defs>
      <path id="DejaVuSans-62" d="M 3116 1747 
Q 3116 2381 2855 2742 
Q 2594 3103 2138 3103 
Q 1681 3103 1420 2742 
Q 1159 2381 1159 1747 
Q 1159 1113 1420 752 
Q 1681 391 2138 391 
Q 2594 391 2855 752 
Q 3116 1113 3116 1747 
z
M 1159 2969 
Q 1341 3281 1617 3432 
Q 1894 3584 2278 3584 
Q 2916 3584 3314 3078 
Q 3713 2572 3713 1747 
Q 3713 922 3314 415 
Q 2916 -91 2278 -91 
Q 1894 -91 1617 61 
Q 1341 213 1159 525 
L 1159 0 
L 581 0 
L 581 4863 
L 1159 4863 
L 1159 2969 
z
" transform="scale(0.015625)"/>
     </defs>
     <use xlink:href="#DejaVuSans-62"/>
    </g>
   </g>
   <g id="text_23">
    <!-- c -->
    <g transform="translate(462.342185 21.288301) scale(0.14 -0.14)">
     <use xlink:href="#DejaVuSans-63"/>
    </g>
   </g>
   <g id="text_24">
    <!-- Unbounded Growth -->
    <g style="fill: #ffffff" transform="translate(456.018477 185.739453) rotate(-90) scale(0.175 -0.175)">
     <defs>
      <path id="DejaVuSans-55" d="M 556 4666 
L 1191 4666 
L 1191 1831 
Q 1191 1081 1462 751 
Q 1734 422 2344 422 
Q 2950 422 3222 751 
Q 3494 1081 3494 1831 
L 3494 4666 
L 4128 4666 
L 4128 1753 
Q 4128 841 3676 375 
Q 3225 -91 2344 -91 
Q 1459 -91 1007 375 
Q 556 841 556 1753 
L 556 4666 
z
" transform="scale(0.015625)"/>
      <path id="DejaVuSans-47" d="M 3809 666 
L 3809 1919 
L 2778 1919 
L 2778 2438 
L 4434 2438 
L 4434 434 
Q 4069 175 3628 42 
Q 3188 -91 2688 -91 
Q 1594 -91 976 548 
Q 359 1188 359 2328 
Q 359 3472 976 4111 
Q 1594 4750 2688 4750 
Q 3144 4750 3555 4637 
Q 3966 4525 4313 4306 
L 4313 3634 
Q 3963 3931 3569 4081 
Q 3175 4231 2741 4231 
Q 1884 4231 1454 3753 
Q 1025 3275 1025 2328 
Q 1025 1384 1454 906 
Q 1884 428 2741 428 
Q 3075 428 3337 486 
Q 3600 544 3809 666 
z
" transform="scale(0.015625)"/>
      <path id="DejaVuSans-77" d="M 269 3500 
L 844 3500 
L 1563 769 
L 2278 3500 
L 2956 3500 
L 3675 769 
L 4391 3500 
L 4966 3500 
L 4050 0 
L 3372 0 
L 2619 2869 
L 1863 0 
L 1184 0 
L 269 3500 
z
" transform="scale(0.015625)"/>
     </defs>
     <use xlink:href="#DejaVuSans-55"/>
     <use xlink:href="#DejaVuSans-6e" x="73.193359"/>
     <use xlink:href="#DejaVuSans-62" x="136.572266"/>
     <use xlink:href="#DejaVuSans-6f" x="200.048828"/>
     <use xlink:href="#DejaVuSans-75" x="261.230469"/>
     <use xlink:href="#DejaVuSans-6e" x="324.609375"/>
     <use xlink:href="#DejaVuSans-64" x="387.988281"/>
     <use xlink:href="#DejaVuSans-65" x="451.464844"/>
     <use xlink:href="#DejaVuSans-64" x="512.988281"/>
     <use xlink:href="#DejaVuSans-20" x="576.464844"/>
     <use xlink:href="#DejaVuSans-47" x="608.251953"/>
     <use xlink:href="#DejaVuSans-72" x="685.742188"/>
     <use xlink:href="#DejaVuSans-6f" x="724.605469"/>
     <use xlink:href="#DejaVuSans-77" x="785.787109"/>
     <use xlink:href="#DejaVuSans-74" x="867.574219"/>
     <use xlink:href="#DejaVuSans-68" x="906.783203"/>
    </g>
   </g>
   <g id="text_25">
    <!-- Unphysical -->
    <g transform="translate(501.584133 23.1) scale(0.175 -0.175)">
     <use xlink:href="#DejaVuSans-55"/>
     <use xlink:href="#DejaVuSans-6e" x="73.193359"/>
     <use xlink:href="#DejaVuSans-70" x="136.572266"/>
     <use xlink:href="#DejaVuSans-68" x="200.048828"/>
     <use xlink:href="#DejaVuSans-79" x="263.427734"/>
     <use xlink:href="#DejaVuSans-73" x="322.607422"/>
     <use xlink:href="#DejaVuSans-69" x="374.707031"/>
     <use xlink:href="#DejaVuSans-63" x="402.490234"/>
     <use xlink:href="#DejaVuSans-61" x="457.470703"/>
     <use xlink:href="#DejaVuSans-6c" x="518.75"/>
    </g>
   </g>
  </g>
 </g>
 <defs>
  <clipPath id="ped2be16f90">
   <rect x="108.890625" y="7.2" width="209.290387" height="206.7"/>
  </clipPath>
  <clipPath id="p857290391a">
   <rect x="423.100238" y="7.2" width="209.290387" height="206.7"/>
  </clipPath>
 </defs>
</svg>
