<?xml version="1.0" encoding="utf-8" standalone="no"?>
<!DOCTYPE svg PUBLIC "-//W3C//DTD SVG 1.1//EN"
  "http://www.w3.org/Graphics/SVG/1.1/DTD/svg11.dtd">
<svg xmlns:xlink="http://www.w3.org/1999/xlink" width="549pt" height="454.484375pt" viewBox="0 0 549 454.484375" xmlns="http://www.w3.org/2000/svg" version="1.1">
 <metadata>
  <rdf:RDF xmlns:dc="http://purl.org/dc/elements/1.1/" xmlns:cc="http://creativecommons.org/ns#" xmlns:rdf="http://www.w3.org/1999/02/22-rdf-syntax-ns#">
   <cc:Work>
    <dc:type rdf:resource="http://purl.org/dc/dcmitype/StillImage"/>
    <dc:date>2024-07-24T14:00:56.367754</dc:date>
    <dc:format>image/svg+xml</dc:format>
    <dc:creator>
     <cc:Agent>
      <dc:title>Matplotlib v3.8.3, https://matplotlib.org/</dc:title>
     </cc:Agent>
    </dc:creator>
   </cc:Work>
  </rdf:RDF>
 </metadata>
 <defs>
  <style type="text/css">*{stroke-linejoin: round; stroke-linecap: butt}</style>
 </defs>
 <g id="figure_1">
  <g id="patch_1">
   <path d="M -0 454.484375 
L 549 454.484375 
L 549 0 
L -0 0 
L -0 454.484375 
z
" style="fill: none"/>
  </g>
  <g id="axes_1">
   <g id="patch_2">
    <path d="M 151.2 352.8 
L 541.8 352.8 
L 541.8 7.2 
L 151.2 7.2 
L 151.2 352.8 
z
" style="fill: none"/>
   </g>
   <g id="line2d_1">
    <path d="M 124.464229 6.248668 
L 302.480427 133.314443 
L 329.024794 152.558878 
L 344.600204 164.724501 
L 355.664505 174.441681 
L 364.252261 183.169226 
L 371.271856 191.558464 
L 377.20852 199.957309 
L 382.352157 208.573627 
L 386.889882 217.541582 
L 390.949521 226.952827 
L 394.622281 236.872759 
L 397.975527 247.349679 
L 401.060429 258.420277 
L 403.916772 270.11308 
L 406.5761 282.450705 
L 409.063845 295.451387 
L 411.400815 309.130045 
L 413.604245 323.499038 
L 415.688575 338.568719 
L 417.666023 354.347849 
L 419.547018 370.843905 
L 421.340533 388.063321 
L 423.054345 406.011673 
L 424.695238 424.693825 
L 427.12197 455.484375 
L 427.12197 455.484375 
" clip-path="url(#pf6086a7ee6)" style="fill: none; stroke: #006ddb; stroke-width: 7; stroke-linecap: square"/>
   </g>
   <g id="line2d_2">
    <path d="M 124.464229 6.127297 
L 302.480427 133.198272 
L 329.024794 152.440714 
L 344.600204 164.594674 
L 355.664505 174.290405 
L 364.252261 182.98668 
L 371.271856 191.33481 
L 377.20852 199.682701 
L 382.352157 208.238215 
L 386.889882 217.135511 
L 390.949521 226.466241 
L 394.622281 236.2958 
L 397.975527 246.672487 
L 401.060429 257.632992 
L 403.916772 269.205841 
L 406.5761 281.413649 
L 409.063845 294.274654 
L 411.400815 307.803772 
L 413.604245 322.013362 
L 415.688575 336.913778 
L 417.666023 352.513779 
L 419.547018 368.820843 
L 421.340533 385.841403 
L 423.054345 403.581036 
L 424.695238 422.044606 
L 427.350586 455.484375 
L 427.350586 455.484375 
" clip-path="url(#pf6086a7ee6)" style="fill: none; stroke: #006ddb; stroke-opacity: 0.957981; stroke-width: 7; stroke-linecap: square"/>
   </g>
   <g id="line2d_3">
    <path d="M 124.464229 6.922949 
L 329.024794 152.725498 
L 344.600204 164.664031 
L 355.664505 174.177004 
L 364.252261 182.723421 
L 371.271856 190.954693 
L 377.20852 199.218783 
L 382.352157 207.723583 
L 386.889882 216.603276 
L 390.949521 225.949525 
L 394.622281 235.827737 
L 397.975527 246.28622 
L 401.060429 257.361668 
L 403.916772 269.082611 
L 406.5761 281.471669 
L 409.063845 294.547082 
L 411.400815 308.323769 
L 413.604245 322.81409 
L 415.688575 338.0284 
L 417.666023 353.975462 
L 419.547018 370.662754 
L 421.340533 388.096709 
L 423.054345 406.282906 
L 424.695238 425.226209 
L 427.048804 455.484375 
L 427.048804 455.484375 
" clip-path="url(#pf6086a7ee6)" style="fill: none; stroke: #006ddb; stroke-opacity: 0.89969; stroke-width: 7; stroke-linecap: square"/>
   </g>
   <g id="line2d_4">
    <path d="M 124.464229 6.449467 
L 302.480427 133.426038 
L 329.024794 152.570355 
L 344.600204 164.628917 
L 355.664505 174.232274 
L 364.252261 182.839293 
L 371.271856 191.101326 
L 377.20852 199.366302 
L 382.352157 207.842094 
L 386.889882 216.662873 
L 390.949521 225.920295 
L 394.622281 235.679758 
L 397.975527 245.989566 
L 401.060429 256.886411 
L 403.916772 268.39882 
L 406.5761 280.549412 
L 409.063845 293.356422 
L 411.400815 306.83477 
L 413.604245 320.996815 
L 415.688575 335.852911 
L 417.666023 351.411819 
L 419.547018 367.681016 
L 421.340533 384.666937 
L 423.054345 402.375158 
L 424.695238 420.810543 
L 427.44743 455.484375 
L 427.44743 455.484375 
" clip-path="url(#pf6086a7ee6)" style="fill: none; stroke: #006ddb; stroke-opacity: 0.808597; stroke-width: 7; stroke-linecap: square"/>
   </g>
   <g id="line2d_5">
    <path d="M 124.464229 6.579093 
L 302.480427 133.522218 
L 329.024794 152.637116 
L 344.600204 164.672873 
L 355.664505 174.260157 
L 364.252261 182.857875 
L 371.271856 191.117393 
L 377.20852 199.386651 
L 382.352157 207.873527 
L 386.889882 216.712195 
L 390.949521 225.994312 
L 394.622281 235.78528 
L 397.975527 246.133404 
L 401.060429 257.075375 
L 403.916772 268.639723 
L 406.5761 280.849065 
L 409.063845 293.72164 
L 411.400815 307.272365 
L 413.604245 321.513601 
L 415.688575 336.455703 
L 417.666023 352.10743 
L 419.547018 368.47626 
L 421.340533 385.56863 
L 423.054345 403.390114 
L 424.695238 421.945577 
L 427.344322 455.484375 
L 427.344322 455.484375 
" clip-path="url(#pf6086a7ee6)" style="fill: none; stroke: #006ddb; stroke-opacity: 0.747002; stroke-width: 7; stroke-linecap: square"/>
   </g>
   <g id="line2d_6">
    <path d="M 124.464229 6.62601 
L 302.480427 133.554397 
L 329.024794 152.65582 
L 344.600204 164.680295 
L 355.664505 174.258533 
L 364.252261 182.849452 
L 371.271856 191.104428 
L 377.20852 199.371401 
L 382.352157 207.858252 
L 386.889882 216.699156 
L 390.949521 225.985772 
L 394.622281 235.783501 
L 397.975527 246.14065 
L 401.060429 257.093909 
L 403.916772 268.671809 
L 406.5761 280.896968 
L 409.063845 293.787622 
L 411.400815 307.358692 
L 413.604245 321.622538 
L 415.688575 336.589512 
L 417.666023 352.268378 
L 419.547018 368.666611 
L 421.340533 385.790648 
L 423.054345 403.646065 
L 424.695238 422.237725 
L 427.317239 455.484375 
L 427.317239 455.484375 
" clip-path="url(#pf6086a7ee6)" style="fill: none; stroke: #006ddb; stroke-opacity: 0.72394; stroke-width: 7; stroke-linecap: square"/>
   </g>
   <g id="line2d_7">
    <path d="M 124.464229 7.288405 
L 329.024794 152.762567 
L 344.600204 164.589208 
L 355.664505 174.027854 
L 364.252261 182.537612 
L 371.271856 190.769939 
L 377.20852 199.072822 
L 382.352157 207.654169 
L 386.889882 216.64817 
L 390.949521 226.146498 
L 394.622281 236.214561 
L 397.975527 246.900672 
L 401.060429 258.241529 
L 403.916772 270.265662 
L 406.5761 282.995694 
L 409.063845 296.449865 
L 411.400815 310.643095 
L 413.604245 325.587746 
L 415.688575 341.294174 
L 417.666023 357.771141 
L 419.547018 375.026126 
L 421.340533 393.065564 
L 423.054345 411.895032 
L 424.695238 431.519396 
L 426.521463 455.484375 
L 426.521463 455.484375 
" clip-path="url(#pf6086a7ee6)" style="fill: none; stroke: #006ddb; stroke-opacity: 0.625208; stroke-width: 7; stroke-linecap: square"/>
   </g>
   <g id="line2d_8">
    <path d="M 124.464229 5.758901 
L 302.480427 133.031933 
L 329.024794 152.46395 
L 344.600204 164.787567 
L 355.664505 174.632697 
L 364.252261 183.458006 
L 371.271856 191.914755 
L 377.20852 200.350826 
L 382.352157 208.974064 
L 386.889882 217.91862 
L 390.949521 227.276137 
L 394.622281 237.112006 
L 397.975527 247.474524 
L 401.060429 258.400377 
L 403.916772 269.918088 
L 406.5761 282.050273 
L 409.063845 294.815166 
L 411.400815 308.227683 
L 413.604245 322.300182 
L 415.688575 337.043015 
L 417.666023 352.464943 
L 419.547018 368.573441 
L 421.340533 385.374944 
L 423.054345 402.875027 
L 424.695238 421.078552 
L 427.463243 455.484375 
L 427.463243 455.484375 
" clip-path="url(#pf6086a7ee6)" style="fill: none; stroke: #006ddb; stroke-opacity: 0.616881; stroke-width: 7; stroke-linecap: square"/>
   </g>
   <g id="line2d_9">
    <path d="M 124.464229 7.164685 
L 329.024794 152.684953 
L 344.600204 164.530508 
L 355.664505 173.984396 
L 364.252261 182.505688 
L 371.271856 190.745828 
L 377.20852 199.052793 
L 382.352157 207.634486 
L 386.889882 216.625095 
L 390.949521 226.116289 
L 394.622281 236.173477 
L 397.975527 246.844968 
L 401.060429 258.16746 
L 403.916772 270.169484 
L 406.5761 282.873661 
L 409.063845 296.29823 
L 411.400815 310.458112 
L 413.604245 325.365668 
L 415.688575 341.031254 
L 417.666023 357.463631 
L 419.547018 374.670279 
L 421.340533 392.657632 
L 423.054345 411.431268 
L 424.695238 430.996051 
L 426.564191 455.484375 
L 426.564191 455.484375 
" clip-path="url(#pf6086a7ee6)" style="fill: none; stroke: #006ddb; stroke-opacity: 0.593601; stroke-width: 7; stroke-linecap: square"/>
   </g>
   <g id="line2d_10">
    <path d="M 124.464229 7.61994 
L 329.024794 153.011881 
L 344.600204 164.807365 
L 355.664505 174.223917 
L 364.252261 182.720736 
L 371.271856 190.949322 
L 377.20852 199.257683 
L 382.352157 207.853739 
L 386.889882 216.871692 
L 390.949521 226.403217 
L 394.622281 236.513729 
L 397.975527 247.251543 
L 401.060429 258.653359 
L 403.916772 270.747709 
L 406.5761 283.557218 
L 409.063845 297.100127 
L 411.400815 311.391357 
L 413.604245 326.44327 
L 415.688575 342.266223 
L 417.666023 358.868978 
L 419.547018 376.259016 
L 421.340533 394.442772 
L 423.054345 413.425823 
L 424.695238 433.213035 
L 426.387532 455.484375 
L 426.387532 455.484375 
" clip-path="url(#pf6086a7ee6)" style="fill: none; stroke: #006ddb; stroke-opacity: 0.508205; stroke-width: 7; stroke-linecap: square"/>
   </g>
   <g id="line2d_11">
    <path d="M 124.464229 6.690138 
L 329.024794 152.60281 
L 344.600204 164.573777 
L 355.664505 174.102351 
L 364.252261 182.64747 
L 371.271856 190.860516 
L 377.20852 199.089434 
L 382.352157 207.542108 
L 386.889882 216.352714 
L 390.949521 225.612912 
L 394.622281 235.388105 
L 397.975527 245.726598 
L 401.060429 256.665085 
L 403.916772 268.232095 
L 406.5761 280.450246 
L 409.063845 293.337777 
L 411.400815 306.909606 
L 413.604245 321.178093 
L 415.688575 336.153594 
L 417.666023 351.844869 
L 419.547018 368.259396 
L 421.340533 385.40361 
L 423.054345 403.283088 
L 424.695238 421.902693 
L 427.338175 455.484375 
L 427.338175 455.484375 
" clip-path="url(#pf6086a7ee6)" style="fill: none; stroke: #006ddb; stroke-opacity: 0.42392; stroke-width: 7; stroke-linecap: square"/>
   </g>
   <g id="line2d_12">
    <path d="M 124.464229 7.323065 
L 329.024794 152.760305 
L 344.600204 164.548532 
L 355.664505 173.935703 
L 364.252261 182.380936 
L 371.271856 190.53569 
L 377.20852 198.747956 
L 382.352157 207.225642 
L 386.889882 216.10294 
L 390.949521 225.471522 
L 394.622281 235.396799 
L 397.975527 245.927082 
L 401.060429 257.099069 
L 403.916772 268.941292 
L 406.5761 281.476374 
L 409.063845 294.722553 
L 411.400815 308.694751 
L 413.604245 323.40533 
L 415.688575 338.864646 
L 417.666023 355.08146 
L 419.547018 372.063251 
L 421.340533 389.816456 
L 423.054345 408.346651 
L 424.695238 427.658701 
L 426.828603 455.484375 
L 426.828603 455.484375 
" clip-path="url(#pf6086a7ee6)" style="fill: none; stroke: #006ddb; stroke-opacity: 0.422973; stroke-width: 7; stroke-linecap: square"/>
   </g>
   <g id="line2d_13">
    <path d="M 124.464229 6.746883 
L 302.480427 133.67326 
L 329.024794 152.776071 
L 344.600204 164.807753 
L 355.664505 174.399127 
L 364.252261 183.009148 
L 371.271856 191.289204 
L 377.20852 199.587246 
L 382.352157 208.11116 
L 386.889882 216.995123 
L 390.949521 226.330797 
L 394.622281 236.183585 
L 397.975527 246.601793 
L 401.060429 257.622115 
L 403.916772 269.27308 
L 406.5761 281.577307 
L 409.063845 294.553035 
L 411.400815 308.215183 
L 413.604245 322.57611 
L 415.688575 337.646172 
L 417.666023 353.43413 
L 419.547018 369.947462 
L 421.340533 387.192602 
L 423.054345 405.175128 
L 424.695238 423.899903 
L 427.175012 455.484375 
L 427.175012 455.484375 
" clip-path="url(#pf6086a7ee6)" style="fill: none; stroke: #006ddb; stroke-opacity: 0.390522; stroke-width: 7; stroke-linecap: square"/>
   </g>
   <g id="line2d_14">
    <path d="M 124.464229 7.568831 
L 329.024794 152.937024 
L 344.600204 164.684088 
L 355.664505 174.027463 
L 364.252261 182.426335 
L 371.271856 190.532195 
L 377.20852 198.693049 
L 382.352157 207.116814 
L 386.889882 215.93769 
L 390.949521 225.247354 
L 394.622281 235.111217 
L 397.975527 245.577595 
L 401.060429 256.683186 
L 403.916772 268.456525 
L 406.5761 280.920234 
L 409.063845 294.092554 
L 411.400815 307.988407 
L 413.604245 322.620155 
L 415.688575 337.998154 
L 417.666023 354.131167 
L 419.547018 371.026673 
L 421.340533 388.691108 
L 423.054345 407.130049 
L 424.695238 426.348362 
L 426.933572 455.484375 
L 426.933572 455.484375 
" clip-path="url(#pf6086a7ee6)" style="fill: none; stroke: #006ddb; stroke-opacity: 0.383169; stroke-width: 7; stroke-linecap: square"/>
   </g>
   <g id="line2d_15">
    <path d="M 124.464229 8.363251 
L 302.480427 134.696176 
L 329.024794 153.271613 
L 344.600204 164.872923 
L 355.664505 174.132351 
L 364.252261 182.509297 
L 371.271856 190.655352 
L 377.20852 198.918573 
L 382.352157 207.506908 
L 386.889882 216.554577 
L 390.949521 226.153269 
L 394.622281 236.368408 
L 397.975527 247.248315 
L 401.060429 258.829694 
L 403.916772 271.141084 
L 406.5761 284.205111 
L 409.063845 298.040018 
L 411.400815 312.660729 
L 413.604245 328.079609 
L 415.688575 344.307015 
L 417.666023 361.351711 
L 419.547018 379.221177 
L 421.340533 397.921851 
L 423.054345 417.45931 
L 424.695238 437.83842 
L 426.00376 455.484375 
L 426.00376 455.484375 
" clip-path="url(#pf6086a7ee6)" style="fill: none; stroke: #006ddb; stroke-opacity: 0.375819; stroke-width: 7; stroke-linecap: square"/>
   </g>
   <g id="line2d_16">
    <path d="M 124.464229 6.644043 
L 302.480427 133.620807 
L 329.024794 152.784737 
L 344.600204 164.886276 
L 355.664505 174.556154 
L 364.252261 183.253298 
L 371.271856 191.629082 
L 377.20852 200.031451 
L 382.352157 208.668286 
L 386.889882 217.673762 
L 390.949521 227.139539 
L 394.622281 237.131018 
L 397.975527 247.696506 
L 401.060429 258.872695 
L 403.916772 270.688113 
L 406.5761 283.165379 
L 409.063845 296.322732 
L 411.400815 310.17509 
L 413.604245 324.734812 
L 415.688575 340.012254 
L 417.666023 356.016177 
L 419.547018 372.754058 
L 421.340533 390.232333 
L 423.054345 408.456577 
L 424.695238 427.431654 
L 426.883416 455.484375 
L 426.883416 455.484375 
" clip-path="url(#pf6086a7ee6)" style="fill: none; stroke: #006ddb; stroke-opacity: 0.369537; stroke-width: 7; stroke-linecap: square"/>
   </g>
   <g id="line2d_17">
    <path d="M 124.464229 6.771594 
L 302.480427 133.682517 
L 329.024794 152.796023 
L 344.600204 164.86508 
L 355.664505 174.520537 
L 364.252261 183.221355 
L 371.271856 191.618926 
L 377.20852 200.061204 
L 382.352157 208.756073 
L 386.889882 217.837714 
L 390.949521 227.397787 
L 394.622281 237.501697 
L 397.975527 248.19775 
L 401.060429 259.52264 
L 403.916772 271.504896 
L 406.5761 284.167137 
L 409.063845 297.527602 
L 411.400815 311.60121 
L 413.604245 326.400321 
L 415.688575 341.935291 
L 417.666023 358.214879 
L 419.547018 375.246566 
L 421.340533 393.036784 
L 423.054345 411.591111 
L 424.695238 430.914412 
L 426.593246 455.484375 
L 426.593246 455.484375 
" clip-path="url(#pf6086a7ee6)" style="fill: none; stroke: #006ddb; stroke-opacity: 0.367137; stroke-width: 7; stroke-linecap: square"/>
   </g>
   <g id="line2d_18">
    <path d="M 124.464229 7.596395 
L 329.024794 152.855713 
L 344.600204 164.565712 
L 355.664505 173.883798 
L 364.252261 182.269163 
L 371.271856 190.373303 
L 377.20852 198.544225 
L 382.352157 206.989847 
L 386.889882 215.844371 
L 390.949521 225.199471 
L 394.622281 235.120562 
L 397.975527 245.655958 
L 401.060429 256.842359 
L 403.916772 268.708299 
L 406.5761 281.2764 
L 409.063845 294.564903 
L 411.400815 308.588731 
L 413.604245 323.360245 
L 415.688575 338.889801 
L 417.666023 355.186163 
L 419.547018 372.25681 
L 421.340533 390.108178 
L 423.054345 408.745844 
L 424.695238 428.174672 
L 426.778817 455.484375 
L 426.778817 455.484375 
" clip-path="url(#pf6086a7ee6)" style="fill: none; stroke: #006ddb; stroke-opacity: 0.366855; stroke-width: 7; stroke-linecap: square"/>
   </g>
   <g id="line2d_19">
    <path d="M 124.464229 7.340847 
L 329.024794 152.662785 
L 344.600204 164.421429 
L 355.664505 173.797858 
L 364.252261 182.251192 
L 371.271856 190.432895 
L 377.20852 198.690957 
L 382.352157 207.233287 
L 386.889882 216.194079 
L 390.949521 225.665004 
L 394.622281 235.711473 
L 397.975527 246.381798 
L 401.060429 257.712677 
L 403.916772 269.732642 
L 406.5761 282.464315 
L 409.063845 295.925936 
L 411.400815 310.132426 
L 413.604245 325.096146 
L 415.688575 340.827454 
L 417.666023 357.33511 
L 419.547018 374.626594 
L 421.340533 392.708341 
L 423.054345 411.585929 
L 424.695238 431.264222 
L 426.534566 455.484375 
L 426.534566 455.484375 
" clip-path="url(#pf6086a7ee6)" style="fill: none; stroke: #006ddb; stroke-opacity: 0.346021; stroke-width: 7; stroke-linecap: square"/>
   </g>
   <g id="line2d_20">
    <path d="M 124.464229 6.853395 
L 329.024794 152.660854 
L 344.600204 164.607877 
L 355.664505 174.132845 
L 364.252261 182.694741 
L 371.271856 190.944969 
L 377.20852 199.231485 
L 382.352157 207.76218 
L 386.889882 216.671234 
L 390.949521 226.05031 
L 394.622281 235.964814 
L 397.975527 246.463051 
L 401.060429 257.581717 
L 403.916772 269.349342 
L 406.5761 281.788544 
L 409.063845 294.917563 
L 411.400815 308.751318 
L 413.604245 323.30217 
L 415.688575 338.580473 
L 417.666023 354.594989 
L 419.547018 371.353196 
L 421.340533 388.861529 
L 423.054345 407.125565 
L 424.695238 426.150167 
L 426.971259 455.484375 
L 426.971259 455.484375 
" clip-path="url(#pf6086a7ee6)" style="fill: none; stroke: #006ddb; stroke-opacity: 0.345934; stroke-width: 7; stroke-linecap: square"/>
   </g>
   <g id="line2d_21">
    <path d="M 124.464229 6.240651 
L 302.480427 133.328662 
L 329.024794 152.558618 
L 344.600204 164.672823 
L 355.664505 174.301635 
L 364.252261 182.90386 
L 371.271856 191.130822 
L 377.20852 199.330438 
L 382.352157 207.71057 
L 386.889882 216.405384 
L 390.949521 225.506532 
L 394.622281 235.07941 
L 397.975527 245.17232 
L 401.060429 255.821952 
L 403.916772 267.056832 
L 406.5761 278.899577 
L 409.063845 291.368423 
L 411.400815 304.478289 
L 413.604245 318.241532 
L 415.688575 332.668507 
L 417.666023 347.767974 
L 419.547018 363.547411 
L 421.340533 380.013251 
L 423.054345 397.171071 
L 424.695238 415.025734 
L 426.269164 433.581508 
L 427.973916 455.484375 
L 427.973916 455.484375 
" clip-path="url(#pf6086a7ee6)" style="fill: none; stroke: #006ddb; stroke-opacity: 0.330699; stroke-width: 7; stroke-linecap: square"/>
   </g>
   <g id="line2d_22">
    <path d="M 124.464229 6.844425 
L 329.024794 152.54795 
L 344.600204 164.459954 
L 355.664505 173.961127 
L 364.252261 182.51045 
L 371.271856 190.759325 
L 377.20852 199.055708 
L 382.352157 207.607488 
L 386.889882 216.548846 
L 390.949521 225.971445 
L 394.622281 235.940689 
L 397.975527 246.504886 
L 401.060429 257.70073 
L 403.916772 269.55675 
L 406.5761 282.095566 
L 409.063845 295.335417 
L 411.400815 309.291223 
L 413.604245 323.975343 
L 415.688575 339.398132 
L 417.666023 355.568352 
L 419.547018 372.493482 
L 421.340533 390.179955 
L 423.054345 408.633349 
L 424.695238 427.858528 
L 426.823997 455.484375 
L 426.823997 455.484375 
" clip-path="url(#pf6086a7ee6)" style="fill: none; stroke: #006ddb; stroke-opacity: 0.328706; stroke-width: 7; stroke-linecap: square"/>
   </g>
   <g id="line2d_23">
    <path d="M 124.464229 7.155178 
L 329.024794 152.668664 
L 344.600204 164.487181 
L 355.664505 173.898185 
L 364.252261 182.360744 
L 371.271856 190.526299 
L 377.20852 198.742829 
L 382.352157 207.218233 
L 386.889882 216.086702 
L 390.949521 225.439903 
L 394.622281 235.343244 
L 397.975527 245.845037 
L 401.060429 256.981978 
L 403.916772 268.782597 
L 406.5761 281.269516 
L 409.063845 294.460975 
L 411.400815 308.371893 
L 413.604245 323.014633 
L 415.688575 338.399549 
L 417.666023 354.535403 
L 419.547018 371.429675 
L 421.340533 389.088799 
L 423.054345 407.518352 
L 424.695238 426.7232 
L 426.908247 455.484375 
L 426.908247 455.484375 
" clip-path="url(#pf6086a7ee6)" style="fill: none; stroke: #006ddb; stroke-opacity: 0.313302; stroke-width: 7; stroke-linecap: square"/>
   </g>
   <g id="line2d_24">
    <path d="M 124.464229 6.524419 
L 302.480427 133.471441 
L 329.024794 152.572831 
L 344.600204 164.576544 
L 355.664505 174.113195 
L 364.252261 182.641674 
L 371.271856 190.813341 
L 377.20852 198.97613 
L 382.352157 207.337918 
L 386.889882 216.032877 
L 390.949521 225.152664 
L 394.622281 234.762679 
L 397.975527 244.911227 
L 401.060429 255.635 
L 403.916772 266.962525 
L 406.5761 278.916421 
L 409.063845 291.514925 
L 411.400815 304.772955 
L 413.604245 318.702872 
L 415.688575 333.315029 
L 417.666023 348.618187 
L 419.547018 364.619824 
L 421.340533 381.326375 
L 423.054345 398.743416 
L 424.695238 416.875811 
L 426.269164 435.727828 
L 427.794358 455.484375 
L 427.794358 455.484375 
" clip-path="url(#pf6086a7ee6)" style="fill: none; stroke: #006ddb; stroke-opacity: 0.309001; stroke-width: 7; stroke-linecap: square"/>
   </g>
   <g id="line2d_25">
    <path d="M 124.464229 6.756572 
L 302.480427 133.684719 
L 329.024794 152.772099 
L 344.600204 164.771304 
L 355.664505 174.313163 
L 364.252261 182.856634 
L 371.271856 191.053105 
L 377.20852 199.250529 
L 382.352157 207.656791 
L 386.889882 216.406068 
L 390.949521 225.590023 
L 394.622281 235.274059 
L 397.975527 245.506482 
L 401.060429 256.323986 
L 403.916772 267.7551 
L 406.5761 279.822443 
L 409.063845 292.544254 
L 411.400815 305.935451 
L 413.604245 320.008396 
L 415.688575 334.773442 
L 417.666023 350.239351 
L 419.547018 366.413601 
L 421.340533 383.302627 
L 423.054345 400.912006 
L 424.695238 419.246601 
L 427.580969 455.484375 
L 427.580969 455.484375 
" clip-path="url(#pf6086a7ee6)" style="fill: none; stroke: #006ddb; stroke-opacity: 0.306501; stroke-width: 7; stroke-linecap: square"/>
   </g>
   <g id="line2d_26">
    <path d="M 124.464229 5.239946 
L 302.480427 132.625445 
L 329.024794 152.15081 
L 344.600204 164.537868 
L 355.664505 174.416033 
L 364.252261 183.243817 
L 371.271856 191.67241 
L 377.20852 200.049658 
L 382.352157 208.583382 
L 386.889882 217.407721 
L 390.949521 226.614306 
L 394.622281 236.268523 
L 397.975527 246.418661 
L 401.060429 257.101405 
L 403.916772 268.345274 
L 406.5761 280.172881 
L 409.063845 292.602458 
L 411.400815 305.64892 
L 413.604245 319.324623 
L 415.688575 333.639919 
L 417.666023 348.603567 
L 419.547018 364.223042 
L 421.340533 380.504777 
L 423.054345 397.454348 
L 424.695238 415.076616 
L 426.269164 433.375849 
L 428.012891 455.484375 
L 428.012891 455.484375 
" clip-path="url(#pf6086a7ee6)" style="fill: none; stroke: #006ddb; stroke-opacity: 0.300095; stroke-width: 7; stroke-linecap: square"/>
   </g>
   <g id="line2d_27">
    <path d="M 124.464229 6.695692 
L 302.480427 133.671103 
L 329.024794 152.80349 
L 344.600204 164.844265 
L 355.664505 174.424201 
L 364.252261 183.002237 
L 371.271856 191.229758 
L 377.20852 199.454709 
L 382.352157 207.884973 
L 386.889882 216.654728 
L 390.949521 225.855634 
L 394.622281 235.553092 
L 397.975527 245.79541 
L 401.060429 256.619281 
L 403.916772 268.053232 
L 406.5761 280.119884 
L 409.063845 292.837473 
L 411.400815 306.22092 
L 413.604245 320.282584 
L 415.688575 335.03282 
L 417.666023 350.480389 
L 419.547018 366.63277 
L 421.340533 383.496396 
L 423.054345 401.076844 
L 424.695238 419.378978 
L 427.576216 455.484375 
L 427.576216 455.484375 
" clip-path="url(#pf6086a7ee6)" style="fill: none; stroke: #006ddb; stroke-opacity: 0.293226; stroke-width: 7; stroke-linecap: square"/>
   </g>
   <g id="line2d_28">
    <path d="M 124.464229 5.820306 
L 302.480427 132.980986 
L 329.024794 152.29142 
L 344.600204 164.485382 
L 355.664505 174.192839 
L 364.252261 182.872472 
L 371.271856 191.175553 
L 377.20852 199.449965 
L 382.352157 207.903556 
L 386.889882 216.670479 
L 390.949521 225.842379 
L 394.622281 235.484646 
L 397.975527 245.645579 
L 401.060429 256.361863 
L 403.916772 267.662023 
L 406.5761 279.568673 
L 409.063845 292.100049 
L 411.400815 305.271067 
L 413.604245 319.094085 
L 415.688575 333.579455 
L 417.666023 348.735937 
L 419.547018 364.571009 
L 421.340533 381.091103 
L 423.054345 398.301795 
L 424.695238 416.207948 
L 426.269164 434.813831 
L 427.88033 455.484375 
L 427.88033 455.484375 
" clip-path="url(#pf6086a7ee6)" style="fill: none; stroke: #006ddb; stroke-opacity: 0.287613; stroke-width: 7; stroke-linecap: square"/>
   </g>
   <g id="line2d_29">
    <path d="M 124.464229 6.058094 
L 302.480427 133.116147 
L 329.024794 152.349894 
L 344.600204 164.497973 
L 355.664505 174.190572 
L 364.252261 182.886443 
L 371.271856 191.236888 
L 377.20852 199.58981 
L 382.352157 208.153064 
L 386.889882 217.060811 
L 390.949521 226.404699 
L 394.622281 236.250124 
L 397.975527 246.645383 
L 401.060429 257.627167 
L 403.916772 269.224 
L 406.5761 281.458499 
L 409.063845 294.348898 
L 411.400815 307.910116 
L 413.604245 322.15451 
L 415.688575 337.092435 
L 417.666023 352.732649 
L 419.547018 369.082631 
L 421.340533 386.148813 
L 423.054345 403.936773 
L 424.695238 422.451373 
L 427.312678 455.484375 
L 427.312678 455.484375 
" clip-path="url(#pf6086a7ee6)" style="fill: none; stroke: #006ddb; stroke-opacity: 0.287085; stroke-width: 7; stroke-linecap: square"/>
   </g>
   <g id="line2d_30">
    <path d="M 124.464229 6.193036 
L 302.480427 133.189148 
L 329.024794 152.372591 
L 344.600204 164.484731 
L 355.664505 174.15588 
L 364.252261 182.844833 
L 371.271856 191.202907 
L 377.20852 199.578014 
L 382.352157 208.178017 
L 386.889882 217.137079 
L 390.949521 226.546852 
L 394.622281 236.472731 
L 397.975527 246.963017 
L 401.060429 258.054401 
L 403.916772 269.775408 
L 406.5761 282.148654 
L 409.063845 295.192377 
L 411.400815 308.921492 
L 413.604245 323.348361 
L 415.688575 338.483335 
L 417.666023 354.335175 
L 419.547018 370.911359 
L 421.340533 388.21832 
L 423.054345 406.261635 
L 424.695238 425.046167 
L 427.08258 455.484375 
L 427.08258 455.484375 
" clip-path="url(#pf6086a7ee6)" style="fill: none; stroke: #006ddb; stroke-opacity: 0.267079; stroke-width: 7; stroke-linecap: square"/>
   </g>
   <g id="line2d_31">
    <path d="M 124.464229 6.248668 
L 302.480427 133.314443 
L 329.024794 152.558878 
L 344.600204 164.724501 
L 355.664505 174.441681 
L 364.252261 183.169226 
L 371.271856 191.558464 
L 377.20852 199.957309 
L 382.352157 208.573627 
L 386.889882 217.541582 
L 390.949521 226.952827 
L 394.622281 236.872759 
L 397.975527 247.349679 
L 401.060429 258.420277 
L 403.916772 270.11308 
L 406.5761 282.450705 
L 409.063845 295.451387 
L 411.400815 309.130045 
L 413.604245 323.499038 
L 415.688575 338.568719 
L 417.666023 354.347849 
L 419.547018 370.843905 
L 421.340533 388.063321 
L 423.054345 406.011673 
L 424.695238 424.693825 
L 427.12197 455.484375 
L 427.12197 455.484375 
" clip-path="url(#pf6086a7ee6)" style="fill: none; stroke: #006ddb; stroke-width: 10; stroke-linecap: square"/>
   </g>
   <g id="line2d_32">
    <path d="M 124.464229 27.76055 
L 302.480427 151.28328 
L 329.024794 166.727188 
L 355.664505 181.140319 
L 364.252261 186.216654 
L 371.271856 191.013782 
L 377.20852 195.880643 
L 382.352157 201.025715 
L 386.889882 206.583557 
L 390.949521 212.646092 
L 394.622281 219.278909 
L 397.975527 226.530452 
L 401.060429 234.43752 
L 403.916772 243.028722 
L 406.5761 252.326743 
L 409.063845 262.349871 
L 411.400815 273.113069 
L 413.604245 284.628733 
L 415.688575 296.907246 
L 417.666023 309.957395 
L 419.547018 323.786679 
L 421.340533 338.401551 
L 423.054345 353.807604 
L 424.695238 370.009715 
L 426.269164 387.012166 
L 427.781375 404.818734 
L 429.236529 423.432767 
L 431.483004 455.484375 
L 431.483004 455.484375 
" clip-path="url(#pf6086a7ee6)" style="fill: none; stroke: #920000; stroke-width: 7; stroke-linecap: square"/>
   </g>
   <g id="line2d_33">
    <path d="M 124.464229 26.187122 
L 302.480427 150.210602 
L 329.024794 166.048576 
L 355.664505 180.885113 
L 364.252261 185.989902 
L 371.271856 190.693151 
L 377.20852 195.343752 
L 382.352157 200.15015 
L 386.889882 205.246886 
L 390.949521 210.72587 
L 394.622281 216.652681 
L 397.975527 223.075756 
L 401.060429 230.031888 
L 403.916772 237.549682 
L 406.5761 245.65182 
L 409.063845 254.356589 
L 411.400815 263.678947 
L 413.604245 273.63129 
L 415.688575 284.223998 
L 417.666023 295.465858 
L 419.547018 307.364368 
L 421.340533 319.92598 
L 423.054345 333.156285 
L 424.695238 347.06016 
L 426.269164 361.641887 
L 427.781375 376.905241 
L 429.236529 392.853572 
L 431.991828 426.816783 
L 434.018345 455.484375 
L 434.018345 455.484375 
" clip-path="url(#pf6086a7ee6)" style="fill: none; stroke: #920000; stroke-opacity: 0.467353; stroke-width: 7; stroke-linecap: square"/>
   </g>
   <g id="line2d_34">
    <path d="M 124.464229 29.722884 
L 302.480427 152.711969 
L 329.024794 167.50295 
L 344.600204 175.15184 
L 364.252261 184.421024 
L 371.271856 188.15802 
L 377.20852 191.863402 
L 382.352157 195.745682 
L 386.889882 199.93944 
L 390.949521 204.536616 
L 394.622281 209.60281 
L 397.975527 215.186472 
L 401.060429 221.324408 
L 403.916772 228.045233 
L 406.5761 235.371634 
L 409.063845 243.321903 
L 411.400815 251.911006 
L 413.604245 261.15134 
L 415.688575 271.05329 
L 417.666023 281.625644 
L 419.547018 292.875904 
L 421.340533 304.810522 
L 423.054345 317.435092 
L 424.695238 330.754494 
L 426.269164 344.773009 
L 427.781375 359.494414 
L 429.236529 374.92206 
L 431.991828 407.907697 
L 434.563361 443.750275 
L 435.319495 455.484375 
L 435.319495 455.484375 
" clip-path="url(#pf6086a7ee6)" style="fill: none; stroke: #920000; stroke-opacity: 0.351615; stroke-width: 7; stroke-linecap: square"/>
   </g>
   <g id="line2d_35">
    <path d="M 124.464229 28.41086 
L 302.480427 151.585023 
L 329.024794 166.541375 
L 344.600204 174.324609 
L 364.252261 183.767674 
L 371.271856 187.543969 
L 377.20852 191.256826 
L 382.352157 195.114733 
L 386.889882 199.252256 
L 390.949521 203.761324 
L 394.622281 208.707528 
L 397.975527 214.139317 
L 401.060429 220.093489 
L 403.916772 226.598656 
L 406.5761 233.677504 
L 409.063845 241.348323 
L 411.400815 249.626077 
L 413.604245 258.52316 
L 415.688575 268.049958 
L 417.666023 278.215257 
L 419.547018 289.026557 
L 421.340533 300.490312 
L 423.054345 312.612114 
L 424.695238 325.396842 
L 426.269164 338.848777 
L 427.781375 352.971696 
L 429.236529 367.768948 
L 431.991828 399.398077 
L 434.563361 433.756515 
L 436.008591 455.484375 
L 436.008591 455.484375 
" clip-path="url(#pf6086a7ee6)" style="fill: none; stroke: #920000; stroke-opacity: 0.210448; stroke-width: 7; stroke-linecap: square"/>
   </g>
   <g id="line2d_36">
    <path d="M 124.464229 28.516397 
L 302.480427 151.976952 
L 329.024794 167.517461 
L 344.600204 176.184102 
L 355.664505 182.621199 
L 364.252261 188.29196 
L 371.271856 193.849672 
L 377.20852 199.643302 
L 382.352157 205.88134 
L 386.889882 212.698355 
L 390.949521 220.186277 
L 394.622281 228.410698 
L 397.975527 237.420066 
L 401.060429 247.251183 
L 403.916772 257.932659 
L 406.5761 269.487181 
L 409.063845 281.933039 
L 411.400815 295.285196 
L 413.604245 309.556049 
L 415.688575 324.755982 
L 417.666023 340.893782 
L 419.547018 357.97695 
L 421.340533 376.011938 
L 423.054345 395.004339 
L 424.695238 414.959032 
L 426.269164 435.880299 
L 427.623358 455.484375 
L 427.623358 455.484375 
" clip-path="url(#pf6086a7ee6)" style="fill: none; stroke: #920000; stroke-opacity: 0.204326; stroke-width: 7; stroke-linecap: square"/>
   </g>
   <g id="line2d_37">
    <path d="M 124.464229 21.53825 
L 302.480427 146.484253 
L 329.024794 163.09358 
L 355.664505 178.87093 
L 364.252261 184.142234 
L 371.271856 188.808855 
L 377.20852 193.219514 
L 382.352157 197.582559 
L 386.889882 202.032465 
L 390.949521 206.661096 
L 394.622281 211.534001 
L 397.975527 216.699592 
L 401.060429 222.194646 
L 403.916772 228.047755 
L 406.5761 234.281587 
L 409.063845 240.914422 
L 411.400815 247.961211 
L 413.604245 255.434343 
L 415.688575 263.344195 
L 417.666023 271.699548 
L 419.547018 280.507896 
L 421.340533 289.775688 
L 423.054345 299.508514 
L 424.695238 309.711249 
L 426.269164 320.38817 
L 427.781375 331.543052 
L 429.236529 343.179243 
L 431.991828 367.907166 
L 434.563361 394.592276 
L 436.974115 423.251094 
L 439.350292 455.484375 
L 439.350292 455.484375 
" clip-path="url(#pf6086a7ee6)" style="fill: none; stroke: #920000; stroke-opacity: 0.20326; stroke-width: 7; stroke-linecap: square"/>
   </g>
   <g id="line2d_38">
    <path d="M 124.464229 25.981626 
L 302.480427 149.965802 
L 344.600204 175.475798 
L 355.664505 182.667938 
L 364.252261 189.162133 
L 371.271856 195.611521 
L 377.20852 202.364988 
L 382.352157 209.630976 
L 386.889882 217.544025 
L 390.949521 226.196042 
L 394.622281 235.652606 
L 397.975527 245.962153 
L 401.060429 257.161476 
L 403.916772 269.279179 
L 406.5761 282.337943 
L 409.063845 296.356055 
L 411.400815 311.348475 
L 413.604245 327.327595 
L 415.688575 344.303799 
L 417.666023 362.285871 
L 419.547018 381.281309 
L 421.340533 401.296565 
L 423.054345 422.337231 
L 425.449737 455.484375 
L 425.449737 455.484375 
" clip-path="url(#pf6086a7ee6)" style="fill: none; stroke: #920000; stroke-opacity: 0.176437; stroke-width: 7; stroke-linecap: square"/>
   </g>
   <g id="line2d_39">
    <path d="M 124.464229 29.649237 
L 302.480427 153.15756 
L 329.024794 168.479768 
L 364.252261 187.061029 
L 371.271856 191.375561 
L 377.20852 195.670044 
L 382.352157 200.152991 
L 386.889882 204.958982 
L 390.949521 210.179955 
L 394.622281 215.881509 
L 397.975527 222.112098 
L 401.060429 228.908524 
L 403.916772 236.299402 
L 406.5761 244.30742 
L 409.063845 252.950871 
L 411.400815 262.244718 
L 413.604245 272.201361 
L 415.688575 282.831183 
L 417.666023 294.142973 
L 419.547018 306.144232 
L 421.340533 318.841413 
L 423.054345 332.24011 
L 424.695238 346.345202 
L 426.269164 361.16097 
L 427.781375 376.691192 
L 429.236529 392.939218 
L 431.991828 427.600306 
L 433.924116 455.484375 
L 433.924116 455.484375 
" clip-path="url(#pf6086a7ee6)" style="fill: none; stroke: #920000; stroke-opacity: 0.173708; stroke-width: 7; stroke-linecap: square"/>
   </g>
   <g id="line2d_40">
    <path d="M 124.464229 26.521189 
L 302.480427 150.445011 
L 329.024794 166.539298 
L 344.600204 175.832244 
L 355.664505 182.967345 
L 364.252261 189.407549 
L 371.271856 195.806028 
L 377.20852 202.511684 
L 382.352157 209.732973 
L 386.889882 217.604438 
L 390.949521 226.217993 
L 394.622281 235.63922 
L 397.975527 245.916557 
L 401.060429 257.086798 
L 403.916772 269.178551 
L 406.5761 282.214496 
L 409.063845 296.212922 
L 411.400815 311.188789 
L 413.604245 327.154491 
L 415.688575 344.12041 
L 417.666023 362.095332 
L 419.547018 381.086756 
L 421.340533 401.101134 
L 423.054345 422.144057 
L 425.462246 455.484375 
L 425.462246 455.484375 
" clip-path="url(#pf6086a7ee6)" style="fill: none; stroke: #920000; stroke-opacity: 0.15318; stroke-width: 7; stroke-linecap: square"/>
   </g>
   <g id="line2d_41">
    <path d="M 124.464229 22.087706 
L 302.480427 146.937105 
L 329.024794 163.325679 
L 344.600204 172.235027 
L 371.271856 186.975534 
L 377.20852 190.574699 
L 382.352157 194.008236 
L 386.889882 197.410629 
L 390.949521 200.873747 
L 394.622281 204.463143 
L 397.975527 208.227232 
L 401.060429 212.202791 
L 403.916772 216.418415 
L 406.5761 220.896775 
L 409.063845 225.656149 
L 411.400815 230.711492 
L 413.604245 236.075191 
L 415.688575 241.757624 
L 417.666023 247.767574 
L 419.547018 254.112534 
L 421.340533 260.798955 
L 423.054345 267.832425 
L 424.695238 275.21782 
L 426.269164 282.959418 
L 427.781375 291.060995 
L 429.236529 299.525897 
L 431.991828 317.557295 
L 434.563361 337.07395 
L 436.974115 358.092385 
L 439.243018 380.626202 
L 441.385838 404.686736 
L 443.415855 430.28353 
L 445.210122 455.484375 
L 445.210122 455.484375 
" clip-path="url(#pf6086a7ee6)" style="fill: none; stroke: #920000; stroke-opacity: 0.135434; stroke-width: 7; stroke-linecap: square"/>
   </g>
   <g id="line2d_42">
    <path d="M 124.464229 22.531692 
L 302.480427 147.445068 
L 329.024794 163.770947 
L 344.600204 172.495183 
L 355.664505 178.259328 
L 382.352157 191.510355 
L 386.889882 193.994797 
L 390.949521 196.417865 
L 394.622281 198.845114 
L 397.975527 201.324964 
L 401.060429 203.894191 
L 403.916772 206.581392 
L 406.5761 209.409239 
L 409.063845 212.39601 
L 411.400815 215.556661 
L 413.604245 218.903581 
L 415.688575 222.447147 
L 417.666023 226.196141 
L 419.547018 230.158059 
L 421.340533 234.339351 
L 423.054345 238.745606 
L 424.695238 243.381699 
L 426.269164 248.251909 
L 427.781375 253.360012 
L 429.236529 258.709354 
L 431.991828 270.143374 
L 434.563361 282.57431 
L 436.974115 296.018683 
L 439.243018 310.490098 
L 441.385838 325.999889 
L 443.415855 342.5576 
L 445.344353 360.171341 
L 447.181004 378.848064 
L 448.93416 398.593773 
L 450.611084 419.413687 
L 452.997223 452.667532 
L 453.182246 455.484375 
L 453.182246 455.484375 
" clip-path="url(#pf6086a7ee6)" style="fill: none; stroke: #920000; stroke-opacity: 0.12632; stroke-width: 7; stroke-linecap: square"/>
   </g>
   <g id="line2d_43">
    <path d="M 124.464229 27.531682 
L 302.480427 151.30319 
L 344.600204 176.576168 
L 355.664505 183.759153 
L 364.252261 190.317528 
L 371.271856 196.904524 
L 377.20852 203.869079 
L 382.352157 211.419664 
L 386.889882 219.690839 
L 390.949521 228.774523 
L 394.622281 238.736306 
L 397.975527 249.624629 
L 401.060429 261.476292 
L 403.916772 274.319902 
L 406.5761 288.178145 
L 409.063845 303.069309 
L 411.400815 319.008355 
L 413.604245 336.00768 
L 415.688575 354.077668 
L 417.666023 373.227103 
L 419.547018 393.463486 
L 421.340533 414.793269 
L 423.054345 437.222045 
L 424.327748 455.484375 
L 424.327748 455.484375 
" clip-path="url(#pf6086a7ee6)" style="fill: none; stroke: #920000; stroke-opacity: 0.119131; stroke-width: 7; stroke-linecap: square"/>
   </g>
   <g id="line2d_44">
    <path d="M 124.464229 14.608256 
L 302.480427 141.568502 
L 329.024794 160.68486 
L 344.600204 172.844785 
L 355.664505 182.685307 
L 364.252261 191.667333 
L 371.271856 200.443127 
L 377.20852 209.361105 
L 382.352157 218.62943 
L 386.889882 228.382461 
L 390.949521 238.711982 
L 394.622281 249.683484 
L 397.975527 261.345337 
L 401.060429 273.734286 
L 403.916772 286.878896 
L 406.5761 300.801817 
L 409.063845 315.521313 
L 411.400815 331.052322 
L 413.604245 347.407221 
L 415.688575 364.596379 
L 417.666023 382.628568 
L 419.547018 401.511277 
L 421.340533 421.25095 
L 424.096158 455.484375 
L 424.096158 455.484375 
" clip-path="url(#pf6086a7ee6)" style="fill: none; stroke: #920000; stroke-opacity: 0.10139; stroke-width: 7; stroke-linecap: square"/>
   </g>
   <g id="line2d_45">
    <path d="M 124.464229 25.248087 
L 302.480427 149.407286 
L 329.024794 164.91264 
L 344.600204 172.777102 
L 355.664505 177.643468 
L 364.252261 180.974463 
L 371.271856 183.423162 
L 382.352157 186.928644 
L 390.949521 189.629506 
L 394.622281 190.897609 
L 397.975527 192.181115 
L 401.060429 193.516813 
L 403.916772 194.933306 
L 406.5761 196.453271 
L 409.063845 198.094995 
L 411.400815 199.873434 
L 413.604245 201.80098 
L 415.688575 203.888016 
L 417.666023 206.143325 
L 419.547018 208.574405 
L 421.340533 211.187707 
L 423.054345 213.988822 
L 424.695238 216.982626 
L 426.269164 220.1734 
L 427.781375 223.56492 
L 429.236529 227.160534 
L 430.638776 230.963225 
L 431.991828 234.975663 
L 434.563361 243.639134 
L 436.974115 253.167474 
L 439.243018 263.574289 
L 441.385838 274.870917 
L 443.415855 287.066905 
L 445.344353 300.170366 
L 447.181004 314.188252 
L 448.93416 329.126569 
L 450.611084 344.990539 
L 452.218131 361.784729 
L 454.509731 388.728842 
L 456.672785 417.78657 
L 458.720951 448.967731 
L 459.116281 455.484375 
L 459.116281 455.484375 
" clip-path="url(#pf6086a7ee6)" style="fill: none; stroke: #920000; stroke-opacity: 0.081103; stroke-width: 7; stroke-linecap: square"/>
   </g>
   <g id="line2d_46">
    <path d="M 124.464229 23.82334 
L 302.480427 148.492427 
L 329.024794 164.409772 
L 344.600204 172.571104 
L 355.664505 177.618427 
L 364.252261 181.014219 
L 371.271856 183.411441 
L 377.20852 185.158885 
L 382.352157 186.464937 
L 390.949521 188.248255 
L 401.060429 189.886101 
L 409.063845 191.166893 
L 413.604245 192.092391 
L 417.666023 193.188446 
L 421.340533 194.520725 
L 424.695238 196.13772 
L 427.781375 198.076261 
L 430.638776 200.364982 
L 433.299021 203.026582 
L 435.787569 206.079361 
L 438.125247 209.538289 
L 440.329307 213.415768 
L 442.4142 217.722187 
L 444.392155 222.466335 
L 446.273609 227.655713 
L 448.067542 233.296778 
L 449.781735 239.395122 
L 451.422976 245.955626 
L 452.997223 252.98257 
L 454.509731 260.479733 
L 456.672785 272.614364 
L 458.720951 285.824258 
L 460.665821 300.117745 
L 462.517315 315.501957 
L 464.283991 331.983045 
L 465.97328 349.566352 
L 468.116398 374.73331 
L 470.146682 401.877552 
L 472.075421 431.007193 
L 473.536099 455.484375 
L 473.536099 455.484375 
" clip-path="url(#pf6086a7ee6)" style="fill: none; stroke: #920000; stroke-opacity: 0.078649; stroke-width: 7; stroke-linecap: square"/>
   </g>
   <g id="line2d_47">
    <path d="M 124.464229 12.852919 
L 302.480427 140.209678 
L 329.024794 160.071934 
L 344.600204 173.300899 
L 355.664505 184.532393 
L 364.252261 195.226947 
L 371.271856 206.036653 
L 377.20852 217.309837 
L 382.352157 229.254609 
L 386.889882 242.005291 
L 390.949521 255.653644 
L 394.622281 270.265142 
L 397.975527 285.888143 
L 401.060429 302.55938 
L 403.916772 320.307414 
L 406.5761 339.154888 
L 409.063845 359.120059 
L 411.400815 380.217864 
L 413.604245 402.460676 
L 415.688575 425.85886 
L 418.036111 455.484375 
L 418.036111 455.484375 
" clip-path="url(#pf6086a7ee6)" style="fill: none; stroke: #920000; stroke-opacity: 0.070393; stroke-width: 7; stroke-linecap: square"/>
   </g>
   <g id="line2d_48">
    <path d="M 124.464229 30.470033 
L 302.480427 154.195033 
L 329.024794 169.111673 
L 344.600204 176.274504 
L 355.664505 180.328235 
L 364.252261 182.736194 
L 371.271856 184.151725 
L 377.20852 184.923819 
L 382.352157 185.260988 
L 386.889882 185.297809 
L 390.949521 185.126221 
L 394.622281 184.811822 
L 401.060429 183.936748 
L 409.063845 182.45051 
L 415.688575 181.191687 
L 419.547018 180.628339 
L 423.054345 180.354241 
L 426.269164 180.411545 
L 429.236529 180.832657 
L 431.991828 181.643028 
L 433.299021 182.200708 
L 434.563361 182.863012 
L 435.787569 183.631899 
L 438.125247 185.496364 
L 440.329307 187.80651 
L 442.4142 190.572733 
L 444.392155 193.803827 
L 446.273609 197.507299 
L 448.067542 201.689606 
L 449.781735 206.356347 
L 451.422976 211.512403 
L 452.997223 217.162059 
L 454.509731 223.309095 
L 455.96516 229.956862 
L 457.367662 237.108347 
L 459.380198 248.785814 
L 461.292913 261.610503 
L 463.115244 275.589199 
L 464.855348 290.72777 
L 466.520326 307.031324 
L 468.116398 324.504333 
L 470.146682 349.627576 
L 472.075421 376.844922 
L 473.912291 406.163331 
L 475.665646 437.588812 
L 476.581947 455.484375 
L 476.581947 455.484375 
" clip-path="url(#pf6086a7ee6)" style="fill: none; stroke: #920000; stroke-opacity: 0.069128; stroke-width: 7; stroke-linecap: square"/>
   </g>
   <g id="line2d_49">
    <path d="M 124.464229 22.773375 
L 302.480427 147.158498 
L 329.024794 162.985062 
L 344.600204 171.241183 
L 355.664505 176.568515 
L 371.271856 183.476825 
L 382.352157 188.385764 
L 386.889882 190.590166 
L 390.949521 192.764563 
L 394.622281 194.97451 
L 397.975527 197.268427 
L 401.060429 199.683095 
L 403.916772 202.247107 
L 406.5761 204.983137 
L 409.063845 207.909466 
L 411.400815 211.041047 
L 413.604245 214.390269 
L 415.688575 217.967513 
L 417.666023 221.781558 
L 419.547018 225.839902 
L 421.340533 230.148993 
L 423.054345 234.714422 
L 424.695238 239.541063 
L 426.269164 244.633196 
L 427.781375 249.994596 
L 429.236529 255.628611 
L 430.638776 261.538222 
L 433.299021 274.194639 
L 435.787569 287.982147 
L 438.125247 302.915714 
L 440.329307 319.00774 
L 442.4142 336.268614 
L 444.392155 354.707124 
L 446.273609 374.330773 
L 448.067542 395.146013 
L 449.781735 417.158439 
L 451.422976 440.37293 
L 452.41049 455.484375 
L 452.41049 455.484375 
" clip-path="url(#pf6086a7ee6)" style="fill: none; stroke: #920000; stroke-opacity: 0.065348; stroke-width: 7; stroke-linecap: square"/>
   </g>
   <g id="line2d_50">
    <path d="M 124.464229 20.697624 
L 302.480427 145.696123 
L 329.024794 162.07007 
L 344.600204 170.783693 
L 355.664505 176.47755 
L 364.252261 180.613661 
L 390.949521 192.9514 
L 394.622281 194.886918 
L 397.975527 196.814715 
L 401.060429 198.771563 
L 403.916772 200.78605 
L 406.5761 202.880844 
L 409.063845 205.074221 
L 411.400815 207.381132 
L 413.604245 209.813963 
L 415.688575 212.383089 
L 417.666023 215.097292 
L 419.547018 217.964064 
L 421.340533 220.989855 
L 423.054345 224.180252 
L 424.695238 227.540129 
L 426.269164 231.073766 
L 427.781375 234.784934 
L 429.236529 238.676983 
L 431.991828 247.015332 
L 434.563361 256.10915 
L 436.974115 265.974955 
L 439.243018 276.626347 
L 441.385838 288.07466 
L 443.415855 300.329433 
L 445.344353 313.398777 
L 447.181004 327.289642 
L 448.93416 342.00803 
L 450.611084 357.559159 
L 452.218131 373.947595 
L 454.509731 400.108862 
L 456.672785 428.174679 
L 458.545465 455.484375 
L 458.545465 455.484375 
" clip-path="url(#pf6086a7ee6)" style="fill: none; stroke: #920000; stroke-opacity: 0.065043; stroke-width: 7; stroke-linecap: square"/>
   </g>
   <g id="line2d_51">
    <path d="M 124.464229 20.656467 
L 302.480427 146.015746 
L 329.024794 162.599251 
L 344.600204 171.362299 
L 355.664505 176.945038 
L 364.252261 180.80936 
L 371.271856 183.607966 
L 377.20852 185.689506 
L 382.352157 187.262286 
L 386.889882 188.460753 
L 390.949521 189.376752 
L 397.975527 190.606359 
L 403.916772 191.300741 
L 409.063845 191.668694 
L 415.688575 191.89109 
L 427.781375 192.129044 
L 431.991828 192.448263 
L 435.787569 193.018964 
L 438.125247 193.566146 
L 440.329307 194.261526 
L 442.4142 195.115488 
L 444.392155 196.136818 
L 446.273609 197.333017 
L 448.067542 198.710535 
L 449.781735 200.274964 
L 451.422976 202.031183 
L 452.997223 203.98347 
L 454.509731 206.135603 
L 455.96516 208.490929 
L 458.050241 212.411346 
L 460.028365 216.804376 
L 461.909972 221.67752 
L 463.704044 227.037232 
L 465.418364 232.889105 
L 467.059722 239.238018 
L 468.634076 246.088251 
L 470.637984 256.008192 
L 472.542904 266.833834 
L 474.358158 278.571875 
L 476.091809 291.228107 
L 477.750878 304.807577 
L 479.729138 323.086902 
L 481.610867 342.823158 
L 483.40505 364.0228 
L 485.119472 386.691423 
L 487.080994 415.839651 
L 488.947574 447.117519 
L 489.411455 455.484375 
L 489.411455 455.484375 
" clip-path="url(#pf6086a7ee6)" style="fill: none; stroke: #920000; stroke-opacity: 0.059688; stroke-width: 7; stroke-linecap: square"/>
   </g>
   <g id="line2d_52">
    <path d="M 124.464229 44.876669 
L 302.480427 169.197374 
L 329.024794 184.662282 
L 344.600204 192.280649 
L 355.664505 196.6951 
L 364.252261 199.368308 
L 371.271856 200.953324 
L 377.20852 201.798984 
L 382.352157 202.113704 
L 386.889882 202.032003 
L 390.949521 201.645777 
L 394.622281 201.020595 
L 397.975527 200.204888 
L 401.060429 199.235442 
L 403.916772 198.140858 
L 406.5761 196.943815 
L 409.063845 195.662596 
L 411.400815 194.312159 
L 415.688575 191.451187 
L 419.547018 188.438281 
L 423.054345 185.329661 
L 426.269164 182.167459 
L 429.236529 178.984068 
L 433.299021 174.223469 
L 436.974115 169.536957 
L 441.385838 163.485631 
L 446.273609 156.352278 
L 459.380198 136.900242 
L 462.517315 132.817773 
L 464.855348 130.13357 
L 467.059722 127.980108 
L 468.634076 126.719626 
L 470.146682 125.767345 
L 471.602203 125.126616 
L 473.00479 124.800423 
L 474.358158 124.791438 
L 475.665646 125.10206 
L 476.930263 125.734452 
L 478.15473 126.690572 
L 479.34152 127.972197 
L 480.492881 129.580942 
L 481.610867 131.518286 
L 482.69736 133.78558 
L 484.099989 137.324024 
L 485.453398 141.453912 
L 486.760923 146.177642 
L 488.025574 151.497379 
L 489.55022 158.988149 
L 491.016884 167.416656 
L 492.429816 176.785954 
L 494.059729 189.274781 
L 495.623549 203.12646 
L 497.12643 218.344694 
L 498.808841 237.830838 
L 500.420925 259.186088 
L 502.184403 285.885971 
L 503.870768 315.037733 
L 505.486482 346.64602 
L 507.226761 385.146726 
L 508.891899 426.766734 
L 509.936426 455.484375 
L 509.936426 455.484375 
" clip-path="url(#pf6086a7ee6)" style="fill: none; stroke: #920000; stroke-opacity: 0.05822; stroke-width: 7; stroke-linecap: square"/>
   </g>
   <g id="line2d_53">
    <path d="M 124.464229 22.336519 
L 302.480427 146.963924 
L 329.024794 162.908118 
L 344.600204 171.150634 
L 355.664505 176.332826 
L 364.252261 179.916963 
L 371.271856 182.555917 
L 382.352157 186.252859 
L 397.975527 191.130858 
L 403.916772 193.316807 
L 406.5761 194.458865 
L 409.063845 195.659481 
L 411.400815 196.933609 
L 413.604245 198.293637 
L 415.688575 199.749943 
L 417.666023 201.311308 
L 419.547018 202.985229 
L 421.340533 204.778153 
L 423.054345 206.695671 
L 424.695238 208.742657 
L 426.269164 210.92339 
L 427.781375 213.241645 
L 429.236529 215.700769 
L 430.638776 218.303746 
L 433.299021 223.951655 
L 435.787569 230.203672 
L 438.125247 237.074763 
L 440.329307 244.57733 
L 442.4142 252.721758 
L 444.392155 261.516836 
L 446.273609 270.970065 
L 448.067542 281.0879 
L 449.781735 291.875932 
L 451.422976 303.339042 
L 452.997223 315.481509 
L 455.24431 334.977151 
L 457.367662 356.020755 
L 459.380198 378.621608 
L 461.292913 402.787612 
L 463.115244 428.525548 
L 464.833375 455.484375 
L 464.833375 455.484375 
" clip-path="url(#pf6086a7ee6)" style="fill: none; stroke: #920000; stroke-opacity: 0.057655; stroke-width: 7; stroke-linecap: square"/>
   </g>
   <g id="line2d_54">
    <path d="M 124.464229 24.216417 
L 302.480427 148.573664 
L 329.024794 164.18029 
L 344.600204 172.034796 
L 355.664505 176.779313 
L 364.252261 179.876359 
L 371.271856 181.978914 
L 377.20852 183.435779 
L 382.352157 184.455346 
L 386.889882 185.17212 
L 394.622281 186.038512 
L 403.916772 186.677515 
L 411.400815 187.209931 
L 415.688575 187.724333 
L 419.547018 188.461161 
L 423.054345 189.476629 
L 426.269164 190.812867 
L 429.236529 192.502261 
L 431.991828 194.57025 
L 434.563361 197.037175 
L 436.974115 199.919562 
L 439.243018 203.231016 
L 441.385838 206.982873 
L 443.415855 211.184677 
L 445.344353 215.844541 
L 447.181004 220.969417 
L 448.93416 226.565309 
L 450.611084 232.637437 
L 452.218131 239.19037 
L 453.76089 246.228126 
L 455.24431 253.754261 
L 457.367662 265.965993 
L 459.380198 279.292896 
L 461.292913 293.742872 
L 463.115244 309.322705 
L 464.855348 326.03826 
L 466.520326 343.89464 
L 468.634076 369.485413 
L 470.637984 397.121368 
L 472.542904 426.810307 
L 474.189555 455.484375 
L 474.189555 455.484375 
" clip-path="url(#pf6086a7ee6)" style="fill: none; stroke: #920000; stroke-opacity: 0.057112; stroke-width: 7; stroke-linecap: square"/>
   </g>
   <g id="line2d_55">
    <path d="M 124.464229 24.391378 
L 302.480427 148.333261 
L 329.024794 163.671709 
L 344.600204 171.411127 
L 355.664505 176.193919 
L 364.252261 179.482686 
L 377.20852 183.886024 
L 386.889882 187.080351 
L 390.949521 188.545505 
L 394.622281 190.018851 
L 397.975527 191.548814 
L 401.060429 193.172181 
L 403.916772 194.917552 
L 406.5761 196.807603 
L 409.063845 198.860617 
L 411.400815 201.091551 
L 413.604245 203.512797 
L 415.688575 206.134734 
L 417.666023 208.966146 
L 419.547018 212.01453 
L 421.340533 215.286337 
L 423.054345 218.787156 
L 424.695238 222.521865 
L 426.269164 226.494743 
L 427.781375 230.709566 
L 429.236529 235.169682 
L 430.638776 239.878073 
L 433.299021 250.050089 
L 435.787569 261.243915 
L 438.125247 273.474523 
L 440.329307 286.754315 
L 442.4142 301.093681 
L 444.392155 316.501411 
L 446.273609 332.985008 
L 448.067542 350.550926 
L 449.781735 369.204762 
L 451.422976 388.951394 
L 453.76089 420.629562 
L 456.006406 455.484375 
L 456.006406 455.484375 
" clip-path="url(#pf6086a7ee6)" style="fill: none; stroke: #920000; stroke-opacity: 0.055121; stroke-width: 7; stroke-linecap: square"/>
   </g>
   <g id="line2d_56">
    <path d="M 124.464229 19.745308 
L 302.480427 144.753933 
L 329.024794 161.181692 
L 344.600204 169.981715 
L 355.664505 175.794048 
L 371.271856 183.493912 
L 382.352157 188.955437 
L 386.889882 191.346345 
L 390.949521 193.647343 
L 394.622281 195.923964 
L 397.975527 198.22461 
L 401.060429 200.586049 
L 403.916772 203.036866 
L 406.5761 205.599726 
L 409.063845 208.292903 
L 411.400815 211.131345 
L 413.604245 214.127439 
L 415.688575 217.291559 
L 417.666023 220.632484 
L 419.547018 224.157706 
L 421.340533 227.873674 
L 423.054345 231.785975 
L 424.695238 235.899484 
L 426.269164 240.218476 
L 427.781375 244.746727 
L 429.236529 249.487582 
L 431.991828 259.618719 
L 434.563361 270.63222 
L 436.974115 282.544603 
L 439.243018 295.369467 
L 441.385838 309.118143 
L 443.415855 323.800171 
L 445.344353 339.42366 
L 447.181004 355.995558 
L 448.93416 373.521868 
L 450.611084 392.007807 
L 452.997223 421.545856 
L 455.24431 453.266402 
L 455.388863 455.484375 
L 455.388863 455.484375 
" clip-path="url(#pf6086a7ee6)" style="fill: none; stroke: #920000; stroke-opacity: 0.055077; stroke-width: 7; stroke-linecap: square"/>
   </g>
   <g id="line2d_57">
    <path d="M 124.464229 24.003672 
L 302.480427 147.864753 
L 329.024794 163.20645 
L 344.600204 171.029898 
L 355.664505 175.977349 
L 371.271856 182.284926 
L 382.352157 186.805555 
L 386.889882 188.895525 
L 390.949521 191.008655 
L 394.622281 193.210511 
L 397.975527 195.549518 
L 401.060429 198.062461 
L 403.916772 200.777938 
L 406.5761 203.718626 
L 409.063845 206.902806 
L 411.400815 210.345436 
L 413.604245 214.058905 
L 415.688575 218.053595 
L 417.666023 222.338287 
L 419.547018 226.92048 
L 421.340533 231.806622 
L 423.054345 237.002305 
L 424.695238 242.512405 
L 426.269164 248.3412 
L 427.781375 254.492468 
L 429.236529 260.969555 
L 430.638776 267.775445 
L 433.299021 282.384037 
L 435.787569 298.336546 
L 438.125247 315.647943 
L 440.329307 334.33063 
L 442.4142 354.394995 
L 444.392155 375.849829 
L 446.273609 398.702634 
L 448.067542 422.959866 
L 450.207288 455.484375 
L 450.207288 455.484375 
" clip-path="url(#pf6086a7ee6)" style="fill: none; stroke: #920000; stroke-opacity: 0.05495; stroke-width: 7; stroke-linecap: square"/>
   </g>
   <g id="line2d_58">
    <path d="M 124.464229 22.029736 
L 302.480427 146.549354 
L 329.024794 162.451982 
L 344.600204 170.716797 
L 355.664505 175.985045 
L 364.252261 179.718961 
L 377.20852 184.891103 
L 386.889882 188.691817 
L 390.949521 190.399179 
L 394.622281 192.07405 
L 397.975527 193.764845 
L 401.060429 195.508342 
L 403.916772 197.333132 
L 406.5761 199.261886 
L 409.063845 201.312883 
L 411.400815 203.501077 
L 413.604245 205.838855 
L 415.688575 208.336594 
L 417.666023 211.003077 
L 419.547018 213.845798 
L 421.340533 216.871206 
L 423.054345 220.084891 
L 424.695238 223.491727 
L 426.269164 227.095993 
L 427.781375 230.901463 
L 429.236529 234.911486 
L 430.638776 239.129043 
L 433.299021 248.197162 
L 435.787569 258.124119 
L 438.125247 268.92488 
L 440.329307 280.611846 
L 442.4142 293.195402 
L 444.392155 306.684338 
L 446.273609 321.086153 
L 448.067542 336.407302 
L 449.781735 352.653378 
L 451.422976 369.829259 
L 453.76089 397.34569 
L 455.96516 426.9761 
L 457.845465 455.484375 
L 457.845465 455.484375 
" clip-path="url(#pf6086a7ee6)" style="fill: none; stroke: #920000; stroke-opacity: 0.054469; stroke-width: 7; stroke-linecap: square"/>
   </g>
   <g id="line2d_59">
    <path d="M 124.464229 77.02236 
L 302.480427 201.480463 
L 329.024794 217.08029 
L 344.600204 224.822893 
L 355.664505 229.350522 
L 364.252261 232.125731 
L 371.271856 233.801516 
L 377.20852 234.726686 
L 382.352157 235.109641 
L 386.889882 235.084888 
L 390.949521 234.744316 
L 394.622281 234.153488 
L 397.975527 233.360832 
L 401.060429 232.40313 
L 403.916772 231.308981 
L 406.5761 230.101063 
L 409.063845 228.797657 
L 411.400815 227.413719 
L 413.604245 225.96164 
L 417.666023 222.892984 
L 421.340533 219.657357 
L 424.695238 216.303256 
L 427.781375 212.867511 
L 430.638776 209.378758 
L 433.299021 205.859697 
L 436.974115 200.563381 
L 440.329307 195.287792 
L 443.415855 190.069781 
L 447.181004 183.250619 
L 451.422976 175.019516 
L 455.96516 165.667331 
L 462.517315 151.576829 
L 469.144897 137.457253 
L 472.542904 130.736685 
L 475.234723 125.903837 
L 477.342753 122.545312 
L 479.34152 119.804609 
L 480.869155 118.06212 
L 482.338585 116.723466 
L 483.754085 115.791716 
L 484.782629 115.361599 
L 485.784458 115.162968 
L 486.760923 115.196797 
L 487.713277 115.463985 
L 488.642683 115.965369 
L 489.55022 116.701724 
L 490.436893 117.673774 
L 491.588283 119.337634 
L 492.706296 121.423177 
L 493.792815 123.931753 
L 494.849564 126.864604 
L 496.131044 131.129035 
L 497.371314 136.060208 
L 498.572943 141.65997 
L 499.967163 149.264575 
L 501.312741 157.836981 
L 502.825461 169.064445 
L 504.281086 181.615746 
L 505.880053 197.584927 
L 507.415366 215.291049 
L 509.072554 237.29097 
L 510.661466 261.498037 
L 512.353399 290.988118 
L 513.974223 323.212547 
L 515.681826 361.822501 
L 517.317026 403.750821 
L 519.096349 455.484375 
L 519.096349 455.484375 
" clip-path="url(#pf6086a7ee6)" style="fill: none; stroke: #920000; stroke-opacity: 0.054318; stroke-width: 7; stroke-linecap: square"/>
   </g>
   <g id="line2d_60">
    <path d="M 124.464229 82.67117 
L 302.480427 207.037007 
L 329.024794 222.486769 
L 344.600204 230.076806 
L 355.664505 234.451907 
L 364.252261 237.075428 
L 371.271856 238.600723 
L 377.20852 239.376791 
L 382.352157 239.612146 
L 386.889882 239.44137 
L 390.949521 238.956401 
L 394.622281 238.222839 
L 397.975527 237.289136 
L 401.060429 236.192097 
L 403.916772 234.960337 
L 406.5761 233.616543 
L 409.063845 232.179009 
L 411.400815 230.662698 
L 413.604245 229.080009 
L 417.666023 225.755439 
L 421.340533 222.271004 
L 424.695238 218.675227 
L 427.781375 215.00496 
L 430.638776 211.288852 
L 433.299021 207.549618 
L 436.974115 201.936526 
L 440.329307 196.360367 
L 443.415855 190.858011 
L 447.181004 183.68499 
L 451.422976 175.052207 
L 455.96516 165.277673 
L 464.283991 146.668565 
L 469.144897 136.076501 
L 472.542904 129.224453 
L 475.234723 124.349589 
L 477.342753 121.005898 
L 478.949967 118.80802 
L 480.492881 117.038602 
L 481.976443 115.701204 
L 483.052828 114.983583 
L 484.099989 114.511967 
L 485.119472 114.287465 
L 486.1127 114.311104 
L 487.080994 114.583831 
L 488.025574 115.106525 
L 488.947574 115.880002 
L 489.848048 116.90502 
L 490.727979 118.182285 
L 491.870839 120.278823 
L 492.980809 122.826413 
L 494.059729 125.826378 
L 495.367276 130.214329 
L 496.631948 135.313173 
L 497.856467 141.124869 
L 499.276352 149.042358 
L 500.64582 157.991678 
L 502.184403 169.739972 
L 503.66396 182.899606 
L 505.088854 197.473715 
L 506.655348 215.865432 
L 508.160698 236.112003 
L 509.78683 261.110625 
L 511.347171 288.465134 
L 513.009924 321.626575 
L 514.603951 357.705509 
L 516.284496 400.76671 
L 518.037984 451.779502 
L 518.156927 455.484375 
L 518.156927 455.484375 
" clip-path="url(#pf6086a7ee6)" style="fill: none; stroke: #920000; stroke-opacity: 0.054036; stroke-width: 7; stroke-linecap: square"/>
   </g>
   <g id="line2d_61">
    <path d="M 124.464229 18.53328 
L 302.480427 143.940619 
L 329.024794 160.683646 
L 344.600204 169.699238 
L 355.664505 175.626694 
L 364.252261 179.927638 
L 377.20852 185.956324 
L 394.622281 193.739801 
L 401.060429 196.917482 
L 406.5761 200.042987 
L 409.063845 201.640656 
L 411.400815 203.28264 
L 413.604245 204.981322 
L 415.688575 206.747075 
L 417.666023 208.588677 
L 419.547018 210.51362 
L 421.340533 212.528349 
L 423.054345 214.638453 
L 424.695238 216.848803 
L 426.269164 219.163677 
L 429.236529 224.121661 
L 431.991828 229.537826 
L 434.563361 235.432503 
L 436.974115 241.822206 
L 439.243018 248.720532 
L 441.385838 256.13881 
L 443.415855 264.08658 
L 445.344353 272.571948 
L 447.181004 281.601862 
L 448.93416 291.182323 
L 450.611084 301.318548 
L 452.218131 312.015102 
L 454.509731 329.119208 
L 456.672785 347.504658 
L 458.720951 367.181262 
L 460.665821 388.15735 
L 462.517315 410.440046 
L 464.283991 434.0355 
L 465.745787 455.484375 
L 465.745787 455.484375 
" clip-path="url(#pf6086a7ee6)" style="fill: none; stroke: #920000; stroke-opacity: 0.051608; stroke-width: 7; stroke-linecap: square"/>
   </g>
   <g id="line2d_62">
    <path d="M 124.464229 27.76055 
L 302.480427 151.28328 
L 329.024794 166.727188 
L 355.664505 181.140319 
L 364.252261 186.216654 
L 371.271856 191.013782 
L 377.20852 195.880643 
L 382.352157 201.025715 
L 386.889882 206.583557 
L 390.949521 212.646092 
L 394.622281 219.278909 
L 397.975527 226.530452 
L 401.060429 234.43752 
L 403.916772 243.028722 
L 406.5761 252.326743 
L 409.063845 262.349871 
L 411.400815 273.113069 
L 413.604245 284.628733 
L 415.688575 296.907246 
L 417.666023 309.957395 
L 419.547018 323.786679 
L 421.340533 338.401551 
L 423.054345 353.807604 
L 424.695238 370.009715 
L 426.269164 387.012166 
L 427.781375 404.818734 
L 429.236529 423.432767 
L 431.483004 455.484375 
L 431.483004 455.484375 
" clip-path="url(#pf6086a7ee6)" style="fill: none; stroke: #920000; stroke-width: 10; stroke-linecap: square"/>
   </g>
   <g id="patch_3">
    <path d="M 151.2 352.8 
L 151.2 7.2 
" style="fill: none; stroke: #000000; stroke-width: 10; stroke-linejoin: miter; stroke-linecap: square"/>
   </g>
   <g id="patch_4">
    <path d="M 151.2 352.8 
L 541.8 352.8 
" style="fill: none; stroke: #000000; stroke-width: 10; stroke-linejoin: miter; stroke-linecap: square"/>
   </g>
   <g id="matplotlib.axis_1">
    <g id="xtick_1">
     <g id="line2d_63">
      <defs>
       <path id="m1e598fad08" d="M 0 0 
L 0 22.5 
" style="stroke: #000000; stroke-width: 10"/>
      </defs>
      <g>
       <use xlink:href="#m1e598fad08" x="213.278537" y="352.8" style="stroke: #000000; stroke-width: 10"/>
      </g>
     </g>
     <g id="text_1">
      <!-- $\mathdefault{10^{-3}}$ -->
      <g transform="translate(178.028537 402.095312) scale(0.3 -0.3)">
       <defs>
        <path id="DejaVuSans-31" d="M 794 531 
L 1825 531 
L 1825 4091 
L 703 3866 
L 703 4441 
L 1819 4666 
L 2450 4666 
L 2450 531 
L 3481 531 
L 3481 0 
L 794 0 
L 794 531 
z
" transform="scale(0.015625)"/>
        <path id="DejaVuSans-30" d="M 2034 4250 
Q 1547 4250 1301 3770 
Q 1056 3291 1056 2328 
Q 1056 1369 1301 889 
Q 1547 409 2034 409 
Q 2525 409 2770 889 
Q 3016 1369 3016 2328 
Q 3016 3291 2770 3770 
Q 2525 4250 2034 4250 
z
M 2034 4750 
Q 2819 4750 3233 4129 
Q 3647 3509 3647 2328 
Q 3647 1150 3233 529 
Q 2819 -91 2034 -91 
Q 1250 -91 836 529 
Q 422 1150 422 2328 
Q 422 3509 836 4129 
Q 1250 4750 2034 4750 
z
" transform="scale(0.015625)"/>
        <path id="DejaVuSans-2212" d="M 678 2272 
L 4684 2272 
L 4684 1741 
L 678 1741 
L 678 2272 
z
" transform="scale(0.015625)"/>
        <path id="DejaVuSans-33" d="M 2597 2516 
Q 3050 2419 3304 2112 
Q 3559 1806 3559 1356 
Q 3559 666 3084 287 
Q 2609 -91 1734 -91 
Q 1441 -91 1130 -33 
Q 819 25 488 141 
L 488 750 
Q 750 597 1062 519 
Q 1375 441 1716 441 
Q 2309 441 2620 675 
Q 2931 909 2931 1356 
Q 2931 1769 2642 2001 
Q 2353 2234 1838 2234 
L 1294 2234 
L 1294 2753 
L 1863 2753 
Q 2328 2753 2575 2939 
Q 2822 3125 2822 3475 
Q 2822 3834 2567 4026 
Q 2313 4219 1838 4219 
Q 1578 4219 1281 4162 
Q 984 4106 628 3988 
L 628 4550 
Q 988 4650 1302 4700 
Q 1616 4750 1894 4750 
Q 2613 4750 3031 4423 
Q 3450 4097 3450 3541 
Q 3450 3153 3228 2886 
Q 3006 2619 2597 2516 
z
" transform="scale(0.015625)"/>
       </defs>
       <use xlink:href="#DejaVuSans-31" transform="translate(0 0.765625)"/>
       <use xlink:href="#DejaVuSans-30" transform="translate(63.623047 0.765625)"/>
       <use xlink:href="#DejaVuSans-2212" transform="translate(128.203125 39.046875) scale(0.7)"/>
       <use xlink:href="#DejaVuSans-33" transform="translate(186.855469 39.046875) scale(0.7)"/>
      </g>
     </g>
    </g>
    <g id="xtick_2">
     <g id="line2d_64">
      <g>
       <use xlink:href="#m1e598fad08" x="302.092846" y="352.8" style="stroke: #000000; stroke-width: 10"/>
      </g>
     </g>
     <g id="text_2">
      <!-- $\mathdefault{10^{-2}}$ -->
      <g transform="translate(266.842846 402.095312) scale(0.3 -0.3)">
       <defs>
        <path id="DejaVuSans-32" d="M 1228 531 
L 3431 531 
L 3431 0 
L 469 0 
L 469 531 
Q 828 903 1448 1529 
Q 2069 2156 2228 2338 
Q 2531 2678 2651 2914 
Q 2772 3150 2772 3378 
Q 2772 3750 2511 3984 
Q 2250 4219 1831 4219 
Q 1534 4219 1204 4116 
Q 875 4013 500 3803 
L 500 4441 
Q 881 4594 1212 4672 
Q 1544 4750 1819 4750 
Q 2544 4750 2975 4387 
Q 3406 4025 3406 3419 
Q 3406 3131 3298 2873 
Q 3191 2616 2906 2266 
Q 2828 2175 2409 1742 
Q 1991 1309 1228 531 
z
" transform="scale(0.015625)"/>
       </defs>
       <use xlink:href="#DejaVuSans-31" transform="translate(0 0.765625)"/>
       <use xlink:href="#DejaVuSans-30" transform="translate(63.623047 0.765625)"/>
       <use xlink:href="#DejaVuSans-2212" transform="translate(128.203125 39.046875) scale(0.7)"/>
       <use xlink:href="#DejaVuSans-32" transform="translate(186.855469 39.046875) scale(0.7)"/>
      </g>
     </g>
    </g>
    <g id="xtick_3">
     <g id="line2d_65">
      <g>
       <use xlink:href="#m1e598fad08" x="390.907154" y="352.8" style="stroke: #000000; stroke-width: 10"/>
      </g>
     </g>
     <g id="text_3">
      <!-- $\mathdefault{10^{-1}}$ -->
      <g transform="translate(355.657154 402.095312) scale(0.3 -0.3)">
       <use xlink:href="#DejaVuSans-31" transform="translate(0 0.684375)"/>
       <use xlink:href="#DejaVuSans-30" transform="translate(63.623047 0.684375)"/>
       <use xlink:href="#DejaVuSans-2212" transform="translate(128.203125 38.965625) scale(0.7)"/>
       <use xlink:href="#DejaVuSans-31" transform="translate(186.855469 38.965625) scale(0.7)"/>
      </g>
     </g>
    </g>
    <g id="xtick_4">
     <g id="line2d_66">
      <g>
       <use xlink:href="#m1e598fad08" x="479.721463" y="352.8" style="stroke: #000000; stroke-width: 10"/>
      </g>
     </g>
     <g id="text_4">
      <!-- $\mathdefault{10^{0}}$ -->
      <g transform="translate(453.321463 402.095312) scale(0.3 -0.3)">
       <use xlink:href="#DejaVuSans-31" transform="translate(0 0.765625)"/>
       <use xlink:href="#DejaVuSans-30" transform="translate(63.623047 0.765625)"/>
       <use xlink:href="#DejaVuSans-30" transform="translate(128.203125 39.046875) scale(0.7)"/>
      </g>
     </g>
    </g>
    <g id="xtick_5">
     <g id="line2d_67"/>
    </g>
    <g id="xtick_6">
     <g id="line2d_68"/>
    </g>
    <g id="xtick_7">
     <g id="line2d_69"/>
    </g>
    <g id="xtick_8">
     <g id="line2d_70"/>
    </g>
    <g id="xtick_9">
     <g id="line2d_71"/>
    </g>
    <g id="xtick_10">
     <g id="line2d_72"/>
    </g>
    <g id="xtick_11">
     <g id="line2d_73"/>
    </g>
    <g id="xtick_12">
     <g id="line2d_74"/>
    </g>
    <g id="xtick_13">
     <g id="line2d_75"/>
    </g>
    <g id="xtick_14">
     <g id="line2d_76"/>
    </g>
    <g id="xtick_15">
     <g id="line2d_77"/>
    </g>
    <g id="xtick_16">
     <g id="line2d_78"/>
    </g>
    <g id="xtick_17">
     <g id="line2d_79"/>
    </g>
    <g id="xtick_18">
     <g id="line2d_80"/>
    </g>
    <g id="xtick_19">
     <g id="line2d_81"/>
    </g>
    <g id="xtick_20">
     <g id="line2d_82"/>
    </g>
    <g id="xtick_21">
     <g id="line2d_83"/>
    </g>
    <g id="xtick_22">
     <g id="line2d_84"/>
    </g>
    <g id="xtick_23">
     <g id="line2d_85"/>
    </g>
    <g id="xtick_24">
     <g id="line2d_86"/>
    </g>
    <g id="xtick_25">
     <g id="line2d_87"/>
    </g>
    <g id="xtick_26">
     <g id="line2d_88"/>
    </g>
    <g id="xtick_27">
     <g id="line2d_89"/>
    </g>
    <g id="xtick_28">
     <g id="line2d_90"/>
    </g>
    <g id="xtick_29">
     <g id="line2d_91"/>
    </g>
    <g id="xtick_30">
     <g id="line2d_92"/>
    </g>
    <g id="xtick_31">
     <g id="line2d_93"/>
    </g>
    <g id="xtick_32">
     <g id="line2d_94"/>
    </g>
    <g id="xtick_33">
     <g id="line2d_95"/>
    </g>
    <g id="xtick_34">
     <g id="line2d_96"/>
    </g>
    <g id="xtick_35">
     <g id="line2d_97"/>
    </g>
    <g id="xtick_36">
     <g id="line2d_98"/>
    </g>
    <g id="xtick_37">
     <g id="line2d_99"/>
    </g>
    <g id="xtick_38">
     <g id="line2d_100"/>
    </g>
    <g id="xtick_39">
     <g id="line2d_101"/>
    </g>
    <g id="xtick_40">
     <g id="line2d_102"/>
    </g>
    <g id="text_5">
     <!-- Species abundance, $N$ -->
     <g transform="translate(151.025 439.934375) scale(0.35 -0.35)">
      <defs>
       <path id="DejaVuSans-53" d="M 3425 4513 
L 3425 3897 
Q 3066 4069 2747 4153 
Q 2428 4238 2131 4238 
Q 1616 4238 1336 4038 
Q 1056 3838 1056 3469 
Q 1056 3159 1242 3001 
Q 1428 2844 1947 2747 
L 2328 2669 
Q 3034 2534 3370 2195 
Q 3706 1856 3706 1288 
Q 3706 609 3251 259 
Q 2797 -91 1919 -91 
Q 1588 -91 1214 -16 
Q 841 59 441 206 
L 441 856 
Q 825 641 1194 531 
Q 1563 422 1919 422 
Q 2459 422 2753 634 
Q 3047 847 3047 1241 
Q 3047 1584 2836 1778 
Q 2625 1972 2144 2069 
L 1759 2144 
Q 1053 2284 737 2584 
Q 422 2884 422 3419 
Q 422 4038 858 4394 
Q 1294 4750 2059 4750 
Q 2388 4750 2728 4690 
Q 3069 4631 3425 4513 
z
" transform="scale(0.015625)"/>
       <path id="DejaVuSans-70" d="M 1159 525 
L 1159 -1331 
L 581 -1331 
L 581 3500 
L 1159 3500 
L 1159 2969 
Q 1341 3281 1617 3432 
Q 1894 3584 2278 3584 
Q 2916 3584 3314 3078 
Q 3713 2572 3713 1747 
Q 3713 922 3314 415 
Q 2916 -91 2278 -91 
Q 1894 -91 1617 61 
Q 1341 213 1159 525 
z
M 3116 1747 
Q 3116 2381 2855 2742 
Q 2594 3103 2138 3103 
Q 1681 3103 1420 2742 
Q 1159 2381 1159 1747 
Q 1159 1113 1420 752 
Q 1681 391 2138 391 
Q 2594 391 2855 752 
Q 3116 1113 3116 1747 
z
" transform="scale(0.015625)"/>
       <path id="DejaVuSans-65" d="M 3597 1894 
L 3597 1613 
L 953 1613 
Q 991 1019 1311 708 
Q 1631 397 2203 397 
Q 2534 397 2845 478 
Q 3156 559 3463 722 
L 3463 178 
Q 3153 47 2828 -22 
Q 2503 -91 2169 -91 
Q 1331 -91 842 396 
Q 353 884 353 1716 
Q 353 2575 817 3079 
Q 1281 3584 2069 3584 
Q 2775 3584 3186 3129 
Q 3597 2675 3597 1894 
z
M 3022 2063 
Q 3016 2534 2758 2815 
Q 2500 3097 2075 3097 
Q 1594 3097 1305 2825 
Q 1016 2553 972 2059 
L 3022 2063 
z
" transform="scale(0.015625)"/>
       <path id="DejaVuSans-63" d="M 3122 3366 
L 3122 2828 
Q 2878 2963 2633 3030 
Q 2388 3097 2138 3097 
Q 1578 3097 1268 2742 
Q 959 2388 959 1747 
Q 959 1106 1268 751 
Q 1578 397 2138 397 
Q 2388 397 2633 464 
Q 2878 531 3122 666 
L 3122 134 
Q 2881 22 2623 -34 
Q 2366 -91 2075 -91 
Q 1284 -91 818 406 
Q 353 903 353 1747 
Q 353 2603 823 3093 
Q 1294 3584 2113 3584 
Q 2378 3584 2631 3529 
Q 2884 3475 3122 3366 
z
" transform="scale(0.015625)"/>
       <path id="DejaVuSans-69" d="M 603 3500 
L 1178 3500 
L 1178 0 
L 603 0 
L 603 3500 
z
M 603 4863 
L 1178 4863 
L 1178 4134 
L 603 4134 
L 603 4863 
z
" transform="scale(0.015625)"/>
       <path id="DejaVuSans-73" d="M 2834 3397 
L 2834 2853 
Q 2591 2978 2328 3040 
Q 2066 3103 1784 3103 
Q 1356 3103 1142 2972 
Q 928 2841 928 2578 
Q 928 2378 1081 2264 
Q 1234 2150 1697 2047 
L 1894 2003 
Q 2506 1872 2764 1633 
Q 3022 1394 3022 966 
Q 3022 478 2636 193 
Q 2250 -91 1575 -91 
Q 1294 -91 989 -36 
Q 684 19 347 128 
L 347 722 
Q 666 556 975 473 
Q 1284 391 1588 391 
Q 1994 391 2212 530 
Q 2431 669 2431 922 
Q 2431 1156 2273 1281 
Q 2116 1406 1581 1522 
L 1381 1569 
Q 847 1681 609 1914 
Q 372 2147 372 2553 
Q 372 3047 722 3315 
Q 1072 3584 1716 3584 
Q 2034 3584 2315 3537 
Q 2597 3491 2834 3397 
z
" transform="scale(0.015625)"/>
       <path id="DejaVuSans-20" transform="scale(0.015625)"/>
       <path id="DejaVuSans-61" d="M 2194 1759 
Q 1497 1759 1228 1600 
Q 959 1441 959 1056 
Q 959 750 1161 570 
Q 1363 391 1709 391 
Q 2188 391 2477 730 
Q 2766 1069 2766 1631 
L 2766 1759 
L 2194 1759 
z
M 3341 1997 
L 3341 0 
L 2766 0 
L 2766 531 
Q 2569 213 2275 61 
Q 1981 -91 1556 -91 
Q 1019 -91 701 211 
Q 384 513 384 1019 
Q 384 1609 779 1909 
Q 1175 2209 1959 2209 
L 2766 2209 
L 2766 2266 
Q 2766 2663 2505 2880 
Q 2244 3097 1772 3097 
Q 1472 3097 1187 3025 
Q 903 2953 641 2809 
L 641 3341 
Q 956 3463 1253 3523 
Q 1550 3584 1831 3584 
Q 2591 3584 2966 3190 
Q 3341 2797 3341 1997 
z
" transform="scale(0.015625)"/>
       <path id="DejaVuSans-62" d="M 3116 1747 
Q 3116 2381 2855 2742 
Q 2594 3103 2138 3103 
Q 1681 3103 1420 2742 
Q 1159 2381 1159 1747 
Q 1159 1113 1420 752 
Q 1681 391 2138 391 
Q 2594 391 2855 752 
Q 3116 1113 3116 1747 
z
M 1159 2969 
Q 1341 3281 1617 3432 
Q 1894 3584 2278 3584 
Q 2916 3584 3314 3078 
Q 3713 2572 3713 1747 
Q 3713 922 3314 415 
Q 2916 -91 2278 -91 
Q 1894 -91 1617 61 
Q 1341 213 1159 525 
L 1159 0 
L 581 0 
L 581 4863 
L 1159 4863 
L 1159 2969 
z
" transform="scale(0.015625)"/>
       <path id="DejaVuSans-75" d="M 544 1381 
L 544 3500 
L 1119 3500 
L 1119 1403 
Q 1119 906 1312 657 
Q 1506 409 1894 409 
Q 2359 409 2629 706 
Q 2900 1003 2900 1516 
L 2900 3500 
L 3475 3500 
L 3475 0 
L 2900 0 
L 2900 538 
Q 2691 219 2414 64 
Q 2138 -91 1772 -91 
Q 1169 -91 856 284 
Q 544 659 544 1381 
z
M 1991 3584 
L 1991 3584 
z
" transform="scale(0.015625)"/>
       <path id="DejaVuSans-6e" d="M 3513 2113 
L 3513 0 
L 2938 0 
L 2938 2094 
Q 2938 2591 2744 2837 
Q 2550 3084 2163 3084 
Q 1697 3084 1428 2787 
Q 1159 2491 1159 1978 
L 1159 0 
L 581 0 
L 581 3500 
L 1159 3500 
L 1159 2956 
Q 1366 3272 1645 3428 
Q 1925 3584 2291 3584 
Q 2894 3584 3203 3211 
Q 3513 2838 3513 2113 
z
" transform="scale(0.015625)"/>
       <path id="DejaVuSans-64" d="M 2906 2969 
L 2906 4863 
L 3481 4863 
L 3481 0 
L 2906 0 
L 2906 525 
Q 2725 213 2448 61 
Q 2172 -91 1784 -91 
Q 1150 -91 751 415 
Q 353 922 353 1747 
Q 353 2572 751 3078 
Q 1150 3584 1784 3584 
Q 2172 3584 2448 3432 
Q 2725 3281 2906 2969 
z
M 947 1747 
Q 947 1113 1208 752 
Q 1469 391 1925 391 
Q 2381 391 2643 752 
Q 2906 1113 2906 1747 
Q 2906 2381 2643 2742 
Q 2381 3103 1925 3103 
Q 1469 3103 1208 2742 
Q 947 2381 947 1747 
z
" transform="scale(0.015625)"/>
       <path id="DejaVuSans-2c" d="M 750 794 
L 1409 794 
L 1409 256 
L 897 -744 
L 494 -744 
L 750 256 
L 750 794 
z
" transform="scale(0.015625)"/>
       <path id="Cmmi10-4e" d="M 300 0 
Q 238 0 238 84 
Q 241 100 250 139 
Q 259 178 276 201 
Q 294 225 319 225 
Q 931 225 1031 616 
L 1900 4116 
Q 1722 4147 1338 4147 
Q 1275 4147 1275 4231 
Q 1278 4247 1287 4286 
Q 1297 4325 1314 4348 
Q 1331 4372 1356 4372 
L 2463 4372 
Q 2509 4372 2522 4331 
L 3944 947 
L 4653 3781 
Q 4666 3850 4666 3878 
Q 4666 4147 4172 4147 
Q 4109 4147 4109 4231 
Q 4131 4313 4143 4342 
Q 4156 4372 4219 4372 
L 5588 4372 
Q 5650 4372 5650 4288 
Q 5647 4272 5637 4233 
Q 5628 4194 5611 4170 
Q 5594 4147 5569 4147 
Q 4956 4147 4856 3756 
L 3938 56 
Q 3916 0 3872 0 
L 3794 0 
Q 3750 0 3738 44 
L 2106 3916 
L 2094 3956 
Q 2081 3969 2081 3975 
L 1234 588 
Q 1228 572 1225 548 
Q 1222 525 1216 494 
Q 1216 328 1359 276 
Q 1503 225 1716 225 
Q 1778 225 1778 141 
Q 1756 53 1740 26 
Q 1725 0 1672 0 
L 300 0 
z
" transform="scale(0.015625)"/>
      </defs>
      <use xlink:href="#DejaVuSans-53" transform="translate(0 0.015625)"/>
      <use xlink:href="#DejaVuSans-70" transform="translate(63.476562 0.015625)"/>
      <use xlink:href="#DejaVuSans-65" transform="translate(126.953125 0.015625)"/>
      <use xlink:href="#DejaVuSans-63" transform="translate(188.476562 0.015625)"/>
      <use xlink:href="#DejaVuSans-69" transform="translate(243.457031 0.015625)"/>
      <use xlink:href="#DejaVuSans-65" transform="translate(271.240234 0.015625)"/>
      <use xlink:href="#DejaVuSans-73" transform="translate(332.763672 0.015625)"/>
      <use xlink:href="#DejaVuSans-20" transform="translate(384.863281 0.015625)"/>
      <use xlink:href="#DejaVuSans-61" transform="translate(416.650391 0.015625)"/>
      <use xlink:href="#DejaVuSans-62" transform="translate(477.929688 0.015625)"/>
      <use xlink:href="#DejaVuSans-75" transform="translate(541.40625 0.015625)"/>
      <use xlink:href="#DejaVuSans-6e" transform="translate(604.785156 0.015625)"/>
      <use xlink:href="#DejaVuSans-64" transform="translate(668.164062 0.015625)"/>
      <use xlink:href="#DejaVuSans-61" transform="translate(731.640625 0.015625)"/>
      <use xlink:href="#DejaVuSans-6e" transform="translate(792.919922 0.015625)"/>
      <use xlink:href="#DejaVuSans-63" transform="translate(856.298828 0.015625)"/>
      <use xlink:href="#DejaVuSans-65" transform="translate(911.279297 0.015625)"/>
      <use xlink:href="#DejaVuSans-2c" transform="translate(972.802734 0.015625)"/>
      <use xlink:href="#DejaVuSans-20" transform="translate(1004.589844 0.015625)"/>
      <use xlink:href="#Cmmi10-4e" transform="translate(1036.376953 0.015625)"/>
     </g>
    </g>
   </g>
   <g id="matplotlib.axis_2">
    <g id="ytick_1">
     <g id="line2d_103">
      <defs>
       <path id="me4b56b8686" d="M 0 0 
L -22.5 0 
" style="stroke: #000000; stroke-width: 10"/>
      </defs>
      <g>
       <use xlink:href="#me4b56b8686" x="151.2" y="308.048848" style="stroke: #000000; stroke-width: 10"/>
      </g>
     </g>
     <g id="text_6">
      <!-- $\mathdefault{10^{-3}}$ -->
      <g transform="translate(54.2 316.326973) scale(0.3 -0.3)">
       <use xlink:href="#DejaVuSans-31" transform="translate(0 0.765625)"/>
       <use xlink:href="#DejaVuSans-30" transform="translate(63.623047 0.765625)"/>
       <use xlink:href="#DejaVuSans-2212" transform="translate(128.203125 39.046875) scale(0.7)"/>
       <use xlink:href="#DejaVuSans-33" transform="translate(186.855469 39.046875) scale(0.7)"/>
      </g>
     </g>
    </g>
    <g id="ytick_2">
     <g id="line2d_104">
      <g>
       <use xlink:href="#me4b56b8686" x="151.2" y="244.024424" style="stroke: #000000; stroke-width: 10"/>
      </g>
     </g>
     <g id="text_7">
      <!-- $\mathdefault{10^{-2}}$ -->
      <g transform="translate(54.2 252.302549) scale(0.3 -0.3)">
       <use xlink:href="#DejaVuSans-31" transform="translate(0 0.765625)"/>
       <use xlink:href="#DejaVuSans-30" transform="translate(63.623047 0.765625)"/>
       <use xlink:href="#DejaVuSans-2212" transform="translate(128.203125 39.046875) scale(0.7)"/>
       <use xlink:href="#DejaVuSans-32" transform="translate(186.855469 39.046875) scale(0.7)"/>
      </g>
     </g>
    </g>
    <g id="ytick_3">
     <g id="line2d_105">
      <g>
       <use xlink:href="#me4b56b8686" x="151.2" y="180" style="stroke: #000000; stroke-width: 10"/>
      </g>
     </g>
     <g id="text_8">
      <!-- $\mathdefault{10^{-1}}$ -->
      <g transform="translate(54.2 188.278125) scale(0.3 -0.3)">
       <use xlink:href="#DejaVuSans-31" transform="translate(0 0.684375)"/>
       <use xlink:href="#DejaVuSans-30" transform="translate(63.623047 0.684375)"/>
       <use xlink:href="#DejaVuSans-2212" transform="translate(128.203125 38.965625) scale(0.7)"/>
       <use xlink:href="#DejaVuSans-31" transform="translate(186.855469 38.965625) scale(0.7)"/>
      </g>
     </g>
    </g>
    <g id="ytick_4">
     <g id="line2d_106">
      <g>
       <use xlink:href="#me4b56b8686" x="151.2" y="115.975576" style="stroke: #000000; stroke-width: 10"/>
      </g>
     </g>
     <g id="text_9">
      <!-- $\mathdefault{10^{0}}$ -->
      <g transform="translate(71.9 124.253701) scale(0.3 -0.3)">
       <use xlink:href="#DejaVuSans-31" transform="translate(0 0.765625)"/>
       <use xlink:href="#DejaVuSans-30" transform="translate(63.623047 0.765625)"/>
       <use xlink:href="#DejaVuSans-30" transform="translate(128.203125 39.046875) scale(0.7)"/>
      </g>
     </g>
    </g>
    <g id="ytick_5">
     <g id="line2d_107">
      <g>
       <use xlink:href="#me4b56b8686" x="151.2" y="51.951152" style="stroke: #000000; stroke-width: 10"/>
      </g>
     </g>
     <g id="text_10">
      <!-- $\mathdefault{10^{1}}$ -->
      <g transform="translate(71.9 60.229277) scale(0.3 -0.3)">
       <use xlink:href="#DejaVuSans-31" transform="translate(0 0.684375)"/>
       <use xlink:href="#DejaVuSans-30" transform="translate(63.623047 0.684375)"/>
       <use xlink:href="#DejaVuSans-31" transform="translate(128.203125 38.965625) scale(0.7)"/>
      </g>
     </g>
    </g>
    <g id="ytick_6">
     <g id="line2d_108"/>
    </g>
    <g id="ytick_7">
     <g id="line2d_109"/>
    </g>
    <g id="ytick_8">
     <g id="line2d_110"/>
    </g>
    <g id="ytick_9">
     <g id="line2d_111"/>
    </g>
    <g id="ytick_10">
     <g id="line2d_112"/>
    </g>
    <g id="ytick_11">
     <g id="line2d_113"/>
    </g>
    <g id="ytick_12">
     <g id="line2d_114"/>
    </g>
    <g id="ytick_13">
     <g id="line2d_115"/>
    </g>
    <g id="ytick_14">
     <g id="line2d_116"/>
    </g>
    <g id="ytick_15">
     <g id="line2d_117"/>
    </g>
    <g id="ytick_16">
     <g id="line2d_118"/>
    </g>
    <g id="ytick_17">
     <g id="line2d_119"/>
    </g>
    <g id="ytick_18">
     <g id="line2d_120"/>
    </g>
    <g id="ytick_19">
     <g id="line2d_121"/>
    </g>
    <g id="ytick_20">
     <g id="line2d_122"/>
    </g>
    <g id="ytick_21">
     <g id="line2d_123"/>
    </g>
    <g id="ytick_22">
     <g id="line2d_124"/>
    </g>
    <g id="ytick_23">
     <g id="line2d_125"/>
    </g>
    <g id="ytick_24">
     <g id="line2d_126"/>
    </g>
    <g id="ytick_25">
     <g id="line2d_127"/>
    </g>
    <g id="ytick_26">
     <g id="line2d_128"/>
    </g>
    <g id="ytick_27">
     <g id="line2d_129"/>
    </g>
    <g id="ytick_28">
     <g id="line2d_130"/>
    </g>
    <g id="ytick_29">
     <g id="line2d_131"/>
    </g>
    <g id="ytick_30">
     <g id="line2d_132"/>
    </g>
    <g id="ytick_31">
     <g id="line2d_133"/>
    </g>
    <g id="ytick_32">
     <g id="line2d_134"/>
    </g>
    <g id="ytick_33">
     <g id="line2d_135"/>
    </g>
    <g id="ytick_34">
     <g id="line2d_136"/>
    </g>
    <g id="ytick_35">
     <g id="line2d_137"/>
    </g>
    <g id="ytick_36">
     <g id="line2d_138"/>
    </g>
    <g id="ytick_37">
     <g id="line2d_139"/>
    </g>
    <g id="ytick_38">
     <g id="line2d_140"/>
    </g>
    <g id="ytick_39">
     <g id="line2d_141"/>
    </g>
    <g id="ytick_40">
     <g id="line2d_142"/>
    </g>
    <g id="ytick_41">
     <g id="line2d_143"/>
    </g>
    <g id="ytick_42">
     <g id="line2d_144"/>
    </g>
    <g id="ytick_43">
     <g id="line2d_145"/>
    </g>
    <g id="ytick_44">
     <g id="line2d_146"/>
    </g>
    <g id="ytick_45">
     <g id="line2d_147"/>
    </g>
    <g id="ytick_46">
     <g id="line2d_148"/>
    </g>
    <g id="ytick_47">
     <g id="line2d_149"/>
    </g>
    <g id="ytick_48">
     <g id="line2d_150"/>
    </g>
    <g id="ytick_49">
     <g id="line2d_151"/>
    </g>
    <g id="text_11">
     <!-- SAD, $p( N | \ \overline{\zeta} \ )$ -->
     <g transform="translate(40.45 286.925) rotate(-90) scale(0.35 -0.35)">
      <defs>
       <path id="DejaVuSans-41" d="M 2188 4044 
L 1331 1722 
L 3047 1722 
L 2188 4044 
z
M 1831 4666 
L 2547 4666 
L 4325 0 
L 3669 0 
L 3244 1197 
L 1141 1197 
L 716 0 
L 50 0 
L 1831 4666 
z
" transform="scale(0.015625)"/>
       <path id="DejaVuSans-44" d="M 1259 4147 
L 1259 519 
L 2022 519 
Q 2988 519 3436 956 
Q 3884 1394 3884 2338 
Q 3884 3275 3436 3711 
Q 2988 4147 2022 4147 
L 1259 4147 
z
M 628 4666 
L 1925 4666 
Q 3281 4666 3915 4102 
Q 4550 3538 4550 2338 
Q 4550 1131 3912 565 
Q 3275 0 1925 0 
L 628 0 
L 628 4666 
z
" transform="scale(0.015625)"/>
       <path id="Cmmi10-70" d="M -159 -1241 
Q -219 -1241 -219 -1159 
Q -197 -1019 -134 -1019 
Q 66 -1019 145 -983 
Q 225 -947 269 -800 
L 991 2081 
Q 1038 2200 1038 2388 
Q 1038 2663 850 2663 
Q 650 2663 553 2423 
Q 456 2184 366 1819 
Q 366 1778 313 1778 
L 238 1778 
Q 222 1778 203 1801 
Q 184 1825 184 1844 
Q 253 2122 317 2315 
Q 381 2509 517 2668 
Q 653 2828 856 2828 
Q 1075 2828 1240 2704 
Q 1406 2581 1453 2369 
Q 1628 2572 1840 2700 
Q 2053 2828 2278 2828 
Q 2547 2828 2745 2684 
Q 2944 2541 3044 2308 
Q 3144 2075 3144 1806 
Q 3144 1394 2933 953 
Q 2722 513 2361 220 
Q 2000 -72 1588 -72 
Q 1400 -72 1248 34 
Q 1097 141 1013 313 
L 722 -825 
Q 706 -919 703 -934 
Q 703 -1019 1125 -1019 
Q 1191 -1019 1191 -1100 
Q 1169 -1184 1155 -1212 
Q 1141 -1241 1081 -1241 
L -159 -1241 
z
M 1594 97 
Q 1816 97 2006 280 
Q 2197 463 2316 691 
Q 2403 863 2479 1111 
Q 2556 1359 2612 1640 
Q 2669 1922 2669 2088 
Q 2669 2234 2630 2362 
Q 2591 2491 2502 2577 
Q 2413 2663 2266 2663 
Q 2031 2663 1823 2495 
Q 1616 2328 1447 2081 
L 1447 2059 
L 1094 647 
Q 1138 419 1263 258 
Q 1388 97 1594 97 
z
" transform="scale(0.015625)"/>
       <path id="Cmr10-28" d="M 1984 -1588 
Q 1628 -1306 1370 -942 
Q 1113 -578 948 -165 
Q 784 247 703 697 
Q 622 1147 622 1600 
Q 622 2059 703 2509 
Q 784 2959 951 3375 
Q 1119 3791 1378 4153 
Q 1638 4516 1984 4788 
Q 1984 4800 2016 4800 
L 2075 4800 
Q 2094 4800 2109 4783 
Q 2125 4766 2125 4744 
Q 2125 4716 2113 4703 
Q 1800 4397 1592 4047 
Q 1384 3697 1257 3301 
Q 1131 2906 1075 2482 
Q 1019 2059 1019 1600 
Q 1019 -434 2106 -1491 
Q 2125 -1509 2125 -1544 
Q 2125 -1559 2108 -1579 
Q 2091 -1600 2075 -1600 
L 2016 -1600 
Q 1984 -1600 1984 -1588 
z
" transform="scale(0.015625)"/>
       <path id="Cmsy10-6a" d="M 763 -1484 
L 763 4684 
Q 763 4734 800 4767 
Q 838 4800 891 4800 
Q 938 4800 978 4767 
Q 1019 4734 1019 4684 
L 1019 -1484 
Q 1019 -1534 978 -1567 
Q 938 -1600 891 -1600 
Q 838 -1600 800 -1567 
Q 763 -1534 763 -1484 
z
" transform="scale(0.015625)"/>
       <path id="Cmmi10-b3" d="M 1131 -997 
Q 1147 -922 1222 -922 
Q 1234 -922 1332 -986 
Q 1431 -1050 1542 -1098 
Q 1653 -1147 1784 -1147 
Q 1922 -1147 2014 -1019 
Q 2106 -891 2106 -744 
Q 2106 -597 2009 -494 
Q 1913 -391 1766 -341 
L 1113 -122 
Q 713 16 503 317 
Q 294 619 294 1050 
Q 294 1416 426 1831 
Q 559 2247 793 2637 
Q 1028 3028 1334 3339 
Q 1641 3650 1972 3822 
Q 1906 3953 1906 4128 
Q 1906 4475 2041 4475 
Q 2075 4475 2100 4450 
Q 2125 4425 2125 4391 
Q 2125 4344 2109 4245 
Q 2094 4147 2094 4122 
Q 2094 4006 2131 3897 
Q 2297 3963 2438 3963 
Q 3028 3963 3028 3781 
Q 3028 3566 2375 3566 
Q 2181 3566 2069 3681 
Q 1794 3525 1539 3244 
Q 1284 2963 1087 2613 
Q 891 2263 781 1906 
Q 672 1550 672 1228 
Q 672 538 1300 319 
L 1984 91 
Q 2200 25 2336 -139 
Q 2472 -303 2472 -531 
Q 2472 -716 2378 -898 
Q 2284 -1081 2125 -1197 
Q 1966 -1313 1772 -1313 
Q 1619 -1313 1375 -1211 
Q 1131 -1109 1131 -997 
z
M 2247 3763 
Q 2241 3763 2303 3738 
Q 2331 3738 2348 3736 
Q 2366 3734 2388 3731 
Q 2694 3731 2828 3769 
Q 2706 3794 2438 3794 
Q 2350 3794 2247 3763 
z
" transform="scale(0.015625)"/>
       <path id="Cmr10-29" d="M 416 -1600 
Q 359 -1600 359 -1544 
Q 359 -1516 372 -1503 
Q 1466 -434 1466 1600 
Q 1466 3634 384 4691 
Q 359 4706 359 4744 
Q 359 4766 376 4783 
Q 394 4800 416 4800 
L 475 4800 
Q 494 4800 506 4788 
Q 966 4425 1272 3906 
Q 1578 3388 1720 2800 
Q 1863 2213 1863 1600 
Q 1863 1147 1786 708 
Q 1709 269 1542 -157 
Q 1375 -584 1119 -945 
Q 863 -1306 506 -1588 
Q 494 -1600 475 -1600 
L 416 -1600 
z
" transform="scale(0.015625)"/>
      </defs>
      <use xlink:href="#DejaVuSans-53" transform="translate(0 0.328125)"/>
      <use xlink:href="#DejaVuSans-41" transform="translate(63.476562 0.328125)"/>
      <use xlink:href="#DejaVuSans-44" transform="translate(131.884766 0.328125)"/>
      <use xlink:href="#DejaVuSans-2c" transform="translate(208.886719 0.328125)"/>
      <use xlink:href="#DejaVuSans-20" transform="translate(240.673828 0.328125)"/>
      <use xlink:href="#Cmmi10-70" transform="translate(272.460938 0.328125)"/>
      <use xlink:href="#Cmr10-28" transform="translate(322.753906 0.328125)"/>
      <use xlink:href="#Cmmi10-4e" transform="translate(361.572266 0.328125)"/>
      <use xlink:href="#Cmsy10-6a" transform="translate(441.894531 0.328125)"/>
      <use xlink:href="#Cmmi10-b3" transform="translate(498.844108 0.828125)"/>
      <use xlink:href="#Cmr10-29" transform="translate(571.809311 0.328125)"/>
      <path d="M 498.844108 82.5 
L 498.844108 88.75 
L 542.54528 88.75 
L 542.54528 82.5 
L 498.844108 82.5 
z
"/>
     </g>
    </g>
   </g>
  </g>
 </g>
 <defs>
  <clipPath id="pf6086a7ee6">
   <rect x="151.2" y="7.2" width="390.6" height="345.6"/>
  </clipPath>
 </defs>
</svg>
