<?xml version="1.0" encoding="utf-8" standalone="no"?>
<!DOCTYPE svg PUBLIC "-//W3C//DTD SVG 1.1//EN"
  "http://www.w3.org/Graphics/SVG/1.1/DTD/svg11.dtd">
<svg xmlns:xlink="http://www.w3.org/1999/xlink" width="1000.397282pt" height="425.792969pt" viewBox="0 0 1000.397282 425.792969" xmlns="http://www.w3.org/2000/svg" version="1.1">
 <metadata>
  <rdf:RDF xmlns:dc="http://purl.org/dc/elements/1.1/" xmlns:cc="http://creativecommons.org/ns#" xmlns:rdf="http://www.w3.org/1999/02/22-rdf-syntax-ns#">
   <cc:Work>
    <dc:type rdf:resource="http://purl.org/dc/dcmitype/StillImage"/>
    <dc:date>2024-07-25T16:44:37.095038</dc:date>
    <dc:format>image/svg+xml</dc:format>
    <dc:creator>
     <cc:Agent>
      <dc:title>Matplotlib v3.8.3, https://matplotlib.org/</dc:title>
     </cc:Agent>
    </dc:creator>
   </cc:Work>
  </rdf:RDF>
 </metadata>
 <defs>
  <style type="text/css">*{stroke-linejoin: round; stroke-linecap: butt}</style>
 </defs>
 <g id="figure_1">
  <g id="patch_1">
   <path d="M 0 425.792969 
L 1000.397282 425.792969 
L 1000.397282 0 
L 0 0 
L 0 425.792969 
z
" style="fill: none; opacity: 0"/>
  </g>
  <g id="axes_1">
   <g id="patch_2">
    <path d="M 89.234375 375.978125 
L 332.678726 375.978125 
L 332.678726 19.318125 
L 89.234375 19.318125 
L 89.234375 375.978125 
z
" style="fill: none"/>
   </g>
   <g id="LineCollection_1">
    <path d="M 124.012139 329.994161 
L 124.012139 202.290247 
" clip-path="url(#pfd5777ef75)" style="fill: none; stroke: #006ddb; stroke-width: 3"/>
   </g>
   <g id="line2d_1">
    <defs>
     <path id="ma4da262abb" d="M 7.5 0 
L -7.5 -0 
" style="stroke: #006ddb; stroke-width: 3"/>
    </defs>
    <g clip-path="url(#pfd5777ef75)">
     <use xlink:href="#ma4da262abb" x="124.012139" y="329.994161" style="fill: #006ddb; stroke: #006ddb; stroke-width: 3"/>
    </g>
   </g>
   <g id="line2d_2">
    <g clip-path="url(#pfd5777ef75)">
     <use xlink:href="#ma4da262abb" x="124.012139" y="202.290247" style="fill: #006ddb; stroke: #006ddb; stroke-width: 3"/>
    </g>
   </g>
   <g id="LineCollection_2">
    <path d="M 158.789904 194.147335 
L 158.789904 66.443421 
" clip-path="url(#pfd5777ef75)" style="fill: none; stroke: #808080; stroke-width: 3"/>
   </g>
   <g id="line2d_3">
    <defs>
     <path id="m0cb90c3b60" d="M 7.5 0 
L -7.5 -0 
" style="stroke: #808080; stroke-width: 3"/>
    </defs>
    <g clip-path="url(#pfd5777ef75)">
     <use xlink:href="#m0cb90c3b60" x="158.789904" y="194.147335" style="fill: #808080; stroke: #808080; stroke-width: 3"/>
    </g>
   </g>
   <g id="line2d_4">
    <g clip-path="url(#pfd5777ef75)">
     <use xlink:href="#m0cb90c3b60" x="158.789904" y="66.443421" style="fill: #808080; stroke: #808080; stroke-width: 3"/>
    </g>
   </g>
   <g id="LineCollection_3">
    <path d="M 263.123197 101.122942 
L 263.123197 43.592961 
" clip-path="url(#pfd5777ef75)" style="fill: none; stroke: #920000; stroke-width: 3"/>
   </g>
   <g id="line2d_5">
    <defs>
     <path id="m558f107e17" d="M 7.5 0 
L -7.5 -0 
" style="stroke: #920000; stroke-width: 3"/>
    </defs>
    <g clip-path="url(#pfd5777ef75)">
     <use xlink:href="#m558f107e17" x="263.123197" y="101.122942" style="fill: #920000; stroke: #920000; stroke-width: 3"/>
    </g>
   </g>
   <g id="line2d_6">
    <g clip-path="url(#pfd5777ef75)">
     <use xlink:href="#m558f107e17" x="263.123197" y="43.592961" style="fill: #920000; stroke: #920000; stroke-width: 3"/>
    </g>
   </g>
   <g id="LineCollection_4">
    <path d="M 297.900962 161.71149 
L 297.900962 104.181509 
" clip-path="url(#pfd5777ef75)" style="fill: none; stroke: #808080; stroke-width: 3"/>
   </g>
   <g id="line2d_7">
    <g clip-path="url(#pfd5777ef75)">
     <use xlink:href="#m0cb90c3b60" x="297.900962" y="161.71149" style="fill: #808080; stroke: #808080; stroke-width: 3"/>
    </g>
   </g>
   <g id="line2d_8">
    <g clip-path="url(#pfd5777ef75)">
     <use xlink:href="#m0cb90c3b60" x="297.900962" y="104.181509" style="fill: #808080; stroke: #808080; stroke-width: 3"/>
    </g>
   </g>
   <g id="line2d_9">
    <path d="M 124.012139 266.142204 
" clip-path="url(#pfd5777ef75)" style="fill: none; stroke: #006ddb; stroke-linecap: square"/>
   </g>
   <g id="line2d_10">
    <path d="M 158.789904 130.295378 
" clip-path="url(#pfd5777ef75)" style="fill: none; stroke: #808080; stroke-linecap: square"/>
   </g>
   <g id="line2d_11">
    <path d="M 263.123197 72.357952 
" clip-path="url(#pfd5777ef75)" style="fill: none; stroke: #920000; stroke-linecap: square"/>
   </g>
   <g id="line2d_12">
    <path d="M 297.900962 132.9465 
" clip-path="url(#pfd5777ef75)" style="fill: none; stroke: #808080; stroke-linecap: square"/>
   </g>
   <g id="PathCollection_1">
    <defs>
     <path id="m6aebceab69" d="M 0 8.660254 
C 2.296726 8.660254 4.499694 7.747755 6.123724 6.123724 
C 7.747755 4.499694 8.660254 2.296726 8.660254 0 
C 8.660254 -2.296726 7.747755 -4.499694 6.123724 -6.123724 
C 4.499694 -7.747755 2.296726 -8.660254 0 -8.660254 
C -2.296726 -8.660254 -4.499694 -7.747755 -6.123724 -6.123724 
C -7.747755 -4.499694 -8.660254 -2.296726 -8.660254 0 
C -8.660254 2.296726 -7.747755 4.499694 -6.123724 6.123724 
C -4.499694 7.747755 -2.296726 8.660254 0 8.660254 
z
" style="stroke: #000000; stroke-width: 3"/>
    </defs>
    <g clip-path="url(#pfd5777ef75)">
     <use xlink:href="#m6aebceab69" x="124.012139" y="266.142204" style="fill: #006ddb; stroke: #000000; stroke-width: 3"/>
    </g>
   </g>
   <g id="PathCollection_2">
    <defs>
     <path id="m6b38840844" d="M 0 8.660254 
C 2.296726 8.660254 4.499694 7.747755 6.123724 6.123724 
C 7.747755 4.499694 8.660254 2.296726 8.660254 0 
C 8.660254 -2.296726 7.747755 -4.499694 6.123724 -6.123724 
C 4.499694 -7.747755 2.296726 -8.660254 0 -8.660254 
C -2.296726 -8.660254 -4.499694 -7.747755 -6.123724 -6.123724 
C -7.747755 -4.499694 -8.660254 -2.296726 -8.660254 0 
C -8.660254 2.296726 -7.747755 4.499694 -6.123724 6.123724 
C -4.499694 7.747755 -2.296726 8.660254 0 8.660254 
z
" style="stroke: #000000; stroke-width: 3"/>
    </defs>
    <g clip-path="url(#pfd5777ef75)">
     <use xlink:href="#m6b38840844" x="158.789904" y="130.295378" style="fill: #808080; stroke: #000000; stroke-width: 3"/>
    </g>
   </g>
   <g id="PathCollection_3">
    <defs>
     <path id="m9e6eab8cde" d="M 0 8.660254 
C 2.296726 8.660254 4.499694 7.747755 6.123724 6.123724 
C 7.747755 4.499694 8.660254 2.296726 8.660254 0 
C 8.660254 -2.296726 7.747755 -4.499694 6.123724 -6.123724 
C 4.499694 -7.747755 2.296726 -8.660254 0 -8.660254 
C -2.296726 -8.660254 -4.499694 -7.747755 -6.123724 -6.123724 
C -7.747755 -4.499694 -8.660254 -2.296726 -8.660254 0 
C -8.660254 2.296726 -7.747755 4.499694 -6.123724 6.123724 
C -4.499694 7.747755 -2.296726 8.660254 0 8.660254 
z
" style="stroke: #000000; stroke-width: 3"/>
    </defs>
    <g clip-path="url(#pfd5777ef75)">
     <use xlink:href="#m9e6eab8cde" x="263.123197" y="72.357952" style="fill: #920000; stroke: #000000; stroke-width: 3"/>
    </g>
   </g>
   <g id="PathCollection_4">
    <g clip-path="url(#pfd5777ef75)">
     <use xlink:href="#m6b38840844" x="297.900962" y="132.9465" style="fill: #808080; stroke: #000000; stroke-width: 3"/>
    </g>
   </g>
   <g id="patch_3">
    <path d="M 89.234375 375.978125 
L 89.234375 19.318125 
" style="fill: none; stroke: #000000; stroke-width: 4; stroke-linejoin: miter; stroke-linecap: square"/>
   </g>
   <g id="patch_4">
    <path d="M 89.234375 375.978125 
L 332.678726 375.978125 
" style="fill: none; stroke: #000000; stroke-width: 4; stroke-linejoin: miter; stroke-linecap: square"/>
   </g>
   <g id="matplotlib.axis_1">
    <g id="xtick_1">
     <g id="line2d_13">
      <defs>
       <path id="md3168656de" d="M 0 0 
L 0 12 
" style="stroke: #000000; stroke-width: 4"/>
      </defs>
      <g>
       <use xlink:href="#md3168656de" x="137.923245" y="375.978125" style="stroke: #000000; stroke-width: 4"/>
      </g>
     </g>
     <g id="text_1">
      <!-- Healthy -->
      <g transform="translate(84.633402 412.873828) scale(0.275 -0.275)">
       <defs>
        <path id="DejaVuSans-48" d="M 628 4666 
L 1259 4666 
L 1259 2753 
L 3553 2753 
L 3553 4666 
L 4184 4666 
L 4184 0 
L 3553 0 
L 3553 2222 
L 1259 2222 
L 1259 0 
L 628 0 
L 628 4666 
z
" transform="scale(0.015625)"/>
        <path id="DejaVuSans-65" d="M 3597 1894 
L 3597 1613 
L 953 1613 
Q 991 1019 1311 708 
Q 1631 397 2203 397 
Q 2534 397 2845 478 
Q 3156 559 3463 722 
L 3463 178 
Q 3153 47 2828 -22 
Q 2503 -91 2169 -91 
Q 1331 -91 842 396 
Q 353 884 353 1716 
Q 353 2575 817 3079 
Q 1281 3584 2069 3584 
Q 2775 3584 3186 3129 
Q 3597 2675 3597 1894 
z
M 3022 2063 
Q 3016 2534 2758 2815 
Q 2500 3097 2075 3097 
Q 1594 3097 1305 2825 
Q 1016 2553 972 2059 
L 3022 2063 
z
" transform="scale(0.015625)"/>
        <path id="DejaVuSans-61" d="M 2194 1759 
Q 1497 1759 1228 1600 
Q 959 1441 959 1056 
Q 959 750 1161 570 
Q 1363 391 1709 391 
Q 2188 391 2477 730 
Q 2766 1069 2766 1631 
L 2766 1759 
L 2194 1759 
z
M 3341 1997 
L 3341 0 
L 2766 0 
L 2766 531 
Q 2569 213 2275 61 
Q 1981 -91 1556 -91 
Q 1019 -91 701 211 
Q 384 513 384 1019 
Q 384 1609 779 1909 
Q 1175 2209 1959 2209 
L 2766 2209 
L 2766 2266 
Q 2766 2663 2505 2880 
Q 2244 3097 1772 3097 
Q 1472 3097 1187 3025 
Q 903 2953 641 2809 
L 641 3341 
Q 956 3463 1253 3523 
Q 1550 3584 1831 3584 
Q 2591 3584 2966 3190 
Q 3341 2797 3341 1997 
z
" transform="scale(0.015625)"/>
        <path id="DejaVuSans-6c" d="M 603 4863 
L 1178 4863 
L 1178 0 
L 603 0 
L 603 4863 
z
" transform="scale(0.015625)"/>
        <path id="DejaVuSans-74" d="M 1172 4494 
L 1172 3500 
L 2356 3500 
L 2356 3053 
L 1172 3053 
L 1172 1153 
Q 1172 725 1289 603 
Q 1406 481 1766 481 
L 2356 481 
L 2356 0 
L 1766 0 
Q 1100 0 847 248 
Q 594 497 594 1153 
L 594 3053 
L 172 3053 
L 172 3500 
L 594 3500 
L 594 4494 
L 1172 4494 
z
" transform="scale(0.015625)"/>
        <path id="DejaVuSans-68" d="M 3513 2113 
L 3513 0 
L 2938 0 
L 2938 2094 
Q 2938 2591 2744 2837 
Q 2550 3084 2163 3084 
Q 1697 3084 1428 2787 
Q 1159 2491 1159 1978 
L 1159 0 
L 581 0 
L 581 4863 
L 1159 4863 
L 1159 2956 
Q 1366 3272 1645 3428 
Q 1925 3584 2291 3584 
Q 2894 3584 3203 3211 
Q 3513 2838 3513 2113 
z
" transform="scale(0.015625)"/>
        <path id="DejaVuSans-79" d="M 2059 -325 
Q 1816 -950 1584 -1140 
Q 1353 -1331 966 -1331 
L 506 -1331 
L 506 -850 
L 844 -850 
Q 1081 -850 1212 -737 
Q 1344 -625 1503 -206 
L 1606 56 
L 191 3500 
L 800 3500 
L 1894 763 
L 2988 3500 
L 3597 3500 
L 2059 -325 
z
" transform="scale(0.015625)"/>
       </defs>
       <use xlink:href="#DejaVuSans-48"/>
       <use xlink:href="#DejaVuSans-65" x="75.195312"/>
       <use xlink:href="#DejaVuSans-61" x="136.71875"/>
       <use xlink:href="#DejaVuSans-6c" x="197.998047"/>
       <use xlink:href="#DejaVuSans-74" x="225.78125"/>
       <use xlink:href="#DejaVuSans-68" x="264.990234"/>
       <use xlink:href="#DejaVuSans-79" x="328.369141"/>
      </g>
     </g>
    </g>
    <g id="xtick_2">
     <g id="line2d_14">
      <g>
       <use xlink:href="#md3168656de" x="277.034303" y="375.978125" style="stroke: #000000; stroke-width: 4"/>
      </g>
     </g>
     <g id="text_2">
      <!-- Diseased -->
      <g transform="translate(214.224733 412.873828) scale(0.275 -0.275)">
       <defs>
        <path id="DejaVuSans-44" d="M 1259 4147 
L 1259 519 
L 2022 519 
Q 2988 519 3436 956 
Q 3884 1394 3884 2338 
Q 3884 3275 3436 3711 
Q 2988 4147 2022 4147 
L 1259 4147 
z
M 628 4666 
L 1925 4666 
Q 3281 4666 3915 4102 
Q 4550 3538 4550 2338 
Q 4550 1131 3912 565 
Q 3275 0 1925 0 
L 628 0 
L 628 4666 
z
" transform="scale(0.015625)"/>
        <path id="DejaVuSans-69" d="M 603 3500 
L 1178 3500 
L 1178 0 
L 603 0 
L 603 3500 
z
M 603 4863 
L 1178 4863 
L 1178 4134 
L 603 4134 
L 603 4863 
z
" transform="scale(0.015625)"/>
        <path id="DejaVuSans-73" d="M 2834 3397 
L 2834 2853 
Q 2591 2978 2328 3040 
Q 2066 3103 1784 3103 
Q 1356 3103 1142 2972 
Q 928 2841 928 2578 
Q 928 2378 1081 2264 
Q 1234 2150 1697 2047 
L 1894 2003 
Q 2506 1872 2764 1633 
Q 3022 1394 3022 966 
Q 3022 478 2636 193 
Q 2250 -91 1575 -91 
Q 1294 -91 989 -36 
Q 684 19 347 128 
L 347 722 
Q 666 556 975 473 
Q 1284 391 1588 391 
Q 1994 391 2212 530 
Q 2431 669 2431 922 
Q 2431 1156 2273 1281 
Q 2116 1406 1581 1522 
L 1381 1569 
Q 847 1681 609 1914 
Q 372 2147 372 2553 
Q 372 3047 722 3315 
Q 1072 3584 1716 3584 
Q 2034 3584 2315 3537 
Q 2597 3491 2834 3397 
z
" transform="scale(0.015625)"/>
        <path id="DejaVuSans-64" d="M 2906 2969 
L 2906 4863 
L 3481 4863 
L 3481 0 
L 2906 0 
L 2906 525 
Q 2725 213 2448 61 
Q 2172 -91 1784 -91 
Q 1150 -91 751 415 
Q 353 922 353 1747 
Q 353 2572 751 3078 
Q 1150 3584 1784 3584 
Q 2172 3584 2448 3432 
Q 2725 3281 2906 2969 
z
M 947 1747 
Q 947 1113 1208 752 
Q 1469 391 1925 391 
Q 2381 391 2643 752 
Q 2906 1113 2906 1747 
Q 2906 2381 2643 2742 
Q 2381 3103 1925 3103 
Q 1469 3103 1208 2742 
Q 947 2381 947 1747 
z
" transform="scale(0.015625)"/>
       </defs>
       <use xlink:href="#DejaVuSans-44"/>
       <use xlink:href="#DejaVuSans-69" x="77.001953"/>
       <use xlink:href="#DejaVuSans-73" x="104.785156"/>
       <use xlink:href="#DejaVuSans-65" x="156.884766"/>
       <use xlink:href="#DejaVuSans-61" x="218.408203"/>
       <use xlink:href="#DejaVuSans-73" x="279.6875"/>
       <use xlink:href="#DejaVuSans-65" x="331.787109"/>
       <use xlink:href="#DejaVuSans-64" x="393.310547"/>
      </g>
     </g>
    </g>
   </g>
   <g id="matplotlib.axis_2">
    <g id="ytick_1">
     <g id="line2d_15">
      <defs>
       <path id="m5bd6407b8e" d="M 0 0 
L -12 0 
" style="stroke: #000000; stroke-width: 4"/>
      </defs>
      <g>
       <use xlink:href="#m5bd6407b8e" x="89.234375" y="359.389288" style="stroke: #000000; stroke-width: 4"/>
      </g>
     </g>
     <g id="text_3">
      <!-- $\mathdefault{4.5}$ -->
      <g transform="translate(41.234375 364.908038) scale(0.2 -0.2)">
       <defs>
        <path id="DejaVuSans-34" d="M 2419 4116 
L 825 1625 
L 2419 1625 
L 2419 4116 
z
M 2253 4666 
L 3047 4666 
L 3047 1625 
L 3713 1625 
L 3713 1100 
L 3047 1100 
L 3047 0 
L 2419 0 
L 2419 1100 
L 313 1100 
L 313 1709 
L 2253 4666 
z
" transform="scale(0.015625)"/>
        <path id="DejaVuSans-2e" d="M 684 794 
L 1344 794 
L 1344 0 
L 684 0 
L 684 794 
z
" transform="scale(0.015625)"/>
        <path id="DejaVuSans-35" d="M 691 4666 
L 3169 4666 
L 3169 4134 
L 1269 4134 
L 1269 2991 
Q 1406 3038 1543 3061 
Q 1681 3084 1819 3084 
Q 2600 3084 3056 2656 
Q 3513 2228 3513 1497 
Q 3513 744 3044 326 
Q 2575 -91 1722 -91 
Q 1428 -91 1123 -41 
Q 819 9 494 109 
L 494 744 
Q 775 591 1075 516 
Q 1375 441 1709 441 
Q 2250 441 2565 725 
Q 2881 1009 2881 1497 
Q 2881 1984 2565 2268 
Q 2250 2553 1709 2553 
Q 1456 2553 1204 2497 
Q 953 2441 691 2322 
L 691 4666 
z
" transform="scale(0.015625)"/>
       </defs>
       <use xlink:href="#DejaVuSans-34" transform="translate(0 0.09375)"/>
       <use xlink:href="#DejaVuSans-2e" transform="translate(63.623047 0.09375)"/>
       <use xlink:href="#DejaVuSans-35" transform="translate(95.410156 0.09375)"/>
      </g>
     </g>
    </g>
    <g id="ytick_2">
     <g id="line2d_16">
      <g>
       <use xlink:href="#m5bd6407b8e" x="89.234375" y="276.445102" style="stroke: #000000; stroke-width: 4"/>
      </g>
     </g>
     <g id="text_4">
      <!-- $\mathdefault{5.0}$ -->
      <g transform="translate(41.234375 281.963852) scale(0.2 -0.2)">
       <defs>
        <path id="DejaVuSans-30" d="M 2034 4250 
Q 1547 4250 1301 3770 
Q 1056 3291 1056 2328 
Q 1056 1369 1301 889 
Q 1547 409 2034 409 
Q 2525 409 2770 889 
Q 3016 1369 3016 2328 
Q 3016 3291 2770 3770 
Q 2525 4250 2034 4250 
z
M 2034 4750 
Q 2819 4750 3233 4129 
Q 3647 3509 3647 2328 
Q 3647 1150 3233 529 
Q 2819 -91 2034 -91 
Q 1250 -91 836 529 
Q 422 1150 422 2328 
Q 422 3509 836 4129 
Q 1250 4750 2034 4750 
z
" transform="scale(0.015625)"/>
       </defs>
       <use xlink:href="#DejaVuSans-35" transform="translate(0 0.78125)"/>
       <use xlink:href="#DejaVuSans-2e" transform="translate(63.623047 0.78125)"/>
       <use xlink:href="#DejaVuSans-30" transform="translate(95.410156 0.78125)"/>
      </g>
     </g>
    </g>
    <g id="ytick_3">
     <g id="line2d_17">
      <g>
       <use xlink:href="#m5bd6407b8e" x="89.234375" y="193.500916" style="stroke: #000000; stroke-width: 4"/>
      </g>
     </g>
     <g id="text_5">
      <!-- $\mathdefault{5.5}$ -->
      <g transform="translate(41.234375 199.019666) scale(0.2 -0.2)">
       <use xlink:href="#DejaVuSans-35" transform="translate(0 0.09375)"/>
       <use xlink:href="#DejaVuSans-2e" transform="translate(63.623047 0.09375)"/>
       <use xlink:href="#DejaVuSans-35" transform="translate(95.410156 0.09375)"/>
      </g>
     </g>
    </g>
    <g id="ytick_4">
     <g id="line2d_18">
      <g>
       <use xlink:href="#m5bd6407b8e" x="89.234375" y="110.55673" style="stroke: #000000; stroke-width: 4"/>
      </g>
     </g>
     <g id="text_6">
      <!-- $\mathdefault{6.0}$ -->
      <g transform="translate(41.234375 116.07548) scale(0.2 -0.2)">
       <defs>
        <path id="DejaVuSans-36" d="M 2113 2584 
Q 1688 2584 1439 2293 
Q 1191 2003 1191 1497 
Q 1191 994 1439 701 
Q 1688 409 2113 409 
Q 2538 409 2786 701 
Q 3034 994 3034 1497 
Q 3034 2003 2786 2293 
Q 2538 2584 2113 2584 
z
M 3366 4563 
L 3366 3988 
Q 3128 4100 2886 4159 
Q 2644 4219 2406 4219 
Q 1781 4219 1451 3797 
Q 1122 3375 1075 2522 
Q 1259 2794 1537 2939 
Q 1816 3084 2150 3084 
Q 2853 3084 3261 2657 
Q 3669 2231 3669 1497 
Q 3669 778 3244 343 
Q 2819 -91 2113 -91 
Q 1303 -91 875 529 
Q 447 1150 447 2328 
Q 447 3434 972 4092 
Q 1497 4750 2381 4750 
Q 2619 4750 2861 4703 
Q 3103 4656 3366 4563 
z
" transform="scale(0.015625)"/>
       </defs>
       <use xlink:href="#DejaVuSans-36" transform="translate(0 0.78125)"/>
       <use xlink:href="#DejaVuSans-2e" transform="translate(63.623047 0.78125)"/>
       <use xlink:href="#DejaVuSans-30" transform="translate(95.410156 0.78125)"/>
      </g>
     </g>
    </g>
    <g id="ytick_5">
     <g id="line2d_19">
      <g>
       <use xlink:href="#m5bd6407b8e" x="89.234375" y="27.612544" style="stroke: #000000; stroke-width: 4"/>
      </g>
     </g>
     <g id="text_7">
      <!-- $\mathdefault{6.5}$ -->
      <g transform="translate(41.234375 33.131294) scale(0.2 -0.2)">
       <use xlink:href="#DejaVuSans-36" transform="translate(0 0.78125)"/>
       <use xlink:href="#DejaVuSans-2e" transform="translate(63.623047 0.78125)"/>
       <use xlink:href="#DejaVuSans-35" transform="translate(95.410156 0.78125)"/>
      </g>
     </g>
    </g>
    <g id="text_8">
     <!-- $h$ -->
     <g transform="translate(29.995313 206.348125) rotate(-90) scale(0.3 -0.3)">
      <defs>
       <path id="Cmmi10-68" d="M 341 116 
Q 341 153 347 172 
L 1275 3872 
Q 1300 3981 1306 4044 
Q 1306 4147 891 4147 
Q 825 4147 825 4231 
Q 828 4247 839 4287 
Q 850 4328 867 4350 
Q 884 4372 916 4372 
L 1778 4441 
L 1797 4441 
Q 1797 4434 1819 4423 
Q 1841 4413 1844 4409 
Q 1856 4378 1856 4359 
L 1356 2363 
Q 1750 2828 2291 2828 
Q 2516 2828 2680 2750 
Q 2844 2672 2936 2514 
Q 3028 2356 3028 2138 
Q 3028 1875 2911 1503 
Q 2794 1131 2619 672 
Q 2528 463 2528 288 
Q 2528 97 2675 97 
Q 2925 97 3092 364 
Q 3259 631 3328 941 
Q 3341 978 3378 978 
L 3456 978 
Q 3481 978 3497 961 
Q 3513 944 3513 922 
Q 3513 916 3506 903 
Q 3450 672 3339 448 
Q 3228 225 3059 76 
Q 2891 -72 2663 -72 
Q 2438 -72 2278 83 
Q 2119 238 2119 459 
Q 2119 578 2169 709 
Q 2350 1191 2470 1569 
Q 2591 1947 2591 2234 
Q 2591 2419 2519 2541 
Q 2447 2663 2278 2663 
Q 1934 2663 1678 2452 
Q 1422 2241 1234 1894 
L 800 147 
Q 775 50 703 -11 
Q 631 -72 538 -72 
Q 456 -72 398 -17 
Q 341 38 341 116 
z
" transform="scale(0.015625)"/>
      </defs>
      <use xlink:href="#Cmmi10-68" transform="translate(0 0.609375)"/>
     </g>
    </g>
    <g id="text_9">
     <!-- $\times\mathdefault{10^{−4}}\mathdefault{}$ -->
     <g transform="translate(89.234375 16.318125) scale(0.12 -0.12)">
      <defs>
       <path id="Cmsy10-a3" d="M 941 184 
Q 941 234 972 275 
L 2303 1600 
L 972 2931 
Q 941 2963 941 3016 
Q 941 3063 978 3103 
Q 1016 3144 1069 3144 
Q 1113 3144 1166 3103 
L 2491 1778 
L 3809 3103 
Q 3863 3144 3903 3144 
Q 3956 3144 3993 3106 
Q 4031 3069 4031 3016 
Q 4031 2963 4000 2931 
L 2669 1600 
L 4000 275 
Q 4031 234 4031 184 
Q 4031 131 3993 93 
Q 3956 56 3903 56 
Q 3856 56 3809 103 
L 2491 1422 
L 1166 103 
Q 1119 56 1069 56 
Q 1016 56 978 97 
Q 941 138 941 184 
z
" transform="scale(0.015625)"/>
       <path id="DejaVuSans-31" d="M 794 531 
L 1825 531 
L 1825 4091 
L 703 3866 
L 703 4441 
L 1819 4666 
L 2450 4666 
L 2450 531 
L 3481 531 
L 3481 0 
L 794 0 
L 794 531 
z
" transform="scale(0.015625)"/>
       <path id="DejaVuSans-2212" d="M 678 2272 
L 4684 2272 
L 4684 1741 
L 678 1741 
L 678 2272 
z
" transform="scale(0.015625)"/>
      </defs>
      <use xlink:href="#Cmsy10-a3" transform="translate(0 0.684375)"/>
      <use xlink:href="#DejaVuSans-31" transform="translate(77.685547 0.684375)"/>
      <use xlink:href="#DejaVuSans-30" transform="translate(141.308594 0.684375)"/>
      <use xlink:href="#DejaVuSans-2212" transform="translate(205.888672 38.965625) scale(0.7)"/>
      <use xlink:href="#DejaVuSans-34" transform="translate(264.541016 38.965625) scale(0.7)"/>
     </g>
    </g>
   </g>
  </g>
  <g id="axes_2">
   <g id="patch_5">
    <path d="M 415.911079 375.978125 
L 659.355431 375.978125 
L 659.355431 19.318125 
L 415.911079 19.318125 
L 415.911079 375.978125 
z
" style="fill: none"/>
   </g>
   <g id="LineCollection_5">
    <path d="M 450.688844 340.600265 
L 450.688844 250.819166 
" clip-path="url(#pdb93fa45fc)" style="fill: none; stroke: #006ddb; stroke-width: 3"/>
   </g>
   <g id="line2d_20">
    <g clip-path="url(#pdb93fa45fc)">
     <use xlink:href="#ma4da262abb" x="450.688844" y="340.600265" style="fill: #006ddb; stroke: #006ddb; stroke-width: 3"/>
    </g>
   </g>
   <g id="line2d_21">
    <g clip-path="url(#pdb93fa45fc)">
     <use xlink:href="#ma4da262abb" x="450.688844" y="250.819166" style="fill: #006ddb; stroke: #006ddb; stroke-width: 3"/>
    </g>
   </g>
   <g id="LineCollection_6">
    <path d="M 485.466608 194.283668 
L 485.466608 104.502569 
" clip-path="url(#pdb93fa45fc)" style="fill: none; stroke: #808080; stroke-width: 3"/>
   </g>
   <g id="line2d_22">
    <g clip-path="url(#pdb93fa45fc)">
     <use xlink:href="#m0cb90c3b60" x="485.466608" y="194.283668" style="fill: #808080; stroke: #808080; stroke-width: 3"/>
    </g>
   </g>
   <g id="line2d_23">
    <g clip-path="url(#pdb93fa45fc)">
     <use xlink:href="#m0cb90c3b60" x="485.466608" y="104.502569" style="fill: #808080; stroke: #808080; stroke-width: 3"/>
    </g>
   </g>
   <g id="LineCollection_7">
    <path d="M 589.799902 106.394098 
L 589.799902 65.948157 
" clip-path="url(#pdb93fa45fc)" style="fill: none; stroke: #920000; stroke-width: 3"/>
   </g>
   <g id="line2d_24">
    <g clip-path="url(#pdb93fa45fc)">
     <use xlink:href="#m558f107e17" x="589.799902" y="106.394098" style="fill: #920000; stroke: #920000; stroke-width: 3"/>
    </g>
   </g>
   <g id="line2d_25">
    <g clip-path="url(#pdb93fa45fc)">
     <use xlink:href="#m558f107e17" x="589.799902" y="65.948157" style="fill: #920000; stroke: #920000; stroke-width: 3"/>
    </g>
   </g>
   <g id="LineCollection_8">
    <path d="M 624.577666 171.962006 
L 624.577666 131.516066 
" clip-path="url(#pdb93fa45fc)" style="fill: none; stroke: #808080; stroke-width: 3"/>
   </g>
   <g id="line2d_26">
    <g clip-path="url(#pdb93fa45fc)">
     <use xlink:href="#m0cb90c3b60" x="624.577666" y="171.962006" style="fill: #808080; stroke: #808080; stroke-width: 3"/>
    </g>
   </g>
   <g id="line2d_27">
    <g clip-path="url(#pdb93fa45fc)">
     <use xlink:href="#m0cb90c3b60" x="624.577666" y="131.516066" style="fill: #808080; stroke: #808080; stroke-width: 3"/>
    </g>
   </g>
   <g id="line2d_28">
    <path d="M 450.688844 295.709716 
" clip-path="url(#pdb93fa45fc)" style="fill: none; stroke: #006ddb; stroke-linecap: square"/>
   </g>
   <g id="line2d_29">
    <path d="M 485.466608 149.393119 
" clip-path="url(#pdb93fa45fc)" style="fill: none; stroke: #808080; stroke-linecap: square"/>
   </g>
   <g id="line2d_30">
    <path d="M 589.799902 86.171127 
" clip-path="url(#pdb93fa45fc)" style="fill: none; stroke: #920000; stroke-linecap: square"/>
   </g>
   <g id="line2d_31">
    <path d="M 624.577666 151.739036 
" clip-path="url(#pdb93fa45fc)" style="fill: none; stroke: #808080; stroke-linecap: square"/>
   </g>
   <g id="PathCollection_5">
    <g clip-path="url(#pdb93fa45fc)">
     <use xlink:href="#m6aebceab69" x="450.688844" y="295.709716" style="fill: #006ddb; stroke: #000000; stroke-width: 3"/>
    </g>
   </g>
   <g id="PathCollection_6">
    <g clip-path="url(#pdb93fa45fc)">
     <use xlink:href="#m6b38840844" x="485.466608" y="149.393119" style="fill: #808080; stroke: #000000; stroke-width: 3"/>
    </g>
   </g>
   <g id="PathCollection_7">
    <g clip-path="url(#pdb93fa45fc)">
     <use xlink:href="#m9e6eab8cde" x="589.799902" y="86.171127" style="fill: #920000; stroke: #000000; stroke-width: 3"/>
    </g>
   </g>
   <g id="PathCollection_8">
    <g clip-path="url(#pdb93fa45fc)">
     <use xlink:href="#m6b38840844" x="624.577666" y="151.739036" style="fill: #808080; stroke: #000000; stroke-width: 3"/>
    </g>
   </g>
   <g id="patch_6">
    <path d="M 415.911079 375.978125 
L 415.911079 19.318125 
" style="fill: none; stroke: #000000; stroke-width: 4; stroke-linejoin: miter; stroke-linecap: square"/>
   </g>
   <g id="patch_7">
    <path d="M 415.911079 375.978125 
L 659.355431 375.978125 
" style="fill: none; stroke: #000000; stroke-width: 4; stroke-linejoin: miter; stroke-linecap: square"/>
   </g>
   <g id="matplotlib.axis_3">
    <g id="xtick_3">
     <g id="line2d_32">
      <g>
       <use xlink:href="#md3168656de" x="464.59995" y="375.978125" style="stroke: #000000; stroke-width: 4"/>
      </g>
     </g>
     <g id="text_10">
      <!-- Healthy -->
      <g transform="translate(411.310106 412.873828) scale(0.275 -0.275)">
       <use xlink:href="#DejaVuSans-48"/>
       <use xlink:href="#DejaVuSans-65" x="75.195312"/>
       <use xlink:href="#DejaVuSans-61" x="136.71875"/>
       <use xlink:href="#DejaVuSans-6c" x="197.998047"/>
       <use xlink:href="#DejaVuSans-74" x="225.78125"/>
       <use xlink:href="#DejaVuSans-68" x="264.990234"/>
       <use xlink:href="#DejaVuSans-79" x="328.369141"/>
      </g>
     </g>
    </g>
    <g id="xtick_4">
     <g id="line2d_33">
      <g>
       <use xlink:href="#md3168656de" x="603.711008" y="375.978125" style="stroke: #000000; stroke-width: 4"/>
      </g>
     </g>
     <g id="text_11">
      <!-- Diseased -->
      <g transform="translate(540.901437 412.873828) scale(0.275 -0.275)">
       <use xlink:href="#DejaVuSans-44"/>
       <use xlink:href="#DejaVuSans-69" x="77.001953"/>
       <use xlink:href="#DejaVuSans-73" x="104.785156"/>
       <use xlink:href="#DejaVuSans-65" x="156.884766"/>
       <use xlink:href="#DejaVuSans-61" x="218.408203"/>
       <use xlink:href="#DejaVuSans-73" x="279.6875"/>
       <use xlink:href="#DejaVuSans-65" x="331.787109"/>
       <use xlink:href="#DejaVuSans-64" x="393.310547"/>
      </g>
     </g>
    </g>
   </g>
   <g id="matplotlib.axis_4">
    <g id="ytick_6">
     <g id="line2d_34">
      <g>
       <use xlink:href="#m5bd6407b8e" x="415.911079" y="363.536497" style="stroke: #000000; stroke-width: 4"/>
      </g>
     </g>
     <g id="text_12">
      <!-- $\mathdefault{2}$ -->
      <g transform="translate(387.111079 369.055247) scale(0.2 -0.2)">
       <defs>
        <path id="DejaVuSans-32" d="M 1228 531 
L 3431 531 
L 3431 0 
L 469 0 
L 469 531 
Q 828 903 1448 1529 
Q 2069 2156 2228 2338 
Q 2531 2678 2651 2914 
Q 2772 3150 2772 3378 
Q 2772 3750 2511 3984 
Q 2250 4219 1831 4219 
Q 1534 4219 1204 4116 
Q 875 4013 500 3803 
L 500 4441 
Q 881 4594 1212 4672 
Q 1544 4750 1819 4750 
Q 2544 4750 2975 4387 
Q 3406 4025 3406 3419 
Q 3406 3131 3298 2873 
Q 3191 2616 2906 2266 
Q 2828 2175 2409 1742 
Q 1991 1309 1228 531 
z
" transform="scale(0.015625)"/>
       </defs>
       <use xlink:href="#DejaVuSans-32" transform="translate(0 0.78125)"/>
      </g>
     </g>
    </g>
    <g id="ytick_7">
     <g id="line2d_35">
      <g>
       <use xlink:href="#m5bd6407b8e" x="415.911079" y="280.592311" style="stroke: #000000; stroke-width: 4"/>
      </g>
     </g>
     <g id="text_13">
      <!-- $\mathdefault{3}$ -->
      <g transform="translate(387.111079 286.111061) scale(0.2 -0.2)">
       <defs>
        <path id="DejaVuSans-33" d="M 2597 2516 
Q 3050 2419 3304 2112 
Q 3559 1806 3559 1356 
Q 3559 666 3084 287 
Q 2609 -91 1734 -91 
Q 1441 -91 1130 -33 
Q 819 25 488 141 
L 488 750 
Q 750 597 1062 519 
Q 1375 441 1716 441 
Q 2309 441 2620 675 
Q 2931 909 2931 1356 
Q 2931 1769 2642 2001 
Q 2353 2234 1838 2234 
L 1294 2234 
L 1294 2753 
L 1863 2753 
Q 2328 2753 2575 2939 
Q 2822 3125 2822 3475 
Q 2822 3834 2567 4026 
Q 2313 4219 1838 4219 
Q 1578 4219 1281 4162 
Q 984 4106 628 3988 
L 628 4550 
Q 988 4650 1302 4700 
Q 1616 4750 1894 4750 
Q 2613 4750 3031 4423 
Q 3450 4097 3450 3541 
Q 3450 3153 3228 2886 
Q 3006 2619 2597 2516 
z
" transform="scale(0.015625)"/>
       </defs>
       <use xlink:href="#DejaVuSans-33" transform="translate(0 0.78125)"/>
      </g>
     </g>
    </g>
    <g id="ytick_8">
     <g id="line2d_36">
      <g>
       <use xlink:href="#m5bd6407b8e" x="415.911079" y="197.648125" style="stroke: #000000; stroke-width: 4"/>
      </g>
     </g>
     <g id="text_14">
      <!-- $\mathdefault{4}$ -->
      <g transform="translate(387.111079 203.166875) scale(0.2 -0.2)">
       <use xlink:href="#DejaVuSans-34" transform="translate(0 0.09375)"/>
      </g>
     </g>
    </g>
    <g id="ytick_9">
     <g id="line2d_37">
      <g>
       <use xlink:href="#m5bd6407b8e" x="415.911079" y="114.703939" style="stroke: #000000; stroke-width: 4"/>
      </g>
     </g>
     <g id="text_15">
      <!-- $\mathdefault{5}$ -->
      <g transform="translate(387.111079 120.222689) scale(0.2 -0.2)">
       <use xlink:href="#DejaVuSans-35" transform="translate(0 0.09375)"/>
      </g>
     </g>
    </g>
    <g id="ytick_10">
     <g id="line2d_38">
      <g>
       <use xlink:href="#m5bd6407b8e" x="415.911079" y="31.759753" style="stroke: #000000; stroke-width: 4"/>
      </g>
     </g>
     <g id="text_16">
      <!-- $\mathdefault{6}$ -->
      <g transform="translate(387.111079 37.278503) scale(0.2 -0.2)">
       <use xlink:href="#DejaVuSans-36" transform="translate(0 0.78125)"/>
      </g>
     </g>
    </g>
    <g id="text_17">
     <!-- $q_d$ -->
     <g transform="translate(375.872017 210.848125) rotate(-90) scale(0.3 -0.3)">
      <defs>
       <path id="Cmmi10-71" d="M 941 -1159 
Q 963 -1019 1025 -1019 
Q 1256 -1019 1389 -981 
Q 1522 -944 1563 -800 
L 1838 288 
Q 1472 -72 1106 -72 
Q 703 -72 473 233 
Q 244 538 244 953 
Q 244 1363 455 1803 
Q 666 2244 1027 2536 
Q 1388 2828 1806 2828 
Q 2000 2828 2156 2712 
Q 2313 2597 2394 2406 
Q 2431 2481 2601 2654 
Q 2772 2828 2841 2828 
Q 2913 2828 2913 2747 
L 2016 -825 
Q 2000 -919 1997 -934 
Q 1997 -1019 2419 -1019 
Q 2450 -1019 2467 -1044 
Q 2484 -1069 2484 -1100 
Q 2463 -1184 2448 -1212 
Q 2434 -1241 2375 -1241 
L 1006 -1241 
Q 941 -1241 941 -1159 
z
M 1119 97 
Q 1344 97 1558 267 
Q 1772 438 1931 672 
L 2291 2113 
Q 2253 2338 2126 2500 
Q 2000 2663 1791 2663 
Q 1575 2663 1389 2486 
Q 1203 2309 1075 2069 
Q 950 1813 836 1366 
Q 722 919 722 672 
Q 722 450 817 273 
Q 913 97 1119 97 
z
" transform="scale(0.015625)"/>
       <path id="Cmmi10-64" d="M 1113 -72 
Q 709 -72 476 233 
Q 244 538 244 953 
Q 244 1363 456 1803 
Q 669 2244 1030 2536 
Q 1391 2828 1806 2828 
Q 1994 2828 2145 2723 
Q 2297 2619 2381 2444 
L 2741 3872 
Q 2766 3981 2772 4044 
Q 2772 4147 2356 4147 
Q 2291 4147 2291 4231 
Q 2294 4247 2305 4287 
Q 2316 4328 2333 4350 
Q 2350 4372 2381 4372 
L 3244 4441 
Q 3322 4441 3322 4359 
L 2400 678 
Q 2356 572 2356 372 
Q 2356 97 2541 97 
Q 2741 97 2845 351 
Q 2950 606 3022 941 
Q 3034 978 3072 978 
L 3150 978 
Q 3175 978 3190 956 
Q 3206 934 3206 916 
Q 3094 469 2961 198 
Q 2828 -72 2528 -72 
Q 2313 -72 2147 54 
Q 1981 181 1941 391 
Q 1528 -72 1113 -72 
z
M 1119 97 
Q 1350 97 1567 270 
Q 1784 444 1941 678 
Q 1947 684 1947 703 
L 2297 2113 
Q 2259 2338 2131 2500 
Q 2003 2663 1791 2663 
Q 1575 2663 1389 2486 
Q 1203 2309 1075 2069 
Q 950 1813 836 1366 
Q 722 919 722 672 
Q 722 450 817 273 
Q 913 97 1119 97 
z
" transform="scale(0.015625)"/>
      </defs>
      <use xlink:href="#Cmmi10-71" transform="translate(0 0.8125)"/>
      <use xlink:href="#Cmmi10-64" transform="translate(44.580078 -16.19375) scale(0.7)"/>
     </g>
    </g>
    <g id="text_18">
     <!-- $\times\mathdefault{10^{−5}}\mathdefault{}$ -->
     <g transform="translate(415.911079 16.318125) scale(0.12 -0.12)">
      <use xlink:href="#Cmsy10-a3" transform="translate(0 0.684375)"/>
      <use xlink:href="#DejaVuSans-31" transform="translate(77.685547 0.684375)"/>
      <use xlink:href="#DejaVuSans-30" transform="translate(141.308594 0.684375)"/>
      <use xlink:href="#DejaVuSans-2212" transform="translate(205.888672 38.965625) scale(0.7)"/>
      <use xlink:href="#DejaVuSans-35" transform="translate(264.541016 38.965625) scale(0.7)"/>
     </g>
    </g>
   </g>
  </g>
  <g id="axes_3">
   <g id="patch_8">
    <path d="M 742.587784 375.978125 
L 986.032135 375.978125 
L 986.032135 19.318125 
L 742.587784 19.318125 
L 742.587784 375.978125 
z
" style="fill: none"/>
   </g>
   <g id="LineCollection_9">
    <path d="M 777.365548 349.956018 
L 777.365548 136.911439 
" clip-path="url(#p61bffa27a2)" style="fill: none; stroke: #006ddb; stroke-width: 3"/>
   </g>
   <g id="line2d_39">
    <g clip-path="url(#p61bffa27a2)">
     <use xlink:href="#ma4da262abb" x="777.365548" y="349.956018" style="fill: #006ddb; stroke: #006ddb; stroke-width: 3"/>
    </g>
   </g>
   <g id="line2d_40">
    <g clip-path="url(#p61bffa27a2)">
     <use xlink:href="#ma4da262abb" x="777.365548" y="136.911439" style="fill: #006ddb; stroke: #006ddb; stroke-width: 3"/>
    </g>
   </g>
   <g id="LineCollection_10">
    <path d="M 812.143313 247.314591 
L 812.143313 34.270012 
" clip-path="url(#p61bffa27a2)" style="fill: none; stroke: #808080; stroke-width: 3"/>
   </g>
   <g id="line2d_41">
    <g clip-path="url(#p61bffa27a2)">
     <use xlink:href="#m0cb90c3b60" x="812.143313" y="247.314591" style="fill: #808080; stroke: #808080; stroke-width: 3"/>
    </g>
   </g>
   <g id="line2d_42">
    <g clip-path="url(#p61bffa27a2)">
     <use xlink:href="#m0cb90c3b60" x="812.143313" y="34.270012" style="fill: #808080; stroke: #808080; stroke-width: 3"/>
    </g>
   </g>
   <g id="LineCollection_11">
    <path d="M 916.476606 146.000315 
L 916.476606 50.024787 
" clip-path="url(#p61bffa27a2)" style="fill: none; stroke: #920000; stroke-width: 3"/>
   </g>
   <g id="line2d_43">
    <g clip-path="url(#p61bffa27a2)">
     <use xlink:href="#m558f107e17" x="916.476606" y="146.000315" style="fill: #920000; stroke: #920000; stroke-width: 3"/>
    </g>
   </g>
   <g id="line2d_44">
    <g clip-path="url(#p61bffa27a2)">
     <use xlink:href="#m558f107e17" x="916.476606" y="50.024787" style="fill: #920000; stroke: #920000; stroke-width: 3"/>
    </g>
   </g>
   <g id="LineCollection_12">
    <path d="M 951.254371 191.376779 
L 951.254371 95.401251 
" clip-path="url(#p61bffa27a2)" style="fill: none; stroke: #808080; stroke-width: 3"/>
   </g>
   <g id="line2d_45">
    <g clip-path="url(#p61bffa27a2)">
     <use xlink:href="#m0cb90c3b60" x="951.254371" y="191.376779" style="fill: #808080; stroke: #808080; stroke-width: 3"/>
    </g>
   </g>
   <g id="line2d_46">
    <g clip-path="url(#p61bffa27a2)">
     <use xlink:href="#m0cb90c3b60" x="951.254371" y="95.401251" style="fill: #808080; stroke: #808080; stroke-width: 3"/>
    </g>
   </g>
   <g id="line2d_47">
    <path d="M 777.365548 243.433728 
" clip-path="url(#p61bffa27a2)" style="fill: none; stroke: #006ddb; stroke-linecap: square"/>
   </g>
   <g id="line2d_48">
    <path d="M 812.143313 140.792301 
" clip-path="url(#p61bffa27a2)" style="fill: none; stroke: #808080; stroke-linecap: square"/>
   </g>
   <g id="line2d_49">
    <path d="M 916.476606 98.012551 
" clip-path="url(#p61bffa27a2)" style="fill: none; stroke: #920000; stroke-linecap: square"/>
   </g>
   <g id="line2d_50">
    <path d="M 951.254371 143.389015 
" clip-path="url(#p61bffa27a2)" style="fill: none; stroke: #808080; stroke-linecap: square"/>
   </g>
   <g id="PathCollection_9">
    <g clip-path="url(#p61bffa27a2)">
     <use xlink:href="#m6aebceab69" x="777.365548" y="243.433728" style="fill: #006ddb; stroke: #000000; stroke-width: 3"/>
    </g>
   </g>
   <g id="PathCollection_10">
    <g clip-path="url(#p61bffa27a2)">
     <use xlink:href="#m6b38840844" x="812.143313" y="140.792301" style="fill: #808080; stroke: #000000; stroke-width: 3"/>
    </g>
   </g>
   <g id="PathCollection_11">
    <g clip-path="url(#p61bffa27a2)">
     <use xlink:href="#m9e6eab8cde" x="916.476606" y="98.012551" style="fill: #920000; stroke: #000000; stroke-width: 3"/>
    </g>
   </g>
   <g id="PathCollection_12">
    <g clip-path="url(#p61bffa27a2)">
     <use xlink:href="#m6b38840844" x="951.254371" y="143.389015" style="fill: #808080; stroke: #000000; stroke-width: 3"/>
    </g>
   </g>
   <g id="PathCollection_13">
    <g clip-path="url(#p61bffa27a2)">
     <use xlink:href="#m6b38840844" x="951.254371" y="143.389015" style="fill: #808080; stroke: #000000; stroke-width: 3"/>
    </g>
   </g>
   <g id="patch_9">
    <path d="M 742.587784 375.978125 
L 742.587784 19.318125 
" style="fill: none; stroke: #000000; stroke-width: 4; stroke-linejoin: miter; stroke-linecap: square"/>
   </g>
   <g id="patch_10">
    <path d="M 742.587784 375.978125 
L 986.032135 375.978125 
" style="fill: none; stroke: #000000; stroke-width: 4; stroke-linejoin: miter; stroke-linecap: square"/>
   </g>
   <g id="matplotlib.axis_5">
    <g id="xtick_5">
     <g id="line2d_51">
      <g>
       <use xlink:href="#md3168656de" x="791.276654" y="375.978125" style="stroke: #000000; stroke-width: 4"/>
      </g>
     </g>
     <g id="text_19">
      <!-- Healthy -->
      <g transform="translate(737.98681 412.873828) scale(0.275 -0.275)">
       <use xlink:href="#DejaVuSans-48"/>
       <use xlink:href="#DejaVuSans-65" x="75.195312"/>
       <use xlink:href="#DejaVuSans-61" x="136.71875"/>
       <use xlink:href="#DejaVuSans-6c" x="197.998047"/>
       <use xlink:href="#DejaVuSans-74" x="225.78125"/>
       <use xlink:href="#DejaVuSans-68" x="264.990234"/>
       <use xlink:href="#DejaVuSans-79" x="328.369141"/>
      </g>
     </g>
    </g>
    <g id="xtick_6">
     <g id="line2d_52">
      <g>
       <use xlink:href="#md3168656de" x="930.387712" y="375.978125" style="stroke: #000000; stroke-width: 4"/>
      </g>
     </g>
     <g id="text_20">
      <!-- Diseased -->
      <g transform="translate(867.578142 412.873828) scale(0.275 -0.275)">
       <use xlink:href="#DejaVuSans-44"/>
       <use xlink:href="#DejaVuSans-69" x="77.001953"/>
       <use xlink:href="#DejaVuSans-73" x="104.785156"/>
       <use xlink:href="#DejaVuSans-65" x="156.884766"/>
       <use xlink:href="#DejaVuSans-61" x="218.408203"/>
       <use xlink:href="#DejaVuSans-73" x="279.6875"/>
       <use xlink:href="#DejaVuSans-65" x="331.787109"/>
       <use xlink:href="#DejaVuSans-64" x="393.310547"/>
      </g>
     </g>
    </g>
   </g>
   <g id="matplotlib.axis_6">
    <g id="ytick_11">
     <g id="line2d_53">
      <g>
       <use xlink:href="#m5bd6407b8e" x="742.587784" y="356.163681" style="stroke: #000000; stroke-width: 4"/>
      </g>
     </g>
     <g id="text_21">
      <!-- $\mathdefault{0}$ -->
      <g transform="translate(713.787784 361.682431) scale(0.2 -0.2)">
       <use xlink:href="#DejaVuSans-30" transform="translate(0 0.78125)"/>
      </g>
     </g>
    </g>
    <g id="ytick_12">
     <g id="line2d_54">
      <g>
       <use xlink:href="#m5bd6407b8e" x="742.587784" y="276.905903" style="stroke: #000000; stroke-width: 4"/>
      </g>
     </g>
     <g id="text_22">
      <!-- $\mathdefault{2}$ -->
      <g transform="translate(713.787784 282.424653) scale(0.2 -0.2)">
       <use xlink:href="#DejaVuSans-32" transform="translate(0 0.78125)"/>
      </g>
     </g>
    </g>
    <g id="ytick_13">
     <g id="line2d_55">
      <g>
       <use xlink:href="#m5bd6407b8e" x="742.587784" y="197.648125" style="stroke: #000000; stroke-width: 4"/>
      </g>
     </g>
     <g id="text_23">
      <!-- $\mathdefault{4}$ -->
      <g transform="translate(713.787784 203.166875) scale(0.2 -0.2)">
       <use xlink:href="#DejaVuSans-34" transform="translate(0 0.09375)"/>
      </g>
     </g>
    </g>
    <g id="ytick_14">
     <g id="line2d_56">
      <g>
       <use xlink:href="#m5bd6407b8e" x="742.587784" y="118.390347" style="stroke: #000000; stroke-width: 4"/>
      </g>
     </g>
     <g id="text_24">
      <!-- $\mathdefault{6}$ -->
      <g transform="translate(713.787784 123.909097) scale(0.2 -0.2)">
       <use xlink:href="#DejaVuSans-36" transform="translate(0 0.78125)"/>
      </g>
     </g>
    </g>
    <g id="ytick_15">
     <g id="line2d_57">
      <g>
       <use xlink:href="#m5bd6407b8e" x="742.587784" y="39.132569" style="stroke: #000000; stroke-width: 4"/>
      </g>
     </g>
     <g id="text_25">
      <!-- $\mathdefault{8}$ -->
      <g transform="translate(713.787784 44.651319) scale(0.2 -0.2)">
       <defs>
        <path id="DejaVuSans-38" d="M 2034 2216 
Q 1584 2216 1326 1975 
Q 1069 1734 1069 1313 
Q 1069 891 1326 650 
Q 1584 409 2034 409 
Q 2484 409 2743 651 
Q 3003 894 3003 1313 
Q 3003 1734 2745 1975 
Q 2488 2216 2034 2216 
z
M 1403 2484 
Q 997 2584 770 2862 
Q 544 3141 544 3541 
Q 544 4100 942 4425 
Q 1341 4750 2034 4750 
Q 2731 4750 3128 4425 
Q 3525 4100 3525 3541 
Q 3525 3141 3298 2862 
Q 3072 2584 2669 2484 
Q 3125 2378 3379 2068 
Q 3634 1759 3634 1313 
Q 3634 634 3220 271 
Q 2806 -91 2034 -91 
Q 1263 -91 848 271 
Q 434 634 434 1313 
Q 434 1759 690 2068 
Q 947 2378 1403 2484 
z
M 1172 3481 
Q 1172 3119 1398 2916 
Q 1625 2713 2034 2713 
Q 2441 2713 2670 2916 
Q 2900 3119 2900 3481 
Q 2900 3844 2670 4047 
Q 2441 4250 2034 4250 
Q 1625 4250 1398 4047 
Q 1172 3844 1172 3481 
z
" transform="scale(0.015625)"/>
       </defs>
       <use xlink:href="#DejaVuSans-38" transform="translate(0 0.78125)"/>
      </g>
     </g>
    </g>
    <g id="text_26">
     <!-- $q_0$ -->
     <g transform="translate(702.548721 210.548125) rotate(-90) scale(0.3 -0.3)">
      <defs>
       <path id="Cmr10-30" d="M 1600 -141 
Q 816 -141 533 504 
Q 250 1150 250 2041 
Q 250 2597 351 3087 
Q 453 3578 754 3920 
Q 1056 4263 1600 4263 
Q 2022 4263 2290 4056 
Q 2559 3850 2700 3523 
Q 2841 3197 2892 2823 
Q 2944 2450 2944 2041 
Q 2944 1491 2842 1011 
Q 2741 531 2444 195 
Q 2147 -141 1600 -141 
z
M 1600 25 
Q 1956 25 2131 390 
Q 2306 756 2347 1200 
Q 2388 1644 2388 2144 
Q 2388 2625 2347 3031 
Q 2306 3438 2132 3767 
Q 1959 4097 1600 4097 
Q 1238 4097 1063 3765 
Q 888 3434 847 3029 
Q 806 2625 806 2144 
Q 806 1788 823 1472 
Q 841 1156 916 820 
Q 991 484 1158 254 
Q 1325 25 1600 25 
z
" transform="scale(0.015625)"/>
      </defs>
      <use xlink:href="#Cmmi10-71" transform="translate(0 0.8125)"/>
      <use xlink:href="#Cmr10-30" transform="translate(44.580078 -16.19375) scale(0.7)"/>
     </g>
    </g>
    <g id="text_27">
     <!-- $\times\mathdefault{10^{−7}}\mathdefault{}$ -->
     <g transform="translate(742.587784 16.318125) scale(0.12 -0.12)">
      <defs>
       <path id="DejaVuSans-37" d="M 525 4666 
L 3525 4666 
L 3525 4397 
L 1831 0 
L 1172 0 
L 2766 4134 
L 525 4134 
L 525 4666 
z
" transform="scale(0.015625)"/>
      </defs>
      <use xlink:href="#Cmsy10-a3" transform="translate(0 0.684375)"/>
      <use xlink:href="#DejaVuSans-31" transform="translate(77.685547 0.684375)"/>
      <use xlink:href="#DejaVuSans-30" transform="translate(141.308594 0.684375)"/>
      <use xlink:href="#DejaVuSans-2212" transform="translate(205.888672 38.965625) scale(0.7)"/>
      <use xlink:href="#DejaVuSans-37" transform="translate(264.541016 38.965625) scale(0.7)"/>
     </g>
    </g>
   </g>
   <g id="legend_1">
    <g id="patch_11">
     <path d="M 800.807635 346.219125 
L 978.832135 346.219125 
L 978.832135 320.762625 
L 800.807635 320.762625 
z
" style="fill: #ffffff; stroke: #000000; stroke-linejoin: miter"/>
    </g>
    <g id="PathCollection_14">
     <g>
      <use xlink:href="#m6b38840844" x="820.967635" y="333.684375" style="fill: #808080; stroke: #000000; stroke-width: 3"/>
     </g>
    </g>
    <g id="text_28">
     <!-- Randomized data -->
     <g transform="translate(846.887635 337.464375) scale(0.144 -0.144)">
      <defs>
       <path id="DejaVuSans-52" d="M 2841 2188 
Q 3044 2119 3236 1894 
Q 3428 1669 3622 1275 
L 4263 0 
L 3584 0 
L 2988 1197 
Q 2756 1666 2539 1819 
Q 2322 1972 1947 1972 
L 1259 1972 
L 1259 0 
L 628 0 
L 628 4666 
L 2053 4666 
Q 2853 4666 3247 4331 
Q 3641 3997 3641 3322 
Q 3641 2881 3436 2590 
Q 3231 2300 2841 2188 
z
M 1259 4147 
L 1259 2491 
L 2053 2491 
Q 2509 2491 2742 2702 
Q 2975 2913 2975 3322 
Q 2975 3731 2742 3939 
Q 2509 4147 2053 4147 
L 1259 4147 
z
" transform="scale(0.015625)"/>
       <path id="DejaVuSans-6e" d="M 3513 2113 
L 3513 0 
L 2938 0 
L 2938 2094 
Q 2938 2591 2744 2837 
Q 2550 3084 2163 3084 
Q 1697 3084 1428 2787 
Q 1159 2491 1159 1978 
L 1159 0 
L 581 0 
L 581 3500 
L 1159 3500 
L 1159 2956 
Q 1366 3272 1645 3428 
Q 1925 3584 2291 3584 
Q 2894 3584 3203 3211 
Q 3513 2838 3513 2113 
z
" transform="scale(0.015625)"/>
       <path id="DejaVuSans-6f" d="M 1959 3097 
Q 1497 3097 1228 2736 
Q 959 2375 959 1747 
Q 959 1119 1226 758 
Q 1494 397 1959 397 
Q 2419 397 2687 759 
Q 2956 1122 2956 1747 
Q 2956 2369 2687 2733 
Q 2419 3097 1959 3097 
z
M 1959 3584 
Q 2709 3584 3137 3096 
Q 3566 2609 3566 1747 
Q 3566 888 3137 398 
Q 2709 -91 1959 -91 
Q 1206 -91 779 398 
Q 353 888 353 1747 
Q 353 2609 779 3096 
Q 1206 3584 1959 3584 
z
" transform="scale(0.015625)"/>
       <path id="DejaVuSans-6d" d="M 3328 2828 
Q 3544 3216 3844 3400 
Q 4144 3584 4550 3584 
Q 5097 3584 5394 3201 
Q 5691 2819 5691 2113 
L 5691 0 
L 5113 0 
L 5113 2094 
Q 5113 2597 4934 2840 
Q 4756 3084 4391 3084 
Q 3944 3084 3684 2787 
Q 3425 2491 3425 1978 
L 3425 0 
L 2847 0 
L 2847 2094 
Q 2847 2600 2669 2842 
Q 2491 3084 2119 3084 
Q 1678 3084 1418 2786 
Q 1159 2488 1159 1978 
L 1159 0 
L 581 0 
L 581 3500 
L 1159 3500 
L 1159 2956 
Q 1356 3278 1631 3431 
Q 1906 3584 2284 3584 
Q 2666 3584 2933 3390 
Q 3200 3197 3328 2828 
z
" transform="scale(0.015625)"/>
       <path id="DejaVuSans-7a" d="M 353 3500 
L 3084 3500 
L 3084 2975 
L 922 459 
L 3084 459 
L 3084 0 
L 275 0 
L 275 525 
L 2438 3041 
L 353 3041 
L 353 3500 
z
" transform="scale(0.015625)"/>
       <path id="DejaVuSans-20" transform="scale(0.015625)"/>
      </defs>
      <use xlink:href="#DejaVuSans-52"/>
      <use xlink:href="#DejaVuSans-61" x="67.232422"/>
      <use xlink:href="#DejaVuSans-6e" x="128.511719"/>
      <use xlink:href="#DejaVuSans-64" x="191.890625"/>
      <use xlink:href="#DejaVuSans-6f" x="255.367188"/>
      <use xlink:href="#DejaVuSans-6d" x="316.548828"/>
      <use xlink:href="#DejaVuSans-69" x="413.960938"/>
      <use xlink:href="#DejaVuSans-7a" x="441.744141"/>
      <use xlink:href="#DejaVuSans-65" x="494.234375"/>
      <use xlink:href="#DejaVuSans-64" x="555.757812"/>
      <use xlink:href="#DejaVuSans-20" x="619.234375"/>
      <use xlink:href="#DejaVuSans-64" x="651.021484"/>
      <use xlink:href="#DejaVuSans-61" x="714.498047"/>
      <use xlink:href="#DejaVuSans-74" x="775.777344"/>
      <use xlink:href="#DejaVuSans-61" x="814.986328"/>
     </g>
    </g>
   </g>
  </g>
 </g>
 <defs>
  <clipPath id="pfd5777ef75">
   <rect x="89.234375" y="19.318125" width="243.444351" height="356.66"/>
  </clipPath>
  <clipPath id="pdb93fa45fc">
   <rect x="415.911079" y="19.318125" width="243.444351" height="356.66"/>
  </clipPath>
  <clipPath id="p61bffa27a2">
   <rect x="742.587784" y="19.318125" width="243.444351" height="356.66"/>
  </clipPath>
 </defs>
</svg>
